M48
; DRILL file {KiCad 8.0.6} date 2025-05-06T17:21:28+0900
; FORMAT={-:-/ absolute / metric / decimal}
; #@! TF.CreationDate,2025-05-06T17:21:28+09:00
; #@! TF.GenerationSoftware,Kicad,Pcbnew,8.0.6
; #@! TF.FileFunction,Plated,1,2,PTH
FMAT,2
METRIC
; #@! TA.AperFunction,Plated,PTH,ViaDrill
T1C0.300
; #@! TA.AperFunction,Plated,PTH,ComponentDrill
T2C1.000
; #@! TA.AperFunction,Plated,PTH,ComponentDrill
T3C3.200
%
G90
G05
T1
X61.905Y-146.86
X63.175Y-139.875
X65.08Y-151.94
X65.145Y-146.86
X65.715Y-137.335
X65.715Y-153.845
X65.715Y-158.29
X65.715Y-165.91
X66.985Y-130.35
X66.985Y-143.05
X66.985Y-155.75
X66.985Y-168.45
X345.635Y-122.73
X345.635Y-129.63
X350.195Y-127.81
X350.195Y-140.51
X350.195Y-153.21
X350.195Y-165.91
T2
X357.525Y-122.73
X357.525Y-125.27
X357.525Y-127.81
X357.525Y-130.35
X357.525Y-132.89
X357.525Y-135.43
X357.525Y-137.97
X357.525Y-140.51
X357.525Y-143.05
X357.525Y-145.59
X357.525Y-153.21
X357.525Y-155.75
X357.525Y-158.29
X357.525Y-160.83
X357.525Y-163.37
X357.525Y-165.91
X357.525Y-168.45
X357.525Y-170.99
X357.525Y-173.53
X357.525Y-176.07
T3
X59.635Y-124.63
X59.635Y-174.63
X352.635Y-123.63
X352.635Y-175.63
M30
