G04 #@! TF.GenerationSoftware,KiCad,Pcbnew,8.0.6*
G04 #@! TF.CreationDate,2025-05-06T17:21:28+09:00*
G04 #@! TF.ProjectId,PCB_Keys,5043425f-4b65-4797-932e-6b696361645f,rev?*
G04 #@! TF.SameCoordinates,Original*
G04 #@! TF.FileFunction,Copper,L2,Bot*
G04 #@! TF.FilePolarity,Positive*
%FSLAX46Y46*%
G04 Gerber Fmt 4.6, Leading zero omitted, Abs format (unit mm)*
G04 Created by KiCad (PCBNEW 8.0.6) date 2025-05-06 17:21:28*
%MOMM*%
%LPD*%
G01*
G04 APERTURE LIST*
G04 #@! TA.AperFunction,ComponentPad*
%ADD10R,1.700000X1.700000*%
G04 #@! TD*
G04 #@! TA.AperFunction,ComponentPad*
%ADD11O,1.700000X1.700000*%
G04 #@! TD*
G04 #@! TA.AperFunction,ComponentPad*
%ADD12C,5.600000*%
G04 #@! TD*
G04 #@! TA.AperFunction,ViaPad*
%ADD13C,0.600000*%
G04 #@! TD*
G04 #@! TA.AperFunction,Conductor*
%ADD14C,0.400000*%
G04 #@! TD*
G04 #@! TA.AperFunction,Conductor*
%ADD15C,0.290000*%
G04 #@! TD*
G04 APERTURE END LIST*
D10*
X357525000Y-122730000D03*
D11*
X357525000Y-125270000D03*
X357525000Y-127810000D03*
X357525000Y-130350000D03*
X357525000Y-132890000D03*
X357525000Y-135430000D03*
X357525000Y-137970000D03*
X357525000Y-140510000D03*
X357525000Y-143050000D03*
X357525000Y-145590000D03*
D12*
X352635000Y-123630000D03*
X59635000Y-174630000D03*
X59635000Y-124630000D03*
D10*
X357525000Y-153210000D03*
D11*
X357525000Y-155750000D03*
X357525000Y-158290000D03*
X357525000Y-160830000D03*
X357525000Y-163370000D03*
X357525000Y-165910000D03*
X357525000Y-168450000D03*
X357525000Y-170990000D03*
X357525000Y-173530000D03*
X357525000Y-176070000D03*
D12*
X352635000Y-175630000D03*
D13*
X350195000Y-165910000D03*
X350195000Y-153210000D03*
X350195000Y-140510000D03*
X65715000Y-153845000D03*
X63175000Y-139875000D03*
X65715000Y-158290000D03*
X65715000Y-165910000D03*
X65080000Y-151940000D03*
X350195000Y-127810000D03*
X65715000Y-137335000D03*
X66985000Y-143050000D03*
X66985000Y-130350000D03*
X61905000Y-146860000D03*
X66985000Y-168450000D03*
X65145000Y-146860000D03*
X66985000Y-155750000D03*
X345635000Y-129630000D03*
X345635000Y-122730000D03*
D14*
X350425000Y-145590000D02*
X350195000Y-145820000D01*
D15*
X65080000Y-151940000D02*
X65080000Y-153210000D01*
D14*
X350195000Y-133120000D02*
X350195000Y-140510000D01*
X65715000Y-137335000D02*
X63175000Y-139875000D01*
X350195000Y-140510000D02*
X350195000Y-145820000D01*
X357525000Y-132890000D02*
X350425000Y-132890000D01*
X350195000Y-158520000D02*
X350195000Y-165910000D01*
X357525000Y-145590000D02*
X350425000Y-145590000D01*
X357525000Y-170990000D02*
X351585000Y-170990000D01*
X65715000Y-158290000D02*
X65715000Y-153845000D01*
X350195000Y-145820000D02*
X350195000Y-153210000D01*
X350195000Y-169600000D02*
X351585000Y-170990000D01*
X350195000Y-165910000D02*
X350195000Y-169600000D01*
X350425000Y-158290000D02*
X350195000Y-158520000D01*
D15*
X65080000Y-153210000D02*
X65715000Y-153845000D01*
D14*
X350195000Y-127810000D02*
X350195000Y-133120000D01*
X357525000Y-158290000D02*
X350425000Y-158290000D01*
X65715000Y-165910000D02*
X65715000Y-158290000D01*
X350425000Y-132890000D02*
X350195000Y-133120000D01*
X350195000Y-153210000D02*
X350195000Y-158520000D01*
X362635000Y-135630000D02*
X361635000Y-135630000D01*
X66985000Y-155750000D02*
X66985000Y-168450000D01*
X355635000Y-120630000D02*
X362635000Y-120630000D01*
X361435000Y-135430000D02*
X357525000Y-135430000D01*
X66985000Y-143050000D02*
X66985000Y-155750000D01*
X362635000Y-120630000D02*
X362635000Y-135630000D01*
X352635000Y-123630000D02*
X355635000Y-120630000D01*
X361635000Y-135630000D02*
X361435000Y-135430000D01*
D15*
X65145000Y-146860000D02*
X61905000Y-146860000D01*
D14*
X66985000Y-130350000D02*
X66985000Y-143050000D01*
X345635000Y-129630000D02*
X345635000Y-122730000D01*
G04 #@! TA.AperFunction,Conductor*
G36*
X352109317Y-120150185D02*
G01*
X352155072Y-120202989D01*
X352165016Y-120272147D01*
X352135991Y-120335703D01*
X352077213Y-120373477D01*
X352068934Y-120375601D01*
X351750857Y-120445615D01*
X351411744Y-120559876D01*
X351411739Y-120559877D01*
X351086990Y-120710123D01*
X350780370Y-120894609D01*
X350780367Y-120894611D01*
X350495486Y-121111170D01*
X350495485Y-121111171D01*
X350482257Y-121123702D01*
X350482256Y-121123703D01*
X351694301Y-122335748D01*
X351592670Y-122409588D01*
X351414588Y-122587670D01*
X351340748Y-122689301D01*
X350131442Y-121479995D01*
X350131441Y-121479996D01*
X350004033Y-121629992D01*
X349803218Y-121926172D01*
X349635606Y-122242322D01*
X349635597Y-122242340D01*
X349503149Y-122574760D01*
X349503147Y-122574767D01*
X349407421Y-122919542D01*
X349407415Y-122919568D01*
X349349527Y-123272668D01*
X349349526Y-123272685D01*
X349330153Y-123629997D01*
X349330153Y-123630002D01*
X349349526Y-123987314D01*
X349349527Y-123987331D01*
X349407415Y-124340431D01*
X349407421Y-124340457D01*
X349503147Y-124685232D01*
X349503149Y-124685239D01*
X349635597Y-125017659D01*
X349635606Y-125017677D01*
X349803218Y-125333827D01*
X350004024Y-125629994D01*
X350004035Y-125630008D01*
X350131441Y-125780002D01*
X350131442Y-125780002D01*
X351340747Y-124570697D01*
X351414588Y-124672330D01*
X351592670Y-124850412D01*
X351694300Y-124924251D01*
X350482257Y-126136294D01*
X350495495Y-126148836D01*
X350780367Y-126365388D01*
X350780370Y-126365390D01*
X351086990Y-126549876D01*
X351411739Y-126700122D01*
X351411744Y-126700123D01*
X351750855Y-126814383D01*
X352100339Y-126891311D01*
X352456075Y-126929999D01*
X352456085Y-126930000D01*
X352813915Y-126930000D01*
X352813924Y-126929999D01*
X353169660Y-126891311D01*
X353519144Y-126814383D01*
X353858255Y-126700123D01*
X353858260Y-126700122D01*
X354183009Y-126549876D01*
X354489629Y-126365390D01*
X354489632Y-126365388D01*
X354774509Y-126148831D01*
X354787742Y-126136295D01*
X354787742Y-126136294D01*
X353575699Y-124924251D01*
X353677330Y-124850412D01*
X353855412Y-124672330D01*
X353929251Y-124570698D01*
X355138556Y-125780002D01*
X355265972Y-125629998D01*
X355265975Y-125629994D01*
X355466781Y-125333827D01*
X355634393Y-125017677D01*
X355634402Y-125017659D01*
X355766850Y-124685239D01*
X355766852Y-124685232D01*
X355862578Y-124340457D01*
X355862584Y-124340431D01*
X355920472Y-123987331D01*
X355920473Y-123987314D01*
X355935709Y-123706306D01*
X355958994Y-123640431D01*
X356014197Y-123597601D01*
X356083793Y-123591416D01*
X356145684Y-123623839D01*
X356177842Y-123680347D01*
X356178198Y-123680215D01*
X356179017Y-123682412D01*
X356180201Y-123684492D01*
X356180906Y-123687477D01*
X356231202Y-123822328D01*
X356231206Y-123822335D01*
X356317452Y-123937544D01*
X356317455Y-123937547D01*
X356432664Y-124023793D01*
X356432671Y-124023797D01*
X356564081Y-124072810D01*
X356620015Y-124114681D01*
X356644432Y-124180145D01*
X356629580Y-124248418D01*
X356608430Y-124276673D01*
X356486503Y-124398600D01*
X356350965Y-124592169D01*
X356350964Y-124592171D01*
X356251098Y-124806335D01*
X356251094Y-124806344D01*
X356189938Y-125034586D01*
X356189936Y-125034596D01*
X356169341Y-125269999D01*
X356169341Y-125270000D01*
X356189936Y-125505403D01*
X356189938Y-125505413D01*
X356251094Y-125733655D01*
X356251096Y-125733659D01*
X356251097Y-125733663D01*
X356305538Y-125850412D01*
X356350965Y-125947830D01*
X356350967Y-125947834D01*
X356486501Y-126141395D01*
X356486506Y-126141402D01*
X356653597Y-126308493D01*
X356653603Y-126308498D01*
X356839158Y-126438425D01*
X356882783Y-126493002D01*
X356889977Y-126562500D01*
X356858454Y-126624855D01*
X356839158Y-126641575D01*
X356653597Y-126771505D01*
X356486505Y-126938597D01*
X356350965Y-127132169D01*
X356350964Y-127132171D01*
X356251098Y-127346335D01*
X356251094Y-127346344D01*
X356189938Y-127574586D01*
X356189936Y-127574596D01*
X356169341Y-127809999D01*
X356169341Y-127810000D01*
X356189936Y-128045403D01*
X356189938Y-128045413D01*
X356251094Y-128273655D01*
X356251096Y-128273659D01*
X356251097Y-128273663D01*
X356350965Y-128487830D01*
X356350967Y-128487834D01*
X356486501Y-128681395D01*
X356486506Y-128681402D01*
X356653597Y-128848493D01*
X356653603Y-128848498D01*
X356839158Y-128978425D01*
X356882783Y-129033002D01*
X356889977Y-129102500D01*
X356858454Y-129164855D01*
X356839158Y-129181575D01*
X356653597Y-129311505D01*
X356486505Y-129478597D01*
X356350965Y-129672169D01*
X356350964Y-129672171D01*
X356251098Y-129886335D01*
X356251094Y-129886344D01*
X356189938Y-130114586D01*
X356189936Y-130114596D01*
X356169341Y-130349999D01*
X356169341Y-130350000D01*
X356189936Y-130585403D01*
X356189938Y-130585413D01*
X356251094Y-130813655D01*
X356251096Y-130813659D01*
X356251097Y-130813663D01*
X356350965Y-131027830D01*
X356350967Y-131027834D01*
X356486501Y-131221395D01*
X356486506Y-131221402D01*
X356653597Y-131388493D01*
X356653603Y-131388498D01*
X356839158Y-131518425D01*
X356882783Y-131573002D01*
X356889977Y-131642500D01*
X356858454Y-131704855D01*
X356839158Y-131721575D01*
X356653597Y-131851505D01*
X356486506Y-132018596D01*
X356403864Y-132136623D01*
X356349287Y-132180248D01*
X356302289Y-132189500D01*
X351019500Y-132189500D01*
X350952461Y-132169815D01*
X350906706Y-132117011D01*
X350895500Y-132065500D01*
X350895500Y-128235493D01*
X350914508Y-128169519D01*
X350920787Y-128159525D01*
X350920786Y-128159525D01*
X350920789Y-128159522D01*
X350980368Y-127989255D01*
X350980369Y-127989249D01*
X351000565Y-127810003D01*
X351000565Y-127809996D01*
X350980369Y-127630750D01*
X350980368Y-127630745D01*
X350920788Y-127460476D01*
X350824815Y-127307737D01*
X350697262Y-127180184D01*
X350544523Y-127084211D01*
X350374254Y-127024631D01*
X350374249Y-127024630D01*
X350195004Y-127004435D01*
X350194996Y-127004435D01*
X350015750Y-127024630D01*
X350015745Y-127024631D01*
X349845476Y-127084211D01*
X349692737Y-127180184D01*
X349565184Y-127307737D01*
X349469211Y-127460476D01*
X349409631Y-127630745D01*
X349409630Y-127630750D01*
X349389435Y-127809996D01*
X349389435Y-127810003D01*
X349409630Y-127989249D01*
X349409631Y-127989254D01*
X349469212Y-128159525D01*
X349475492Y-128169519D01*
X349494500Y-128235493D01*
X349494500Y-140084507D01*
X349475494Y-140150478D01*
X349469209Y-140160479D01*
X349409633Y-140330737D01*
X349409630Y-140330750D01*
X349389435Y-140509996D01*
X349389435Y-140510003D01*
X349409630Y-140689249D01*
X349409631Y-140689254D01*
X349469212Y-140859525D01*
X349475492Y-140869519D01*
X349494500Y-140935493D01*
X349494500Y-152784507D01*
X349475494Y-152850478D01*
X349469209Y-152860479D01*
X349409633Y-153030737D01*
X349409630Y-153030750D01*
X349389435Y-153209996D01*
X349389435Y-153210003D01*
X349409630Y-153389249D01*
X349409631Y-153389254D01*
X349469212Y-153559525D01*
X349475492Y-153569519D01*
X349494500Y-153635493D01*
X349494500Y-165484507D01*
X349475494Y-165550478D01*
X349469209Y-165560479D01*
X349409633Y-165730737D01*
X349409630Y-165730750D01*
X349389435Y-165909996D01*
X349389435Y-165910003D01*
X349409630Y-166089249D01*
X349409631Y-166089254D01*
X349469212Y-166259525D01*
X349475492Y-166269519D01*
X349494500Y-166335493D01*
X349494500Y-169531006D01*
X349494500Y-169668994D01*
X349494500Y-169668996D01*
X349494499Y-169668996D01*
X349521418Y-169804322D01*
X349521421Y-169804332D01*
X349574222Y-169931807D01*
X349650887Y-170046545D01*
X351138454Y-171534112D01*
X351253192Y-171610777D01*
X351380667Y-171663578D01*
X351380672Y-171663580D01*
X351380676Y-171663580D01*
X351380677Y-171663581D01*
X351516003Y-171690500D01*
X351516006Y-171690500D01*
X351516007Y-171690500D01*
X356302289Y-171690500D01*
X356369328Y-171710185D01*
X356403864Y-171743377D01*
X356486505Y-171861402D01*
X356653597Y-172028493D01*
X356653599Y-172028495D01*
X356789571Y-172123704D01*
X356839594Y-172158730D01*
X356883219Y-172213307D01*
X356890413Y-172282805D01*
X356858890Y-172345160D01*
X356839595Y-172361880D01*
X356653922Y-172491890D01*
X356653920Y-172491891D01*
X356486891Y-172658920D01*
X356486886Y-172658926D01*
X356351400Y-172852420D01*
X356351399Y-172852422D01*
X356251570Y-173066507D01*
X356251567Y-173066513D01*
X356194364Y-173279999D01*
X356194364Y-173280000D01*
X357091988Y-173280000D01*
X357059075Y-173337007D01*
X357025000Y-173464174D01*
X357025000Y-173595826D01*
X357059075Y-173722993D01*
X357091988Y-173780000D01*
X356194364Y-173780000D01*
X356251567Y-173993486D01*
X356251570Y-173993492D01*
X356351399Y-174207578D01*
X356486894Y-174401082D01*
X356653917Y-174568105D01*
X356840031Y-174698425D01*
X356883656Y-174753003D01*
X356890848Y-174822501D01*
X356859326Y-174884856D01*
X356840031Y-174901575D01*
X356653922Y-175031890D01*
X356653920Y-175031891D01*
X356486891Y-175198920D01*
X356486886Y-175198926D01*
X356351400Y-175392420D01*
X356351399Y-175392422D01*
X356251570Y-175606507D01*
X356251567Y-175606513D01*
X356194364Y-175819999D01*
X356194364Y-175820000D01*
X357091988Y-175820000D01*
X357059075Y-175877007D01*
X357025000Y-176004174D01*
X357025000Y-176135826D01*
X357059075Y-176262993D01*
X357091988Y-176320000D01*
X356194364Y-176320000D01*
X356251567Y-176533486D01*
X356251570Y-176533492D01*
X356351399Y-176747578D01*
X356486894Y-176941082D01*
X356653917Y-177108105D01*
X356847421Y-177243600D01*
X357061507Y-177343429D01*
X357061516Y-177343433D01*
X357275000Y-177400634D01*
X357275000Y-176503012D01*
X357332007Y-176535925D01*
X357459174Y-176570000D01*
X357590826Y-176570000D01*
X357717993Y-176535925D01*
X357775000Y-176503012D01*
X357775000Y-177400633D01*
X357988483Y-177343433D01*
X357988492Y-177343429D01*
X358202578Y-177243600D01*
X358396082Y-177108105D01*
X358563105Y-176941082D01*
X358698600Y-176747578D01*
X358798429Y-176533492D01*
X358798432Y-176533486D01*
X358855636Y-176320000D01*
X357958012Y-176320000D01*
X357990925Y-176262993D01*
X358025000Y-176135826D01*
X358025000Y-176004174D01*
X357990925Y-175877007D01*
X357958012Y-175820000D01*
X358855636Y-175820000D01*
X358855635Y-175819999D01*
X358798432Y-175606513D01*
X358798429Y-175606507D01*
X358698600Y-175392422D01*
X358698599Y-175392420D01*
X358563113Y-175198926D01*
X358563108Y-175198920D01*
X358396082Y-175031894D01*
X358209968Y-174901575D01*
X358166344Y-174846998D01*
X358159151Y-174777499D01*
X358190673Y-174715145D01*
X358209968Y-174698425D01*
X358396082Y-174568105D01*
X358563105Y-174401082D01*
X358698600Y-174207578D01*
X358798429Y-173993492D01*
X358798432Y-173993486D01*
X358855636Y-173780000D01*
X357958012Y-173780000D01*
X357990925Y-173722993D01*
X358025000Y-173595826D01*
X358025000Y-173464174D01*
X357990925Y-173337007D01*
X357958012Y-173280000D01*
X358855636Y-173280000D01*
X358855635Y-173279999D01*
X358798432Y-173066513D01*
X358798429Y-173066507D01*
X358698600Y-172852422D01*
X358698599Y-172852420D01*
X358563113Y-172658926D01*
X358563108Y-172658920D01*
X358396078Y-172491890D01*
X358210405Y-172361879D01*
X358166780Y-172307302D01*
X358159588Y-172237804D01*
X358191110Y-172175449D01*
X358210406Y-172158730D01*
X358396401Y-172028495D01*
X358563495Y-171861401D01*
X358699035Y-171667830D01*
X358798903Y-171453663D01*
X358860063Y-171225408D01*
X358880659Y-170990000D01*
X358860063Y-170754592D01*
X358798903Y-170526337D01*
X358699035Y-170312171D01*
X358676683Y-170280248D01*
X358563494Y-170118597D01*
X358396402Y-169951506D01*
X358396396Y-169951501D01*
X358210842Y-169821575D01*
X358167217Y-169766998D01*
X358160023Y-169697500D01*
X358191546Y-169635145D01*
X358210842Y-169618425D01*
X358335689Y-169531006D01*
X358396401Y-169488495D01*
X358563495Y-169321401D01*
X358699035Y-169127830D01*
X358798903Y-168913663D01*
X358860063Y-168685408D01*
X358880659Y-168450000D01*
X358860063Y-168214592D01*
X358798903Y-167986337D01*
X358699035Y-167772171D01*
X358563495Y-167578599D01*
X358563494Y-167578597D01*
X358396402Y-167411506D01*
X358396396Y-167411501D01*
X358210842Y-167281575D01*
X358167217Y-167226998D01*
X358160023Y-167157500D01*
X358191546Y-167095145D01*
X358210842Y-167078425D01*
X358233026Y-167062891D01*
X358396401Y-166948495D01*
X358563495Y-166781401D01*
X358699035Y-166587830D01*
X358798903Y-166373663D01*
X358860063Y-166145408D01*
X358880659Y-165910000D01*
X358860063Y-165674592D01*
X358813626Y-165501285D01*
X358798905Y-165446344D01*
X358798904Y-165446343D01*
X358798903Y-165446337D01*
X358699035Y-165232171D01*
X358563495Y-165038599D01*
X358563494Y-165038597D01*
X358396402Y-164871506D01*
X358396401Y-164871505D01*
X358210405Y-164741269D01*
X358166781Y-164686692D01*
X358159588Y-164617193D01*
X358191110Y-164554839D01*
X358210405Y-164538119D01*
X358396082Y-164408105D01*
X358563105Y-164241082D01*
X358698600Y-164047578D01*
X358798429Y-163833492D01*
X358798432Y-163833486D01*
X358855636Y-163620000D01*
X357958012Y-163620000D01*
X357990925Y-163562993D01*
X358025000Y-163435826D01*
X358025000Y-163304174D01*
X357990925Y-163177007D01*
X357958012Y-163120000D01*
X358855636Y-163120000D01*
X358855635Y-163119999D01*
X358798432Y-162906513D01*
X358798429Y-162906507D01*
X358698600Y-162692422D01*
X358698599Y-162692420D01*
X358563113Y-162498926D01*
X358563108Y-162498920D01*
X358396082Y-162331894D01*
X358209968Y-162201575D01*
X358166344Y-162146998D01*
X358159151Y-162077499D01*
X358190673Y-162015145D01*
X358209968Y-161998425D01*
X358396082Y-161868105D01*
X358563105Y-161701082D01*
X358698600Y-161507578D01*
X358798429Y-161293492D01*
X358798432Y-161293486D01*
X358855636Y-161080000D01*
X357958012Y-161080000D01*
X357990925Y-161022993D01*
X358025000Y-160895826D01*
X358025000Y-160764174D01*
X357990925Y-160637007D01*
X357958012Y-160580000D01*
X358855636Y-160580000D01*
X358855635Y-160579999D01*
X358798432Y-160366513D01*
X358798429Y-160366507D01*
X358698600Y-160152422D01*
X358698599Y-160152420D01*
X358563113Y-159958926D01*
X358563108Y-159958920D01*
X358396078Y-159791890D01*
X358210405Y-159661879D01*
X358166780Y-159607302D01*
X358159588Y-159537804D01*
X358191110Y-159475449D01*
X358210406Y-159458730D01*
X358396401Y-159328495D01*
X358563495Y-159161401D01*
X358699035Y-158967830D01*
X358798903Y-158753663D01*
X358860063Y-158525408D01*
X358880659Y-158290000D01*
X358860063Y-158054592D01*
X358813626Y-157881285D01*
X358798905Y-157826344D01*
X358798904Y-157826343D01*
X358798903Y-157826337D01*
X358699035Y-157612171D01*
X358676683Y-157580248D01*
X358563494Y-157418597D01*
X358396402Y-157251506D01*
X358396396Y-157251501D01*
X358210842Y-157121575D01*
X358167217Y-157066998D01*
X358160023Y-156997500D01*
X358191546Y-156935145D01*
X358210842Y-156918425D01*
X358233026Y-156902891D01*
X358396401Y-156788495D01*
X358563495Y-156621401D01*
X358699035Y-156427830D01*
X358798903Y-156213663D01*
X358860063Y-155985408D01*
X358880659Y-155750000D01*
X358860063Y-155514592D01*
X358798903Y-155286337D01*
X358699035Y-155072171D01*
X358563495Y-154878599D01*
X358441567Y-154756671D01*
X358408084Y-154695351D01*
X358413068Y-154625659D01*
X358454939Y-154569725D01*
X358485915Y-154552810D01*
X358617331Y-154503796D01*
X358732546Y-154417546D01*
X358818796Y-154302331D01*
X358869091Y-154167483D01*
X358875500Y-154107873D01*
X358875499Y-152312128D01*
X358869091Y-152252517D01*
X358819385Y-152119249D01*
X358818797Y-152117671D01*
X358818793Y-152117664D01*
X358732547Y-152002455D01*
X358732544Y-152002452D01*
X358617335Y-151916206D01*
X358617328Y-151916202D01*
X358482482Y-151865908D01*
X358482483Y-151865908D01*
X358422883Y-151859501D01*
X358422881Y-151859500D01*
X358422873Y-151859500D01*
X358422864Y-151859500D01*
X356627129Y-151859500D01*
X356627123Y-151859501D01*
X356567516Y-151865908D01*
X356432671Y-151916202D01*
X356432664Y-151916206D01*
X356317455Y-152002452D01*
X356317452Y-152002455D01*
X356231206Y-152117664D01*
X356231202Y-152117671D01*
X356180908Y-152252517D01*
X356176930Y-152289522D01*
X356174501Y-152312123D01*
X356174500Y-152312135D01*
X356174500Y-154107870D01*
X356174501Y-154107876D01*
X356180908Y-154167483D01*
X356231202Y-154302328D01*
X356231206Y-154302335D01*
X356317452Y-154417544D01*
X356317455Y-154417547D01*
X356432664Y-154503793D01*
X356432671Y-154503797D01*
X356564081Y-154552810D01*
X356620015Y-154594681D01*
X356644432Y-154660145D01*
X356629580Y-154728418D01*
X356608430Y-154756673D01*
X356486503Y-154878600D01*
X356350965Y-155072169D01*
X356350964Y-155072171D01*
X356251098Y-155286335D01*
X356251094Y-155286344D01*
X356189938Y-155514586D01*
X356189936Y-155514596D01*
X356169341Y-155749999D01*
X356169341Y-155750000D01*
X356189936Y-155985403D01*
X356189938Y-155985413D01*
X356251094Y-156213655D01*
X356251096Y-156213659D01*
X356251097Y-156213663D01*
X356350965Y-156427830D01*
X356350967Y-156427834D01*
X356486501Y-156621395D01*
X356486506Y-156621402D01*
X356653597Y-156788493D01*
X356653603Y-156788498D01*
X356839158Y-156918425D01*
X356882783Y-156973002D01*
X356889977Y-157042500D01*
X356858454Y-157104855D01*
X356839158Y-157121575D01*
X356653597Y-157251505D01*
X356486506Y-157418596D01*
X356403864Y-157536623D01*
X356349287Y-157580248D01*
X356302289Y-157589500D01*
X351019500Y-157589500D01*
X350952461Y-157569815D01*
X350906706Y-157517011D01*
X350895500Y-157465500D01*
X350895500Y-153635493D01*
X350914508Y-153569519D01*
X350920787Y-153559525D01*
X350920786Y-153559525D01*
X350920789Y-153559522D01*
X350980368Y-153389255D01*
X350985609Y-153342738D01*
X351000565Y-153210003D01*
X351000565Y-153209996D01*
X350980369Y-153030750D01*
X350980366Y-153030737D01*
X350920790Y-152860479D01*
X350914506Y-152850478D01*
X350895500Y-152784507D01*
X350895500Y-146414500D01*
X350915185Y-146347461D01*
X350967989Y-146301706D01*
X351019500Y-146290500D01*
X356302289Y-146290500D01*
X356369328Y-146310185D01*
X356403863Y-146343376D01*
X356420624Y-146367313D01*
X356486505Y-146461402D01*
X356653597Y-146628493D01*
X356653599Y-146628495D01*
X356750384Y-146696265D01*
X356847165Y-146764032D01*
X356847167Y-146764033D01*
X356847170Y-146764035D01*
X357061337Y-146863903D01*
X357289592Y-146925063D01*
X357477918Y-146941539D01*
X357524999Y-146945659D01*
X357525000Y-146945659D01*
X357525001Y-146945659D01*
X357564234Y-146942226D01*
X357760408Y-146925063D01*
X357988663Y-146863903D01*
X358202830Y-146764035D01*
X358396401Y-146628495D01*
X358563495Y-146461401D01*
X358699035Y-146267830D01*
X358798903Y-146053663D01*
X358860063Y-145825408D01*
X358880659Y-145590000D01*
X358860063Y-145354592D01*
X358798903Y-145126337D01*
X358699035Y-144912171D01*
X358676683Y-144880248D01*
X358563494Y-144718597D01*
X358396402Y-144551506D01*
X358396396Y-144551501D01*
X358210842Y-144421575D01*
X358167217Y-144366998D01*
X358160023Y-144297500D01*
X358191546Y-144235145D01*
X358210842Y-144218425D01*
X358233026Y-144202891D01*
X358396401Y-144088495D01*
X358563495Y-143921401D01*
X358699035Y-143727830D01*
X358798903Y-143513663D01*
X358860063Y-143285408D01*
X358880659Y-143050000D01*
X358860063Y-142814592D01*
X358798903Y-142586337D01*
X358699035Y-142372171D01*
X358563495Y-142178599D01*
X358563494Y-142178597D01*
X358396402Y-142011506D01*
X358396396Y-142011501D01*
X358210842Y-141881575D01*
X358167217Y-141826998D01*
X358160023Y-141757500D01*
X358191546Y-141695145D01*
X358210842Y-141678425D01*
X358233026Y-141662891D01*
X358396401Y-141548495D01*
X358563495Y-141381401D01*
X358699035Y-141187830D01*
X358798903Y-140973663D01*
X358860063Y-140745408D01*
X358880659Y-140510000D01*
X358880205Y-140504816D01*
X358860063Y-140274596D01*
X358860063Y-140274592D01*
X358811755Y-140094301D01*
X358798905Y-140046344D01*
X358798904Y-140046343D01*
X358798903Y-140046337D01*
X358699035Y-139832171D01*
X358603513Y-139695750D01*
X358563494Y-139638597D01*
X358396402Y-139471506D01*
X358396401Y-139471505D01*
X358210405Y-139341269D01*
X358166781Y-139286692D01*
X358159588Y-139217193D01*
X358191110Y-139154839D01*
X358210405Y-139138119D01*
X358396082Y-139008105D01*
X358563105Y-138841082D01*
X358698600Y-138647578D01*
X358798429Y-138433492D01*
X358798432Y-138433486D01*
X358855636Y-138220000D01*
X357958012Y-138220000D01*
X357990925Y-138162993D01*
X358025000Y-138035826D01*
X358025000Y-137904174D01*
X357990925Y-137777007D01*
X357958012Y-137720000D01*
X358855636Y-137720000D01*
X358855635Y-137719999D01*
X358798432Y-137506513D01*
X358798429Y-137506507D01*
X358698600Y-137292422D01*
X358698599Y-137292420D01*
X358563113Y-137098926D01*
X358563108Y-137098920D01*
X358396082Y-136931894D01*
X358209968Y-136801575D01*
X358166344Y-136746998D01*
X358159151Y-136677499D01*
X358190673Y-136615145D01*
X358209968Y-136598425D01*
X358396082Y-136468105D01*
X358563105Y-136301082D01*
X358698600Y-136107578D01*
X358798429Y-135893492D01*
X358798432Y-135893486D01*
X358855636Y-135680000D01*
X357958012Y-135680000D01*
X357990925Y-135622993D01*
X358025000Y-135495826D01*
X358025000Y-135364174D01*
X357990925Y-135237007D01*
X357958012Y-135180000D01*
X358855636Y-135180000D01*
X358855635Y-135179999D01*
X358798432Y-134966513D01*
X358798429Y-134966507D01*
X358698600Y-134752422D01*
X358698599Y-134752420D01*
X358563113Y-134558926D01*
X358563108Y-134558920D01*
X358396078Y-134391890D01*
X358210405Y-134261879D01*
X358166780Y-134207302D01*
X358159588Y-134137804D01*
X358191110Y-134075449D01*
X358210406Y-134058730D01*
X358396401Y-133928495D01*
X358563495Y-133761401D01*
X358699035Y-133567830D01*
X358798903Y-133353663D01*
X358860063Y-133125408D01*
X358880659Y-132890000D01*
X358860063Y-132654592D01*
X358798903Y-132426337D01*
X358699035Y-132212171D01*
X358676683Y-132180248D01*
X358563494Y-132018597D01*
X358396402Y-131851506D01*
X358396396Y-131851501D01*
X358210842Y-131721575D01*
X358167217Y-131666998D01*
X358160023Y-131597500D01*
X358191546Y-131535145D01*
X358210842Y-131518425D01*
X358233026Y-131502891D01*
X358396401Y-131388495D01*
X358563495Y-131221401D01*
X358699035Y-131027830D01*
X358798903Y-130813663D01*
X358860063Y-130585408D01*
X358880659Y-130350000D01*
X358860063Y-130114592D01*
X358798903Y-129886337D01*
X358699035Y-129672171D01*
X358563495Y-129478599D01*
X358563494Y-129478597D01*
X358396402Y-129311506D01*
X358396396Y-129311501D01*
X358210842Y-129181575D01*
X358167217Y-129126998D01*
X358160023Y-129057500D01*
X358191546Y-128995145D01*
X358210842Y-128978425D01*
X358233026Y-128962891D01*
X358396401Y-128848495D01*
X358563495Y-128681401D01*
X358699035Y-128487830D01*
X358798903Y-128273663D01*
X358860063Y-128045408D01*
X358880659Y-127810000D01*
X358860063Y-127574592D01*
X358798903Y-127346337D01*
X358699035Y-127132171D01*
X358665454Y-127084211D01*
X358563494Y-126938597D01*
X358396402Y-126771506D01*
X358396396Y-126771501D01*
X358210842Y-126641575D01*
X358167217Y-126586998D01*
X358160023Y-126517500D01*
X358191546Y-126455145D01*
X358210842Y-126438425D01*
X358233026Y-126422891D01*
X358396401Y-126308495D01*
X358563495Y-126141401D01*
X358699035Y-125947830D01*
X358798903Y-125733663D01*
X358860063Y-125505408D01*
X358880659Y-125270000D01*
X358860063Y-125034592D01*
X358798903Y-124806337D01*
X358699035Y-124592171D01*
X358679385Y-124564108D01*
X358563496Y-124398600D01*
X358505327Y-124340431D01*
X358441567Y-124276671D01*
X358408084Y-124215351D01*
X358413068Y-124145659D01*
X358454939Y-124089725D01*
X358485915Y-124072810D01*
X358617331Y-124023796D01*
X358732546Y-123937546D01*
X358818796Y-123822331D01*
X358869091Y-123687483D01*
X358875500Y-123627873D01*
X358875499Y-121832128D01*
X358869091Y-121772517D01*
X358818796Y-121637669D01*
X358818795Y-121637668D01*
X358818793Y-121637664D01*
X358732547Y-121522455D01*
X358732544Y-121522452D01*
X358617335Y-121436206D01*
X358617328Y-121436202D01*
X358482482Y-121385908D01*
X358482483Y-121385908D01*
X358422883Y-121379501D01*
X358422881Y-121379500D01*
X358422873Y-121379500D01*
X358422864Y-121379500D01*
X356627129Y-121379500D01*
X356627123Y-121379501D01*
X356567516Y-121385908D01*
X356432671Y-121436202D01*
X356432664Y-121436206D01*
X356317455Y-121522452D01*
X356317452Y-121522455D01*
X356231206Y-121637664D01*
X356231202Y-121637671D01*
X356180908Y-121772517D01*
X356174501Y-121832116D01*
X356174501Y-121832123D01*
X356174500Y-121832135D01*
X356174500Y-123380487D01*
X356154815Y-123447526D01*
X356102011Y-123493281D01*
X356032853Y-123503225D01*
X355969297Y-123474200D01*
X355931523Y-123415422D01*
X355926682Y-123387199D01*
X355920474Y-123272686D01*
X355920472Y-123272668D01*
X355862584Y-122919568D01*
X355862578Y-122919542D01*
X355766852Y-122574767D01*
X355766850Y-122574760D01*
X355634402Y-122242340D01*
X355634393Y-122242322D01*
X355466781Y-121926172D01*
X355265975Y-121630005D01*
X355265964Y-121629991D01*
X355138556Y-121479996D01*
X353929251Y-122689301D01*
X353855412Y-122587670D01*
X353677330Y-122409588D01*
X353575698Y-122335748D01*
X354787742Y-121123704D01*
X354774504Y-121111163D01*
X354489632Y-120894611D01*
X354489629Y-120894609D01*
X354183009Y-120710123D01*
X353858260Y-120559877D01*
X353858255Y-120559876D01*
X353519142Y-120445615D01*
X353201066Y-120375601D01*
X353139825Y-120341965D01*
X353106491Y-120280560D01*
X353111647Y-120210880D01*
X353153656Y-120155050D01*
X353219181Y-120130795D01*
X353227722Y-120130500D01*
X364010500Y-120130500D01*
X364077539Y-120150185D01*
X364123294Y-120202989D01*
X364134500Y-120254500D01*
X364134500Y-179005500D01*
X364114815Y-179072539D01*
X364062011Y-179118294D01*
X364010500Y-179129500D01*
X353227722Y-179129500D01*
X353160683Y-179109815D01*
X353114928Y-179057011D01*
X353104984Y-178987853D01*
X353134009Y-178924297D01*
X353192787Y-178886523D01*
X353201066Y-178884399D01*
X353519142Y-178814384D01*
X353858255Y-178700123D01*
X353858260Y-178700122D01*
X354183009Y-178549876D01*
X354489629Y-178365390D01*
X354489632Y-178365388D01*
X354774509Y-178148831D01*
X354787742Y-178136295D01*
X354787742Y-178136294D01*
X353575699Y-176924251D01*
X353677330Y-176850412D01*
X353855412Y-176672330D01*
X353929251Y-176570698D01*
X355138556Y-177780002D01*
X355265972Y-177629998D01*
X355265975Y-177629994D01*
X355466781Y-177333827D01*
X355634393Y-177017677D01*
X355634402Y-177017659D01*
X355766850Y-176685239D01*
X355766852Y-176685232D01*
X355862578Y-176340457D01*
X355862584Y-176340431D01*
X355920472Y-175987331D01*
X355920473Y-175987314D01*
X355939847Y-175630002D01*
X355939847Y-175629997D01*
X355920473Y-175272685D01*
X355920472Y-175272668D01*
X355862584Y-174919568D01*
X355862578Y-174919542D01*
X355766852Y-174574767D01*
X355766850Y-174574760D01*
X355634402Y-174242340D01*
X355634393Y-174242322D01*
X355466781Y-173926172D01*
X355265975Y-173630005D01*
X355265964Y-173629991D01*
X355138556Y-173479996D01*
X353929251Y-174689301D01*
X353855412Y-174587670D01*
X353677330Y-174409588D01*
X353575698Y-174335748D01*
X354787742Y-173123704D01*
X354774504Y-173111163D01*
X354489632Y-172894611D01*
X354489629Y-172894609D01*
X354183009Y-172710123D01*
X353858260Y-172559877D01*
X353858255Y-172559876D01*
X353519144Y-172445616D01*
X353169660Y-172368688D01*
X352813924Y-172330000D01*
X352456075Y-172330000D01*
X352100339Y-172368688D01*
X351750855Y-172445616D01*
X351411744Y-172559876D01*
X351411739Y-172559877D01*
X351086990Y-172710123D01*
X350780370Y-172894609D01*
X350780367Y-172894611D01*
X350495486Y-173111170D01*
X350495485Y-173111171D01*
X350482257Y-173123702D01*
X350482256Y-173123703D01*
X351694301Y-174335748D01*
X351592670Y-174409588D01*
X351414588Y-174587670D01*
X351340748Y-174689301D01*
X350131442Y-173479995D01*
X350131441Y-173479996D01*
X350004033Y-173629992D01*
X349803218Y-173926172D01*
X349635606Y-174242322D01*
X349635597Y-174242340D01*
X349503149Y-174574760D01*
X349503147Y-174574767D01*
X349407421Y-174919542D01*
X349407415Y-174919568D01*
X349349527Y-175272668D01*
X349349526Y-175272685D01*
X349330153Y-175629997D01*
X349330153Y-175630002D01*
X349349526Y-175987314D01*
X349349527Y-175987331D01*
X349407415Y-176340431D01*
X349407421Y-176340457D01*
X349503147Y-176685232D01*
X349503149Y-176685239D01*
X349635597Y-177017659D01*
X349635606Y-177017677D01*
X349803218Y-177333827D01*
X350004024Y-177629994D01*
X350004035Y-177630008D01*
X350131441Y-177780002D01*
X350131442Y-177780002D01*
X351340747Y-176570697D01*
X351414588Y-176672330D01*
X351592670Y-176850412D01*
X351694300Y-176924251D01*
X350482257Y-178136294D01*
X350495495Y-178148836D01*
X350780367Y-178365388D01*
X350780370Y-178365390D01*
X351086990Y-178549876D01*
X351411739Y-178700122D01*
X351411744Y-178700123D01*
X351750857Y-178814384D01*
X352068934Y-178884399D01*
X352130175Y-178918035D01*
X352163509Y-178979440D01*
X352158353Y-179049120D01*
X352116344Y-179104950D01*
X352050819Y-179129205D01*
X352042278Y-179129500D01*
X59893676Y-179129500D01*
X59826637Y-179109815D01*
X59805995Y-179093181D01*
X58764052Y-178051238D01*
X58730567Y-177989915D01*
X58735551Y-177920223D01*
X58777423Y-177864290D01*
X58842887Y-177839873D01*
X58878390Y-177842456D01*
X59100339Y-177891311D01*
X59456075Y-177929999D01*
X59456085Y-177930000D01*
X59813915Y-177930000D01*
X59813924Y-177929999D01*
X60169660Y-177891311D01*
X60519144Y-177814383D01*
X60858255Y-177700123D01*
X60858260Y-177700122D01*
X61183009Y-177549876D01*
X61489629Y-177365390D01*
X61489632Y-177365388D01*
X61774509Y-177148831D01*
X61787742Y-177136295D01*
X60575698Y-175924251D01*
X60677330Y-175850412D01*
X60855412Y-175672330D01*
X60929251Y-175570698D01*
X62138556Y-176780002D01*
X62265972Y-176629998D01*
X62265975Y-176629994D01*
X62466781Y-176333827D01*
X62634393Y-176017677D01*
X62634402Y-176017659D01*
X62766850Y-175685239D01*
X62766852Y-175685232D01*
X62862578Y-175340457D01*
X62862584Y-175340431D01*
X62920472Y-174987331D01*
X62920473Y-174987314D01*
X62939847Y-174630002D01*
X62939847Y-174629997D01*
X62920473Y-174272685D01*
X62920472Y-174272668D01*
X62862584Y-173919568D01*
X62862578Y-173919542D01*
X62766852Y-173574767D01*
X62766850Y-173574760D01*
X62634402Y-173242340D01*
X62634393Y-173242322D01*
X62466781Y-172926172D01*
X62265975Y-172630005D01*
X62265964Y-172629991D01*
X62138556Y-172479996D01*
X60929251Y-173689301D01*
X60855412Y-173587670D01*
X60677330Y-173409588D01*
X60575698Y-173335748D01*
X61787742Y-172123704D01*
X61774504Y-172111163D01*
X61489632Y-171894611D01*
X61489629Y-171894609D01*
X61183009Y-171710123D01*
X60858260Y-171559877D01*
X60858255Y-171559876D01*
X60519144Y-171445616D01*
X60169660Y-171368688D01*
X59813924Y-171330000D01*
X59456075Y-171330000D01*
X59100339Y-171368688D01*
X58750855Y-171445616D01*
X58411744Y-171559876D01*
X58411739Y-171559877D01*
X58086990Y-171710123D01*
X57780370Y-171894609D01*
X57780367Y-171894611D01*
X57495486Y-172111170D01*
X57495485Y-172111171D01*
X57482257Y-172123702D01*
X57482256Y-172123703D01*
X58694301Y-173335748D01*
X58592670Y-173409588D01*
X58414588Y-173587670D01*
X58340748Y-173689301D01*
X57131442Y-172479995D01*
X57131441Y-172479996D01*
X57004033Y-172629992D01*
X56803218Y-172926172D01*
X56635606Y-173242322D01*
X56635597Y-173242340D01*
X56503149Y-173574760D01*
X56503147Y-173574767D01*
X56407421Y-173919542D01*
X56407415Y-173919568D01*
X56349527Y-174272668D01*
X56349526Y-174272685D01*
X56330153Y-174629997D01*
X56330153Y-174630002D01*
X56349526Y-174987314D01*
X56349527Y-174987331D01*
X56407415Y-175340431D01*
X56407418Y-175340445D01*
X56417467Y-175376638D01*
X56416434Y-175446500D01*
X56377795Y-175504713D01*
X56313817Y-175532795D01*
X56244813Y-175521831D01*
X56210305Y-175497491D01*
X55171819Y-174459005D01*
X55138334Y-174397682D01*
X55135500Y-174371324D01*
X55135500Y-151939996D01*
X64274435Y-151939996D01*
X64274435Y-151940003D01*
X64294630Y-152119249D01*
X64294631Y-152119254D01*
X64354211Y-152289522D01*
X64415494Y-152387053D01*
X64434500Y-152453025D01*
X64434500Y-153273580D01*
X64459304Y-153398277D01*
X64459306Y-153398285D01*
X64483635Y-153457020D01*
X64483635Y-153457021D01*
X64507963Y-153515755D01*
X64507965Y-153515759D01*
X64578608Y-153621482D01*
X64578610Y-153621484D01*
X64578613Y-153621488D01*
X64892379Y-153935253D01*
X64925864Y-153996576D01*
X64927918Y-154009049D01*
X64929630Y-154024250D01*
X64929631Y-154024254D01*
X64989212Y-154194525D01*
X64995492Y-154204519D01*
X65014500Y-154270493D01*
X65014500Y-157864507D01*
X64995494Y-157930478D01*
X64989209Y-157940479D01*
X64929633Y-158110737D01*
X64929630Y-158110750D01*
X64909435Y-158289996D01*
X64909435Y-158290003D01*
X64929630Y-158469249D01*
X64929631Y-158469254D01*
X64989212Y-158639525D01*
X64995492Y-158649519D01*
X65014500Y-158715493D01*
X65014500Y-165484507D01*
X64995494Y-165550478D01*
X64989209Y-165560479D01*
X64929633Y-165730737D01*
X64929630Y-165730750D01*
X64909435Y-165909996D01*
X64909435Y-165910003D01*
X64929630Y-166089249D01*
X64929631Y-166089254D01*
X64989211Y-166259523D01*
X65060931Y-166373664D01*
X65085184Y-166412262D01*
X65212738Y-166539816D01*
X65365478Y-166635789D01*
X65535745Y-166695368D01*
X65535750Y-166695369D01*
X65714996Y-166715565D01*
X65715000Y-166715565D01*
X65715004Y-166715565D01*
X65894249Y-166695369D01*
X65894252Y-166695368D01*
X65894255Y-166695368D01*
X66064522Y-166635789D01*
X66217262Y-166539816D01*
X66344816Y-166412262D01*
X66440789Y-166259522D01*
X66500368Y-166089255D01*
X66520565Y-165910000D01*
X66500368Y-165730745D01*
X66500367Y-165730743D01*
X66500366Y-165730737D01*
X66440790Y-165560479D01*
X66434506Y-165550478D01*
X66415500Y-165484507D01*
X66415500Y-158715493D01*
X66434508Y-158649519D01*
X66440787Y-158639525D01*
X66440786Y-158639525D01*
X66440789Y-158639522D01*
X66500368Y-158469255D01*
X66520565Y-158290000D01*
X66500368Y-158110745D01*
X66500367Y-158110743D01*
X66500366Y-158110737D01*
X66440790Y-157940479D01*
X66434506Y-157930478D01*
X66415500Y-157864507D01*
X66415500Y-154270493D01*
X66434508Y-154204519D01*
X66440787Y-154194525D01*
X66440786Y-154194525D01*
X66440789Y-154194522D01*
X66500368Y-154024255D01*
X66500369Y-154024249D01*
X66520565Y-153845003D01*
X66520565Y-153844996D01*
X66500369Y-153665750D01*
X66500368Y-153665745D01*
X66463199Y-153559522D01*
X66440789Y-153495478D01*
X66416625Y-153457022D01*
X66401582Y-153433080D01*
X66344816Y-153342738D01*
X66217262Y-153215184D01*
X66064523Y-153119211D01*
X65894254Y-153059631D01*
X65894250Y-153059630D01*
X65879050Y-153057918D01*
X65814636Y-153030850D01*
X65805253Y-153022378D01*
X65761818Y-152978942D01*
X65728333Y-152917619D01*
X65725500Y-152891262D01*
X65725500Y-152453025D01*
X65744506Y-152387053D01*
X65805789Y-152289522D01*
X65865368Y-152119255D01*
X65865369Y-152119249D01*
X65885565Y-151940003D01*
X65885565Y-151939996D01*
X65865369Y-151760750D01*
X65865368Y-151760745D01*
X65805788Y-151590476D01*
X65709815Y-151437737D01*
X65582262Y-151310184D01*
X65429523Y-151214211D01*
X65259254Y-151154631D01*
X65259249Y-151154630D01*
X65080004Y-151134435D01*
X65079996Y-151134435D01*
X64900750Y-151154630D01*
X64900745Y-151154631D01*
X64730476Y-151214211D01*
X64577737Y-151310184D01*
X64450184Y-151437737D01*
X64354211Y-151590476D01*
X64294631Y-151760745D01*
X64294630Y-151760750D01*
X64274435Y-151939996D01*
X55135500Y-151939996D01*
X55135500Y-139874996D01*
X62369435Y-139874996D01*
X62369435Y-139875003D01*
X62389630Y-140054249D01*
X62389631Y-140054254D01*
X62449211Y-140224523D01*
X62545184Y-140377262D01*
X62672738Y-140504816D01*
X62825478Y-140600789D01*
X62995745Y-140660368D01*
X62995750Y-140660369D01*
X63174996Y-140680565D01*
X63175000Y-140680565D01*
X63175004Y-140680565D01*
X63354249Y-140660369D01*
X63354252Y-140660368D01*
X63354255Y-140660368D01*
X63524522Y-140600789D01*
X63677262Y-140504816D01*
X63804816Y-140377262D01*
X63900789Y-140224522D01*
X63937007Y-140121012D01*
X63966365Y-140074289D01*
X65914288Y-138126366D01*
X65961012Y-138097008D01*
X66064522Y-138060789D01*
X66217262Y-137964816D01*
X66344816Y-137837262D01*
X66440789Y-137684522D01*
X66500368Y-137514255D01*
X66500369Y-137514249D01*
X66520565Y-137335003D01*
X66520565Y-137334996D01*
X66500369Y-137155750D01*
X66500368Y-137155745D01*
X66440788Y-136985476D01*
X66344815Y-136832737D01*
X66217262Y-136705184D01*
X66064523Y-136609211D01*
X65894254Y-136549631D01*
X65894249Y-136549630D01*
X65715004Y-136529435D01*
X65714996Y-136529435D01*
X65535750Y-136549630D01*
X65535745Y-136549631D01*
X65365476Y-136609211D01*
X65212737Y-136705184D01*
X65085184Y-136832737D01*
X64989212Y-136985475D01*
X64989211Y-136985476D01*
X64952991Y-137088986D01*
X64923631Y-137135711D01*
X62975712Y-139083630D01*
X62928987Y-139112990D01*
X62825479Y-139149209D01*
X62672737Y-139245184D01*
X62545184Y-139372737D01*
X62449211Y-139525476D01*
X62389631Y-139695745D01*
X62389630Y-139695750D01*
X62369435Y-139874996D01*
X55135500Y-139874996D01*
X55135500Y-124888675D01*
X55155185Y-124821636D01*
X55171814Y-124800999D01*
X56210309Y-123762504D01*
X56271628Y-123729022D01*
X56341320Y-123734006D01*
X56397253Y-123775878D01*
X56421670Y-123841342D01*
X56417467Y-123883359D01*
X56407419Y-123919549D01*
X56407415Y-123919568D01*
X56349527Y-124272668D01*
X56349526Y-124272685D01*
X56330153Y-124629997D01*
X56330153Y-124630002D01*
X56349526Y-124987314D01*
X56349527Y-124987331D01*
X56407415Y-125340431D01*
X56407421Y-125340457D01*
X56503147Y-125685232D01*
X56503149Y-125685239D01*
X56635597Y-126017659D01*
X56635606Y-126017677D01*
X56803218Y-126333827D01*
X57004024Y-126629994D01*
X57004035Y-126630008D01*
X57131441Y-126780002D01*
X57131442Y-126780002D01*
X58340747Y-125570697D01*
X58414588Y-125672330D01*
X58592670Y-125850412D01*
X58694300Y-125924251D01*
X57482257Y-127136294D01*
X57495495Y-127148836D01*
X57780367Y-127365388D01*
X57780370Y-127365390D01*
X58086990Y-127549876D01*
X58411739Y-127700122D01*
X58411744Y-127700123D01*
X58750855Y-127814383D01*
X59100339Y-127891311D01*
X59456075Y-127929999D01*
X59456085Y-127930000D01*
X59813915Y-127930000D01*
X59813924Y-127929999D01*
X60169660Y-127891311D01*
X60519144Y-127814383D01*
X60858255Y-127700123D01*
X60858260Y-127700122D01*
X61183009Y-127549876D01*
X61489629Y-127365390D01*
X61489632Y-127365388D01*
X61774509Y-127148831D01*
X61787742Y-127136295D01*
X61787742Y-127136294D01*
X60575699Y-125924251D01*
X60677330Y-125850412D01*
X60855412Y-125672330D01*
X60929251Y-125570698D01*
X62138556Y-126780002D01*
X62265972Y-126629998D01*
X62265975Y-126629994D01*
X62466781Y-126333827D01*
X62634393Y-126017677D01*
X62634402Y-126017659D01*
X62766850Y-125685239D01*
X62766852Y-125685232D01*
X62862578Y-125340457D01*
X62862584Y-125340431D01*
X62920472Y-124987331D01*
X62920473Y-124987314D01*
X62939847Y-124630002D01*
X62939847Y-124629997D01*
X62920473Y-124272685D01*
X62920472Y-124272668D01*
X62862584Y-123919568D01*
X62862578Y-123919542D01*
X62766852Y-123574767D01*
X62766850Y-123574760D01*
X62634402Y-123242340D01*
X62634393Y-123242322D01*
X62466781Y-122926172D01*
X62333771Y-122729996D01*
X344829435Y-122729996D01*
X344829435Y-122730003D01*
X344849630Y-122909249D01*
X344849631Y-122909254D01*
X344909212Y-123079525D01*
X344915492Y-123089519D01*
X344934500Y-123155493D01*
X344934500Y-129204507D01*
X344915494Y-129270478D01*
X344909209Y-129280479D01*
X344849633Y-129450737D01*
X344849630Y-129450750D01*
X344829435Y-129629996D01*
X344829435Y-129630003D01*
X344849630Y-129809249D01*
X344849631Y-129809254D01*
X344909211Y-129979523D01*
X344994077Y-130114586D01*
X345005184Y-130132262D01*
X345132738Y-130259816D01*
X345285478Y-130355789D01*
X345455745Y-130415368D01*
X345455750Y-130415369D01*
X345634996Y-130435565D01*
X345635000Y-130435565D01*
X345635004Y-130435565D01*
X345814249Y-130415369D01*
X345814252Y-130415368D01*
X345814255Y-130415368D01*
X345984522Y-130355789D01*
X346137262Y-130259816D01*
X346264816Y-130132262D01*
X346360789Y-129979522D01*
X346420368Y-129809255D01*
X346440565Y-129630000D01*
X346423506Y-129478599D01*
X346420369Y-129450750D01*
X346420366Y-129450737D01*
X346360790Y-129280479D01*
X346354506Y-129270478D01*
X346335500Y-129204507D01*
X346335500Y-123155493D01*
X346354508Y-123089519D01*
X346360787Y-123079525D01*
X346360786Y-123079525D01*
X346360789Y-123079522D01*
X346420368Y-122909255D01*
X346440565Y-122730000D01*
X346429298Y-122630005D01*
X346420369Y-122550750D01*
X346420368Y-122550745D01*
X346360788Y-122380476D01*
X346273991Y-122242340D01*
X346264816Y-122227738D01*
X346137262Y-122100184D01*
X346088265Y-122069397D01*
X345984523Y-122004211D01*
X345814254Y-121944631D01*
X345814249Y-121944630D01*
X345635004Y-121924435D01*
X345634996Y-121924435D01*
X345455750Y-121944630D01*
X345455745Y-121944631D01*
X345285476Y-122004211D01*
X345132737Y-122100184D01*
X345005184Y-122227737D01*
X344909211Y-122380476D01*
X344849631Y-122550745D01*
X344849630Y-122550750D01*
X344829435Y-122729996D01*
X62333771Y-122729996D01*
X62265975Y-122630005D01*
X62265964Y-122629991D01*
X62138556Y-122479996D01*
X60929251Y-123689301D01*
X60855412Y-123587670D01*
X60677330Y-123409588D01*
X60575698Y-123335748D01*
X61787742Y-122123704D01*
X61774504Y-122111163D01*
X61489632Y-121894611D01*
X61489629Y-121894609D01*
X61183009Y-121710123D01*
X60858260Y-121559877D01*
X60858255Y-121559876D01*
X60519144Y-121445616D01*
X60169660Y-121368688D01*
X59813924Y-121330000D01*
X59456075Y-121330000D01*
X59100336Y-121368688D01*
X58878388Y-121417543D01*
X58808685Y-121412730D01*
X58752648Y-121370997D01*
X58728070Y-121305592D01*
X58742754Y-121237283D01*
X58764045Y-121208768D01*
X59805995Y-120166819D01*
X59867318Y-120133334D01*
X59893676Y-120130500D01*
X352042278Y-120130500D01*
X352109317Y-120150185D01*
G37*
G04 #@! TD.AperFunction*
G04 #@! TA.AperFunction,Conductor*
G36*
X357775000Y-175636988D02*
G01*
X357717993Y-175604075D01*
X357590826Y-175570000D01*
X357459174Y-175570000D01*
X357332007Y-175604075D01*
X357275000Y-175636988D01*
X357275000Y-173963012D01*
X357332007Y-173995925D01*
X357459174Y-174030000D01*
X357590826Y-174030000D01*
X357717993Y-173995925D01*
X357775000Y-173963012D01*
X357775000Y-175636988D01*
G37*
G04 #@! TD.AperFunction*
G04 #@! TA.AperFunction,Conductor*
G36*
X356369328Y-159010185D02*
G01*
X356403863Y-159043376D01*
X356420624Y-159067313D01*
X356486505Y-159161402D01*
X356653597Y-159328493D01*
X356653603Y-159328498D01*
X356839594Y-159458730D01*
X356883219Y-159513307D01*
X356890413Y-159582805D01*
X356858890Y-159645160D01*
X356839595Y-159661880D01*
X356653922Y-159791890D01*
X356653920Y-159791891D01*
X356486891Y-159958920D01*
X356486886Y-159958926D01*
X356351400Y-160152420D01*
X356351399Y-160152422D01*
X356251570Y-160366507D01*
X356251567Y-160366513D01*
X356194364Y-160579999D01*
X356194364Y-160580000D01*
X357091988Y-160580000D01*
X357059075Y-160637007D01*
X357025000Y-160764174D01*
X357025000Y-160895826D01*
X357059075Y-161022993D01*
X357091988Y-161080000D01*
X356194364Y-161080000D01*
X356251567Y-161293486D01*
X356251570Y-161293492D01*
X356351399Y-161507578D01*
X356486894Y-161701082D01*
X356653917Y-161868105D01*
X356840031Y-161998425D01*
X356883656Y-162053003D01*
X356890848Y-162122501D01*
X356859326Y-162184856D01*
X356840031Y-162201575D01*
X356653922Y-162331890D01*
X356653920Y-162331891D01*
X356486891Y-162498920D01*
X356486886Y-162498926D01*
X356351400Y-162692420D01*
X356351399Y-162692422D01*
X356251570Y-162906507D01*
X356251567Y-162906513D01*
X356194364Y-163119999D01*
X356194364Y-163120000D01*
X357091988Y-163120000D01*
X357059075Y-163177007D01*
X357025000Y-163304174D01*
X357025000Y-163435826D01*
X357059075Y-163562993D01*
X357091988Y-163620000D01*
X356194364Y-163620000D01*
X356251567Y-163833486D01*
X356251570Y-163833492D01*
X356351399Y-164047578D01*
X356486894Y-164241082D01*
X356653917Y-164408105D01*
X356839595Y-164538119D01*
X356883219Y-164592696D01*
X356890412Y-164662195D01*
X356858890Y-164724549D01*
X356839595Y-164741269D01*
X356653594Y-164871508D01*
X356486505Y-165038597D01*
X356350965Y-165232169D01*
X356350964Y-165232171D01*
X356251098Y-165446335D01*
X356251094Y-165446344D01*
X356189938Y-165674586D01*
X356189936Y-165674596D01*
X356169341Y-165909999D01*
X356169341Y-165910000D01*
X356189936Y-166145403D01*
X356189938Y-166145413D01*
X356251094Y-166373655D01*
X356251096Y-166373659D01*
X356251097Y-166373663D01*
X356269096Y-166412262D01*
X356350965Y-166587830D01*
X356350967Y-166587834D01*
X356486501Y-166781395D01*
X356486506Y-166781402D01*
X356653597Y-166948493D01*
X356653603Y-166948498D01*
X356839158Y-167078425D01*
X356882783Y-167133002D01*
X356889977Y-167202500D01*
X356858454Y-167264855D01*
X356839158Y-167281575D01*
X356653597Y-167411505D01*
X356486505Y-167578597D01*
X356350965Y-167772169D01*
X356350964Y-167772171D01*
X356251098Y-167986335D01*
X356251094Y-167986344D01*
X356189938Y-168214586D01*
X356189936Y-168214596D01*
X356169341Y-168449999D01*
X356169341Y-168450000D01*
X356189936Y-168685403D01*
X356189938Y-168685413D01*
X356251094Y-168913655D01*
X356251096Y-168913659D01*
X356251097Y-168913663D01*
X356350965Y-169127830D01*
X356350967Y-169127834D01*
X356486501Y-169321395D01*
X356486506Y-169321402D01*
X356653597Y-169488493D01*
X356653603Y-169488498D01*
X356839158Y-169618425D01*
X356882783Y-169673002D01*
X356889977Y-169742500D01*
X356858454Y-169804855D01*
X356839158Y-169821575D01*
X356653597Y-169951505D01*
X356486506Y-170118596D01*
X356403864Y-170236623D01*
X356349287Y-170280248D01*
X356302289Y-170289500D01*
X351926519Y-170289500D01*
X351859480Y-170269815D01*
X351838838Y-170253181D01*
X350931819Y-169346162D01*
X350898334Y-169284839D01*
X350895500Y-169258481D01*
X350895500Y-166335493D01*
X350914508Y-166269519D01*
X350920787Y-166259525D01*
X350920788Y-166259523D01*
X350920789Y-166259522D01*
X350980368Y-166089255D01*
X351000565Y-165910000D01*
X350980368Y-165730745D01*
X350980367Y-165730743D01*
X350980366Y-165730737D01*
X350920790Y-165560479D01*
X350914506Y-165550478D01*
X350895500Y-165484507D01*
X350895500Y-159114500D01*
X350915185Y-159047461D01*
X350967989Y-159001706D01*
X351019500Y-158990500D01*
X356302289Y-158990500D01*
X356369328Y-159010185D01*
G37*
G04 #@! TD.AperFunction*
G04 #@! TA.AperFunction,Conductor*
G36*
X357775000Y-162936988D02*
G01*
X357717993Y-162904075D01*
X357590826Y-162870000D01*
X357459174Y-162870000D01*
X357332007Y-162904075D01*
X357275000Y-162936988D01*
X357275000Y-161263012D01*
X357332007Y-161295925D01*
X357459174Y-161330000D01*
X357590826Y-161330000D01*
X357717993Y-161295925D01*
X357775000Y-161263012D01*
X357775000Y-162936988D01*
G37*
G04 #@! TD.AperFunction*
G04 #@! TA.AperFunction,Conductor*
G36*
X356369328Y-133610185D02*
G01*
X356403863Y-133643376D01*
X356420624Y-133667313D01*
X356486505Y-133761402D01*
X356653597Y-133928493D01*
X356653603Y-133928498D01*
X356839594Y-134058730D01*
X356883219Y-134113307D01*
X356890413Y-134182805D01*
X356858890Y-134245160D01*
X356839595Y-134261880D01*
X356653922Y-134391890D01*
X356653920Y-134391891D01*
X356486891Y-134558920D01*
X356486886Y-134558926D01*
X356351400Y-134752420D01*
X356351399Y-134752422D01*
X356251570Y-134966507D01*
X356251567Y-134966513D01*
X356194364Y-135179999D01*
X356194364Y-135180000D01*
X357091988Y-135180000D01*
X357059075Y-135237007D01*
X357025000Y-135364174D01*
X357025000Y-135495826D01*
X357059075Y-135622993D01*
X357091988Y-135680000D01*
X356194364Y-135680000D01*
X356251567Y-135893486D01*
X356251570Y-135893492D01*
X356351399Y-136107578D01*
X356486894Y-136301082D01*
X356653917Y-136468105D01*
X356840031Y-136598425D01*
X356883656Y-136653003D01*
X356890848Y-136722501D01*
X356859326Y-136784856D01*
X356840031Y-136801575D01*
X356653922Y-136931890D01*
X356653920Y-136931891D01*
X356486891Y-137098920D01*
X356486886Y-137098926D01*
X356351400Y-137292420D01*
X356351399Y-137292422D01*
X356251570Y-137506507D01*
X356251567Y-137506513D01*
X356194364Y-137719999D01*
X356194364Y-137720000D01*
X357091988Y-137720000D01*
X357059075Y-137777007D01*
X357025000Y-137904174D01*
X357025000Y-138035826D01*
X357059075Y-138162993D01*
X357091988Y-138220000D01*
X356194364Y-138220000D01*
X356251567Y-138433486D01*
X356251570Y-138433492D01*
X356351399Y-138647578D01*
X356486894Y-138841082D01*
X356653917Y-139008105D01*
X356839595Y-139138119D01*
X356883219Y-139192696D01*
X356890412Y-139262195D01*
X356858890Y-139324549D01*
X356839595Y-139341269D01*
X356653594Y-139471508D01*
X356486505Y-139638597D01*
X356350965Y-139832169D01*
X356350964Y-139832171D01*
X356251098Y-140046335D01*
X356251094Y-140046344D01*
X356189938Y-140274586D01*
X356189936Y-140274596D01*
X356169341Y-140509999D01*
X356169341Y-140510000D01*
X356189936Y-140745403D01*
X356189938Y-140745413D01*
X356251094Y-140973655D01*
X356251096Y-140973659D01*
X356251097Y-140973663D01*
X356350965Y-141187830D01*
X356350967Y-141187834D01*
X356486501Y-141381395D01*
X356486506Y-141381402D01*
X356653597Y-141548493D01*
X356653603Y-141548498D01*
X356839158Y-141678425D01*
X356882783Y-141733002D01*
X356889977Y-141802500D01*
X356858454Y-141864855D01*
X356839158Y-141881575D01*
X356653597Y-142011505D01*
X356486505Y-142178597D01*
X356350965Y-142372169D01*
X356350964Y-142372171D01*
X356251098Y-142586335D01*
X356251094Y-142586344D01*
X356189938Y-142814586D01*
X356189936Y-142814596D01*
X356169341Y-143049999D01*
X356169341Y-143050000D01*
X356189936Y-143285403D01*
X356189938Y-143285413D01*
X356251094Y-143513655D01*
X356251096Y-143513659D01*
X356251097Y-143513663D01*
X356350965Y-143727830D01*
X356350967Y-143727834D01*
X356486501Y-143921395D01*
X356486506Y-143921402D01*
X356653597Y-144088493D01*
X356653603Y-144088498D01*
X356839158Y-144218425D01*
X356882783Y-144273002D01*
X356889977Y-144342500D01*
X356858454Y-144404855D01*
X356839158Y-144421575D01*
X356653597Y-144551505D01*
X356486506Y-144718596D01*
X356403864Y-144836623D01*
X356349287Y-144880248D01*
X356302289Y-144889500D01*
X351019500Y-144889500D01*
X350952461Y-144869815D01*
X350906706Y-144817011D01*
X350895500Y-144765500D01*
X350895500Y-140935493D01*
X350914508Y-140869519D01*
X350920787Y-140859525D01*
X350920786Y-140859525D01*
X350920789Y-140859522D01*
X350980368Y-140689255D01*
X351000565Y-140510000D01*
X350985609Y-140377262D01*
X350980369Y-140330750D01*
X350980366Y-140330737D01*
X350920790Y-140160479D01*
X350914506Y-140150478D01*
X350895500Y-140084507D01*
X350895500Y-133714500D01*
X350915185Y-133647461D01*
X350967989Y-133601706D01*
X351019500Y-133590500D01*
X356302289Y-133590500D01*
X356369328Y-133610185D01*
G37*
G04 #@! TD.AperFunction*
G04 #@! TA.AperFunction,Conductor*
G36*
X357775000Y-137536988D02*
G01*
X357717993Y-137504075D01*
X357590826Y-137470000D01*
X357459174Y-137470000D01*
X357332007Y-137504075D01*
X357275000Y-137536988D01*
X357275000Y-135863012D01*
X357332007Y-135895925D01*
X357459174Y-135930000D01*
X357590826Y-135930000D01*
X357717993Y-135895925D01*
X357775000Y-135863012D01*
X357775000Y-137536988D01*
G37*
G04 #@! TD.AperFunction*
M02*
