G04 #@! TF.GenerationSoftware,KiCad,Pcbnew,8.0.6*
G04 #@! TF.CreationDate,2025-05-06T17:06:54+09:00*
G04 #@! TF.ProjectId,PCB,5043422e-6b69-4636-9164-5f7063625858,rev?*
G04 #@! TF.SameCoordinates,Original*
G04 #@! TF.FileFunction,Paste,Top*
G04 #@! TF.FilePolarity,Positive*
%FSLAX46Y46*%
G04 Gerber Fmt 4.6, Leading zero omitted, Abs format (unit mm)*
G04 Created by KiCad (PCBNEW 8.0.6) date 2025-05-06 17:06:54*
%MOMM*%
%LPD*%
G01*
G04 APERTURE LIST*
G04 Aperture macros list*
%AMRoundRect*
0 Rectangle with rounded corners*
0 $1 Rounding radius*
0 $2 $3 $4 $5 $6 $7 $8 $9 X,Y pos of 4 corners*
0 Add a 4 corners polygon primitive as box body*
4,1,4,$2,$3,$4,$5,$6,$7,$8,$9,$2,$3,0*
0 Add four circle primitives for the rounded corners*
1,1,$1+$1,$2,$3*
1,1,$1+$1,$4,$5*
1,1,$1+$1,$6,$7*
1,1,$1+$1,$8,$9*
0 Add four rect primitives between the rounded corners*
20,1,$1+$1,$2,$3,$4,$5,0*
20,1,$1+$1,$4,$5,$6,$7,0*
20,1,$1+$1,$6,$7,$8,$9,0*
20,1,$1+$1,$8,$9,$2,$3,0*%
G04 Aperture macros list end*
%ADD10RoundRect,0.225000X0.225000X0.375000X-0.225000X0.375000X-0.225000X-0.375000X0.225000X-0.375000X0*%
%ADD11RoundRect,0.225000X0.225000X0.250000X-0.225000X0.250000X-0.225000X-0.250000X0.225000X-0.250000X0*%
%ADD12RoundRect,0.200000X0.200000X0.275000X-0.200000X0.275000X-0.200000X-0.275000X0.200000X-0.275000X0*%
%ADD13RoundRect,0.200000X-0.200000X-0.275000X0.200000X-0.275000X0.200000X0.275000X-0.200000X0.275000X0*%
%ADD14RoundRect,0.218750X0.218750X0.256250X-0.218750X0.256250X-0.218750X-0.256250X0.218750X-0.256250X0*%
%ADD15RoundRect,0.225000X-0.225000X-0.250000X0.225000X-0.250000X0.225000X0.250000X-0.225000X0.250000X0*%
%ADD16RoundRect,0.150000X0.825000X0.150000X-0.825000X0.150000X-0.825000X-0.150000X0.825000X-0.150000X0*%
%ADD17RoundRect,0.250000X-0.450000X-0.425000X0.450000X-0.425000X0.450000X0.425000X-0.450000X0.425000X0*%
%ADD18RoundRect,0.250000X0.450000X0.425000X-0.450000X0.425000X-0.450000X-0.425000X0.450000X-0.425000X0*%
%ADD19RoundRect,0.200000X0.800000X-1.175000X0.800000X1.175000X-0.800000X1.175000X-0.800000X-1.175000X0*%
%ADD20RoundRect,0.200000X-0.800000X1.175000X-0.800000X-1.175000X0.800000X-1.175000X0.800000X1.175000X0*%
%ADD21C,1.700000*%
%ADD22RoundRect,0.110000X1.140000X0.440000X-1.140000X0.440000X-1.140000X-0.440000X1.140000X-0.440000X0*%
%ADD23RoundRect,0.150000X0.150000X-0.725000X0.150000X0.725000X-0.150000X0.725000X-0.150000X-0.725000X0*%
%ADD24R,1.500000X2.000000*%
%ADD25R,1.500000X2.600000*%
%ADD26RoundRect,0.150000X-0.825000X-0.150000X0.825000X-0.150000X0.825000X0.150000X-0.825000X0.150000X0*%
%ADD27RoundRect,0.375000X0.375000X-0.625000X0.375000X0.625000X-0.375000X0.625000X-0.375000X-0.625000X0*%
%ADD28RoundRect,0.500000X1.400000X-0.500000X1.400000X0.500000X-1.400000X0.500000X-1.400000X-0.500000X0*%
G04 APERTURE END LIST*
D10*
X241200000Y-169400000D03*
X237900000Y-169400000D03*
D11*
X203825000Y-122400000D03*
X202275000Y-122400000D03*
D12*
X153225000Y-132900000D03*
X154875000Y-132900000D03*
X153225000Y-136400000D03*
X154875000Y-136400000D03*
X153225000Y-147650000D03*
X154875000Y-147650000D03*
D13*
X154875000Y-159900000D03*
X153225000Y-159900000D03*
D12*
X153225000Y-171400000D03*
X154875000Y-171400000D03*
X153225000Y-144650000D03*
X154875000Y-144650000D03*
X153225000Y-156900000D03*
X154875000Y-156900000D03*
X153225000Y-168400000D03*
X154875000Y-168400000D03*
D11*
X241325000Y-151400000D03*
X239775000Y-151400000D03*
D12*
X234375000Y-112400000D03*
X232725000Y-112400000D03*
D14*
X178837500Y-120400000D03*
X177262500Y-120400000D03*
D11*
X178825000Y-117400000D03*
X177275000Y-117400000D03*
D15*
X177275000Y-111400000D03*
X178825000Y-111400000D03*
D16*
X186525000Y-120305000D03*
X186525000Y-119035000D03*
X186525000Y-117765000D03*
X186525000Y-116495000D03*
X181575000Y-116495000D03*
X181575000Y-117765000D03*
X181575000Y-119035000D03*
X181575000Y-120305000D03*
D12*
X230875000Y-112400000D03*
X229225000Y-112400000D03*
D11*
X212325000Y-106900000D03*
X210775000Y-106900000D03*
D13*
X210725000Y-109900000D03*
X212375000Y-109900000D03*
D15*
X160825000Y-120400000D03*
X159275000Y-120400000D03*
D17*
X184700000Y-110995000D03*
X187400000Y-110995000D03*
D11*
X241550000Y-154900000D03*
X240000000Y-154900000D03*
D18*
X241400000Y-147900000D03*
X238700000Y-147900000D03*
D12*
X241450000Y-120900000D03*
X239800000Y-120900000D03*
D14*
X178837500Y-114400000D03*
X177262500Y-114400000D03*
D12*
X244375000Y-106400000D03*
X242725000Y-106400000D03*
D15*
X154825000Y-174400000D03*
X153275000Y-174400000D03*
D13*
X183225000Y-133400000D03*
X184875000Y-133400000D03*
D15*
X232775000Y-115400000D03*
X234325000Y-115400000D03*
X229275000Y-108900000D03*
X230825000Y-108900000D03*
D13*
X210725000Y-112900000D03*
X212375000Y-112900000D03*
D19*
X244670000Y-125400000D03*
X242130000Y-125400000D03*
X239590000Y-125400000D03*
X237050000Y-125400000D03*
X234510000Y-125400000D03*
X231970000Y-125400000D03*
X229430000Y-125400000D03*
D20*
X229430000Y-141565000D03*
X231970000Y-141565000D03*
X234510000Y-141565000D03*
X237050000Y-141565000D03*
X239590000Y-141565000D03*
X242130000Y-141565000D03*
X244670000Y-141565000D03*
D21*
X240860000Y-138483494D03*
X238320000Y-138483494D03*
X235780000Y-138483494D03*
X233240000Y-138483494D03*
X233240000Y-128323494D03*
X235780000Y-128323494D03*
X238320000Y-128323494D03*
X240860000Y-128323494D03*
X245700000Y-132212500D03*
X243160000Y-132212500D03*
X240620000Y-132212500D03*
X240620000Y-134752500D03*
X243160000Y-134752500D03*
X245700000Y-134752500D03*
D22*
X232075189Y-132482500D03*
X232075189Y-134482500D03*
D23*
X169605000Y-130975000D03*
X170875000Y-130975000D03*
X172145000Y-130975000D03*
X173415000Y-130975000D03*
X174685000Y-130975000D03*
X175955000Y-130975000D03*
X177225000Y-130975000D03*
X178495000Y-130975000D03*
X178495000Y-125825000D03*
X177225000Y-125825000D03*
X175955000Y-125825000D03*
X174685000Y-125825000D03*
X173415000Y-125825000D03*
X172145000Y-125825000D03*
X170875000Y-125825000D03*
X169605000Y-125825000D03*
D24*
X247450000Y-109900000D03*
X244050000Y-109900000D03*
X238550000Y-109900000D03*
X247450000Y-116900000D03*
X240250000Y-116900000D03*
D25*
X238050000Y-116600000D03*
D26*
X204575000Y-115995000D03*
X204575000Y-117265000D03*
X204575000Y-118535000D03*
X204575000Y-119805000D03*
X209525000Y-119805000D03*
X209525000Y-118535000D03*
X209525000Y-117265000D03*
X209525000Y-115995000D03*
D12*
X204550000Y-106900000D03*
X202900000Y-106900000D03*
D15*
X244175000Y-120900000D03*
X245725000Y-120900000D03*
D13*
X183225000Y-137400000D03*
X184875000Y-137400000D03*
D11*
X166825000Y-125400000D03*
X165275000Y-125400000D03*
D17*
X232200000Y-117900000D03*
X234900000Y-117900000D03*
D18*
X206900000Y-109900000D03*
X204200000Y-109900000D03*
D12*
X240375000Y-106400000D03*
X238725000Y-106400000D03*
D13*
X206725000Y-106900000D03*
X208375000Y-106900000D03*
D12*
X186875000Y-114400000D03*
X185225000Y-114400000D03*
D13*
X188225000Y-122400000D03*
X189875000Y-122400000D03*
D15*
X204775000Y-112900000D03*
X206325000Y-112900000D03*
D17*
X184700000Y-106995000D03*
X187400000Y-106995000D03*
D12*
X182875000Y-114400000D03*
X181225000Y-114400000D03*
D27*
X239250000Y-164550000D03*
X241550000Y-164550000D03*
D28*
X241550000Y-158250000D03*
D27*
X243850000Y-164550000D03*
M02*
