M48
; DRILL file {KiCad 8.0.6} date 2025-05-06T17:06:54+0900
; FORMAT={-:-/ absolute / metric / decimal}
; #@! TF.CreationDate,2025-05-06T17:06:54+09:00
; #@! TF.GenerationSoftware,Kicad,Pcbnew,8.0.6
; #@! TF.FileFunction,Plated,1,2,PTH
FMAT,2
METRIC
; #@! TA.AperFunction,Plated,PTH,ViaDrill
T1C0.400
; #@! TA.AperFunction,Plated,PTH,ComponentDrill
T2C0.750
; #@! TA.AperFunction,Plated,PTH,ComponentDrill
T3C0.800
; #@! TA.AperFunction,Plated,PTH,ComponentDrill
T4C0.850
; #@! TA.AperFunction,Plated,PTH,ComponentDrill
T5C1.000
; #@! TA.AperFunction,Plated,PTH,ComponentDrill
T6C2.000
; #@! TA.AperFunction,Plated,PTH,ComponentDrill
T7C3.200
%
G90
G05
T1
X157.55Y-139.4
X157.55Y-153.9
X159.05Y-118.4
X160.55Y-138.9
X160.61Y-163.9
X166.05Y-123.4
X168.05Y-135.95
X170.05Y-135.3
X171.05Y-122.9
X175.55Y-123.9
X180.05Y-131.4
X180.05Y-177.4
X183.55Y-119.4
X192.05Y-137.4
X192.55Y-134.4
X194.55Y-126.4
X194.55Y-137.4
X197.55Y-134.4
X200.55Y-122.9
X205.55Y-105.9
X205.55Y-124.9
X206.984Y-138.466
X207.05Y-128.4
X207.05Y-132.4
X207.55Y-135.4
X209.05Y-139.4
X211.645Y-115.995
X214.05Y-108.9
X216.05Y-135.4
X217.05Y-136.4
X223.55Y-123.4
X226.55Y-120.4
X234.375Y-113.9
X236.55Y-108.4
X237.55Y-151.4
X242.05Y-143.9
X246.95Y-120.9
X247.45Y-107.9
T2
X178.05Y-107.9
X180.05Y-107.9
T3
X229.51Y-168.4
X232.05Y-168.4
X234.59Y-168.4
T4
X224.35Y-164.4
X228.55Y-164.4
T5
X149.21Y-126.73
X149.21Y-129.27
X149.21Y-131.81
X149.21Y-134.35
X149.21Y-136.89
X149.21Y-139.43
X149.21Y-141.97
X149.21Y-144.51
X149.21Y-147.05
X149.21Y-149.59
X149.21Y-157.21
X149.21Y-159.75
X149.21Y-162.29
X149.21Y-164.83
X149.21Y-167.37
X149.21Y-169.91
X149.21Y-172.45
X149.21Y-174.99
X149.21Y-177.53
X149.21Y-180.07
X166.55Y-120.4
X169.05Y-120.4
X169.55Y-155.4
X169.55Y-179.4
X171.55Y-120.4
X172.05Y-155.4
X172.05Y-179.4
X174.55Y-155.4
X174.55Y-179.4
X192.55Y-120.4
X195.05Y-120.4
X197.55Y-120.4
X218.55Y-120.4
X221.05Y-120.4
X223.55Y-120.4
X229.51Y-173.48
X234.59Y-173.48
T6
X164.65Y-113.4
X167.65Y-148.4
X167.65Y-172.4
X173.45Y-113.4
X176.45Y-148.4
X176.45Y-172.4
X190.65Y-113.4
X199.45Y-113.4
X216.65Y-113.4
X225.45Y-113.4
T7
X154.05Y-127.4
X154.05Y-179.4
X219.05Y-127.4
X219.05Y-179.4
M30
