G04 #@! TF.GenerationSoftware,KiCad,Pcbnew,8.0.6*
G04 #@! TF.CreationDate,2025-05-06T17:06:54+09:00*
G04 #@! TF.ProjectId,PCB,5043422e-6b69-4636-9164-5f7063625858,rev?*
G04 #@! TF.SameCoordinates,Original*
G04 #@! TF.FileFunction,Soldermask,Top*
G04 #@! TF.FilePolarity,Negative*
%FSLAX46Y46*%
G04 Gerber Fmt 4.6, Leading zero omitted, Abs format (unit mm)*
G04 Created by KiCad (PCBNEW 8.0.6) date 2025-05-06 17:06:54*
%MOMM*%
%LPD*%
G01*
G04 APERTURE LIST*
G04 Aperture macros list*
%AMRoundRect*
0 Rectangle with rounded corners*
0 $1 Rounding radius*
0 $2 $3 $4 $5 $6 $7 $8 $9 X,Y pos of 4 corners*
0 Add a 4 corners polygon primitive as box body*
4,1,4,$2,$3,$4,$5,$6,$7,$8,$9,$2,$3,0*
0 Add four circle primitives for the rounded corners*
1,1,$1+$1,$2,$3*
1,1,$1+$1,$4,$5*
1,1,$1+$1,$6,$7*
1,1,$1+$1,$8,$9*
0 Add four rect primitives between the rounded corners*
20,1,$1+$1,$2,$3,$4,$5,0*
20,1,$1+$1,$4,$5,$6,$7,0*
20,1,$1+$1,$6,$7,$8,$9,0*
20,1,$1+$1,$8,$9,$2,$3,0*%
G04 Aperture macros list end*
%ADD10RoundRect,0.250500X0.250500X0.400500X-0.250500X0.400500X-0.250500X-0.400500X0.250500X-0.400500X0*%
%ADD11RoundRect,0.271250X0.379750X0.654750X-0.379750X0.654750X-0.379750X-0.654750X0.379750X-0.654750X0*%
%ADD12O,1.302000X1.852000*%
%ADD13RoundRect,0.250500X0.250500X0.275500X-0.250500X0.275500X-0.250500X-0.275500X0.250500X-0.275500X0*%
%ADD14RoundRect,0.225500X0.225500X0.300500X-0.225500X0.300500X-0.225500X-0.300500X0.225500X-0.300500X0*%
%ADD15C,5.702000*%
%ADD16RoundRect,0.225500X-0.225500X-0.300500X0.225500X-0.300500X0.225500X0.300500X-0.225500X0.300500X0*%
%ADD17RoundRect,0.244250X0.244250X0.281750X-0.244250X0.281750X-0.244250X-0.281750X0.244250X-0.281750X0*%
%ADD18RoundRect,0.051000X0.900000X-0.900000X0.900000X0.900000X-0.900000X0.900000X-0.900000X-0.900000X0*%
%ADD19C,1.902000*%
%ADD20RoundRect,0.775500X0.775500X-1.275500X0.775500X1.275500X-0.775500X1.275500X-0.775500X-1.275500X0*%
%ADD21RoundRect,0.250500X-0.250500X-0.275500X0.250500X-0.275500X0.250500X0.275500X-0.250500X0.275500X0*%
%ADD22O,1.802000X1.802000*%
%ADD23RoundRect,0.051000X-0.850000X-0.850000X0.850000X-0.850000X0.850000X0.850000X-0.850000X0.850000X0*%
%ADD24RoundRect,0.175500X0.850500X0.175500X-0.850500X0.175500X-0.850500X-0.175500X0.850500X-0.175500X0*%
%ADD25C,2.302000*%
%ADD26RoundRect,0.263784X0.712216X0.712216X-0.712216X0.712216X-0.712216X-0.712216X0.712216X-0.712216X0*%
%ADD27C,1.952000*%
%ADD28RoundRect,0.051000X-0.750000X-1.250000X0.750000X-1.250000X0.750000X1.250000X-0.750000X1.250000X0*%
%ADD29O,1.602000X2.602000*%
%ADD30O,2.102000X2.102000*%
%ADD31RoundRect,0.268889X-0.482111X-0.457111X0.482111X-0.457111X0.482111X0.457111X-0.482111X0.457111X0*%
%ADD32RoundRect,0.268889X0.482111X0.457111X-0.482111X0.457111X-0.482111X-0.457111X0.482111X-0.457111X0*%
%ADD33RoundRect,0.210200X0.840800X-1.215800X0.840800X1.215800X-0.840800X1.215800X-0.840800X-1.215800X0*%
%ADD34RoundRect,0.210200X-0.840800X1.215800X-0.840800X-1.215800X0.840800X-1.215800X0.840800X1.215800X0*%
%ADD35C,1.802000*%
%ADD36RoundRect,0.120200X1.180800X0.480800X-1.180800X0.480800X-1.180800X-0.480800X1.180800X-0.480800X0*%
%ADD37RoundRect,0.175500X0.175500X-0.750500X0.175500X0.750500X-0.175500X0.750500X-0.175500X-0.750500X0*%
%ADD38C,1.602000*%
%ADD39RoundRect,0.051000X-0.750000X1.000000X-0.750000X-1.000000X0.750000X-1.000000X0.750000X1.000000X0*%
%ADD40RoundRect,0.051000X-0.750000X1.300000X-0.750000X-1.300000X0.750000X-1.300000X0.750000X1.300000X0*%
%ADD41RoundRect,0.175500X-0.850500X-0.175500X0.850500X-0.175500X0.850500X0.175500X-0.850500X0.175500X0*%
%ADD42RoundRect,0.400500X0.400500X-0.650500X0.400500X0.650500X-0.400500X0.650500X-0.400500X-0.650500X0*%
%ADD43RoundRect,0.525500X1.425500X-0.525500X1.425500X0.525500X-1.425500X0.525500X-1.425500X-0.525500X0*%
G04 APERTURE END LIST*
D10*
X241200000Y-169400000D03*
X237900000Y-169400000D03*
D11*
X180050000Y-107900000D03*
D12*
X178050000Y-107900000D03*
D13*
X203825000Y-122400000D03*
X202275000Y-122400000D03*
D14*
X153225000Y-132900000D03*
X154875000Y-132900000D03*
X153225000Y-136400000D03*
X154875000Y-136400000D03*
D15*
X154050000Y-179400000D03*
D14*
X153225000Y-147650000D03*
X154875000Y-147650000D03*
D16*
X154875000Y-159900000D03*
X153225000Y-159900000D03*
D14*
X153225000Y-171400000D03*
X154875000Y-171400000D03*
X153225000Y-144650000D03*
X154875000Y-144650000D03*
X153225000Y-156900000D03*
X154875000Y-156900000D03*
X153225000Y-168400000D03*
X154875000Y-168400000D03*
D15*
X219050000Y-179400000D03*
D13*
X241325000Y-151400000D03*
X239775000Y-151400000D03*
D15*
X154050000Y-127400000D03*
D14*
X234375000Y-112400000D03*
X232725000Y-112400000D03*
D17*
X178837500Y-120400000D03*
X177262500Y-120400000D03*
D18*
X166550000Y-120400000D03*
D19*
X169050000Y-120400000D03*
X171550000Y-120400000D03*
D20*
X164650000Y-113400000D03*
X173450000Y-113400000D03*
X225450000Y-113400000D03*
X216650000Y-113400000D03*
D19*
X223550000Y-120400000D03*
X221050000Y-120400000D03*
D18*
X218550000Y-120400000D03*
D13*
X178825000Y-117400000D03*
X177275000Y-117400000D03*
D21*
X177275000Y-111400000D03*
X178825000Y-111400000D03*
D15*
X219050000Y-127400000D03*
D22*
X149210000Y-149590000D03*
X149210000Y-147050000D03*
X149210000Y-144510000D03*
X149210000Y-141970000D03*
X149210000Y-139430000D03*
X149210000Y-136890000D03*
X149210000Y-134350000D03*
X149210000Y-131810000D03*
X149210000Y-129270000D03*
D23*
X149210000Y-126730000D03*
D24*
X186525000Y-120305000D03*
X186525000Y-119035000D03*
X186525000Y-117765000D03*
X186525000Y-116495000D03*
X181575000Y-116495000D03*
X181575000Y-117765000D03*
X181575000Y-119035000D03*
X181575000Y-120305000D03*
D14*
X230875000Y-112400000D03*
X229225000Y-112400000D03*
D25*
X228550000Y-154200000D03*
X224350000Y-154200000D03*
D26*
X228550000Y-164400000D03*
D27*
X224350000Y-164400000D03*
D13*
X212325000Y-106900000D03*
X210775000Y-106900000D03*
D16*
X210725000Y-109900000D03*
X212375000Y-109900000D03*
D22*
X149210000Y-180070000D03*
X149210000Y-177530000D03*
X149210000Y-174990000D03*
X149210000Y-172450000D03*
X149210000Y-169910000D03*
X149210000Y-167370000D03*
X149210000Y-164830000D03*
X149210000Y-162290000D03*
X149210000Y-159750000D03*
D23*
X149210000Y-157210000D03*
D28*
X229510000Y-168400000D03*
D29*
X232050000Y-168400000D03*
X234590000Y-168400000D03*
D30*
X229510000Y-173480000D03*
X234590000Y-173480000D03*
D21*
X160825000Y-120400000D03*
X159275000Y-120400000D03*
D31*
X184700000Y-110995000D03*
X187400000Y-110995000D03*
D13*
X241550000Y-154900000D03*
X240000000Y-154900000D03*
D32*
X241400000Y-147900000D03*
X238700000Y-147900000D03*
D14*
X241450000Y-120900000D03*
X239800000Y-120900000D03*
D17*
X178837500Y-114400000D03*
X177262500Y-114400000D03*
D14*
X244375000Y-106400000D03*
X242725000Y-106400000D03*
D21*
X154825000Y-174400000D03*
X153275000Y-174400000D03*
D16*
X183225000Y-133400000D03*
X184875000Y-133400000D03*
D18*
X169550000Y-179400000D03*
D19*
X172050000Y-179400000D03*
X174550000Y-179400000D03*
D20*
X167650000Y-172400000D03*
X176450000Y-172400000D03*
D21*
X232775000Y-115400000D03*
X234325000Y-115400000D03*
X229275000Y-108900000D03*
X230825000Y-108900000D03*
D16*
X210725000Y-112900000D03*
X212375000Y-112900000D03*
D33*
X244670000Y-125400000D03*
X242130000Y-125400000D03*
X239590000Y-125400000D03*
X237050000Y-125400000D03*
X234510000Y-125400000D03*
X231970000Y-125400000D03*
X229430000Y-125400000D03*
D34*
X229430000Y-141565000D03*
X231970000Y-141565000D03*
X234510000Y-141565000D03*
X237050000Y-141565000D03*
X239590000Y-141565000D03*
X242130000Y-141565000D03*
X244670000Y-141565000D03*
D35*
X240860000Y-138483494D03*
X238320000Y-138483494D03*
X235780000Y-138483494D03*
X233240000Y-138483494D03*
X233240000Y-128323494D03*
X235780000Y-128323494D03*
X238320000Y-128323494D03*
X240860000Y-128323494D03*
X245700000Y-132212500D03*
X243160000Y-132212500D03*
X240620000Y-132212500D03*
X240620000Y-134752500D03*
X243160000Y-134752500D03*
X245700000Y-134752500D03*
D36*
X232075189Y-132482500D03*
X232075189Y-134482500D03*
D37*
X169605000Y-130975000D03*
X170875000Y-130975000D03*
X172145000Y-130975000D03*
X173415000Y-130975000D03*
X174685000Y-130975000D03*
X175955000Y-130975000D03*
X177225000Y-130975000D03*
X178495000Y-130975000D03*
X178495000Y-125825000D03*
X177225000Y-125825000D03*
X175955000Y-125825000D03*
X174685000Y-125825000D03*
X173415000Y-125825000D03*
X172145000Y-125825000D03*
X170875000Y-125825000D03*
X169605000Y-125825000D03*
D38*
X247050000Y-113400000D03*
X240050000Y-113400000D03*
D39*
X247450000Y-109900000D03*
X244050000Y-109900000D03*
X238550000Y-109900000D03*
X247450000Y-116900000D03*
X240250000Y-116900000D03*
D40*
X238050000Y-116600000D03*
D41*
X204575000Y-115995000D03*
X204575000Y-117265000D03*
X204575000Y-118535000D03*
X204575000Y-119805000D03*
X209525000Y-119805000D03*
X209525000Y-118535000D03*
X209525000Y-117265000D03*
X209525000Y-115995000D03*
D14*
X204550000Y-106900000D03*
X202900000Y-106900000D03*
D21*
X244175000Y-120900000D03*
X245725000Y-120900000D03*
D16*
X183225000Y-137400000D03*
X184875000Y-137400000D03*
D18*
X192550000Y-120400000D03*
D19*
X195050000Y-120400000D03*
X197550000Y-120400000D03*
D20*
X190650000Y-113400000D03*
X199450000Y-113400000D03*
D13*
X166825000Y-125400000D03*
X165275000Y-125400000D03*
D31*
X232200000Y-117900000D03*
X234900000Y-117900000D03*
D32*
X206900000Y-109900000D03*
X204200000Y-109900000D03*
D14*
X240375000Y-106400000D03*
X238725000Y-106400000D03*
D16*
X206725000Y-106900000D03*
X208375000Y-106900000D03*
D14*
X186875000Y-114400000D03*
X185225000Y-114400000D03*
D16*
X188225000Y-122400000D03*
X189875000Y-122400000D03*
D21*
X204775000Y-112900000D03*
X206325000Y-112900000D03*
D31*
X184700000Y-106995000D03*
X187400000Y-106995000D03*
D14*
X182875000Y-114400000D03*
X181225000Y-114400000D03*
D18*
X169550000Y-155400000D03*
D19*
X172050000Y-155400000D03*
X174550000Y-155400000D03*
D20*
X167650000Y-148400000D03*
X176450000Y-148400000D03*
D42*
X239250000Y-164550000D03*
X241550000Y-164550000D03*
D43*
X241550000Y-158250000D03*
D42*
X243850000Y-164550000D03*
M02*
