G04 #@! TF.GenerationSoftware,KiCad,Pcbnew,8.0.6*
G04 #@! TF.CreationDate,2025-05-06T15:42:09+09:00*
G04 #@! TF.ProjectId,PCB,5043422e-6b69-4636-9164-5f7063625858,rev?*
G04 #@! TF.SameCoordinates,Original*
G04 #@! TF.FileFunction,Copper,L2,Bot*
G04 #@! TF.FilePolarity,Positive*
%FSLAX46Y46*%
G04 Gerber Fmt 4.6, Leading zero omitted, Abs format (unit mm)*
G04 Created by KiCad (PCBNEW 8.0.6) date 2025-05-06 15:42:09*
%MOMM*%
%LPD*%
G01*
G04 APERTURE LIST*
G04 Aperture macros list*
%AMRoundRect*
0 Rectangle with rounded corners*
0 $1 Rounding radius*
0 $2 $3 $4 $5 $6 $7 $8 $9 X,Y pos of 4 corners*
0 Add a 4 corners polygon primitive as box body*
4,1,4,$2,$3,$4,$5,$6,$7,$8,$9,$2,$3,0*
0 Add four circle primitives for the rounded corners*
1,1,$1+$1,$2,$3*
1,1,$1+$1,$4,$5*
1,1,$1+$1,$6,$7*
1,1,$1+$1,$8,$9*
0 Add four rect primitives between the rounded corners*
20,1,$1+$1,$2,$3,$4,$5,0*
20,1,$1+$1,$4,$5,$6,$7,0*
20,1,$1+$1,$6,$7,$8,$9,0*
20,1,$1+$1,$8,$9,$2,$3,0*%
G04 Aperture macros list end*
G04 #@! TA.AperFunction,ComponentPad*
%ADD10RoundRect,0.250000X0.350000X0.625000X-0.350000X0.625000X-0.350000X-0.625000X0.350000X-0.625000X0*%
G04 #@! TD*
G04 #@! TA.AperFunction,ComponentPad*
%ADD11O,1.200000X1.750000*%
G04 #@! TD*
G04 #@! TA.AperFunction,ComponentPad*
%ADD12C,5.600000*%
G04 #@! TD*
G04 #@! TA.AperFunction,ComponentPad*
%ADD13R,1.800000X1.800000*%
G04 #@! TD*
G04 #@! TA.AperFunction,ComponentPad*
%ADD14C,1.800000*%
G04 #@! TD*
G04 #@! TA.AperFunction,ComponentPad*
%ADD15RoundRect,0.750000X0.750000X-1.250000X0.750000X1.250000X-0.750000X1.250000X-0.750000X-1.250000X0*%
G04 #@! TD*
G04 #@! TA.AperFunction,ComponentPad*
%ADD16O,1.700000X1.700000*%
G04 #@! TD*
G04 #@! TA.AperFunction,ComponentPad*
%ADD17R,1.700000X1.700000*%
G04 #@! TD*
G04 #@! TA.AperFunction,ComponentPad*
%ADD18RoundRect,0.250000X0.675000X0.675000X-0.675000X0.675000X-0.675000X-0.675000X0.675000X-0.675000X0*%
G04 #@! TD*
G04 #@! TA.AperFunction,ComponentPad*
%ADD19C,1.850000*%
G04 #@! TD*
G04 #@! TA.AperFunction,ComponentPad*
%ADD20R,1.500000X2.500000*%
G04 #@! TD*
G04 #@! TA.AperFunction,ComponentPad*
%ADD21O,1.500000X2.500000*%
G04 #@! TD*
G04 #@! TA.AperFunction,ComponentPad*
%ADD22O,2.000000X2.000000*%
G04 #@! TD*
G04 #@! TA.AperFunction,ViaPad*
%ADD23C,0.800000*%
G04 #@! TD*
G04 #@! TA.AperFunction,Conductor*
%ADD24C,0.400000*%
G04 #@! TD*
G04 #@! TA.AperFunction,Conductor*
%ADD25C,0.800000*%
G04 #@! TD*
G04 APERTURE END LIST*
D10*
X38000000Y45500000D03*
D11*
X36000000Y45500000D03*
D12*
X12000000Y-26000000D03*
X77000000Y-26000000D03*
X12000000Y26000000D03*
D13*
X24500000Y33000000D03*
D14*
X27000000Y33000000D03*
X29500000Y33000000D03*
D15*
X22600000Y40000000D03*
X31400000Y40000000D03*
X83400000Y40000000D03*
X74600000Y40000000D03*
D14*
X81500000Y33000000D03*
X79000000Y33000000D03*
D13*
X76500000Y33000000D03*
D12*
X77000000Y26000000D03*
D16*
X7160000Y3810000D03*
X7160000Y6350000D03*
X7160000Y8890000D03*
X7160000Y11430000D03*
X7160000Y13970000D03*
X7160000Y16510000D03*
X7160000Y19050000D03*
X7160000Y21590000D03*
X7160000Y24130000D03*
D17*
X7160000Y26670000D03*
D18*
X86500000Y-11000000D03*
D19*
X82300000Y-11000000D03*
D16*
X7160000Y-26670000D03*
X7160000Y-24130000D03*
X7160000Y-21590000D03*
X7160000Y-19050000D03*
X7160000Y-16510000D03*
X7160000Y-13970000D03*
X7160000Y-11430000D03*
X7160000Y-8890000D03*
X7160000Y-6350000D03*
D17*
X7160000Y-3810000D03*
D20*
X87460000Y-15000000D03*
D21*
X90000000Y-15000000D03*
X92540000Y-15000000D03*
D22*
X87460000Y-20080000D03*
X92540000Y-20080000D03*
D13*
X27500000Y-26000000D03*
D14*
X30000000Y-26000000D03*
X32500000Y-26000000D03*
D15*
X25600000Y-19000000D03*
X34400000Y-19000000D03*
D13*
X50500000Y33000000D03*
D14*
X53000000Y33000000D03*
X55500000Y33000000D03*
D15*
X48600000Y40000000D03*
X57400000Y40000000D03*
D13*
X27500000Y-2000000D03*
D14*
X30000000Y-2000000D03*
X32500000Y-2000000D03*
D15*
X25600000Y5000000D03*
X34400000Y5000000D03*
D23*
X74000000Y18000000D03*
X75000000Y17000000D03*
X58500000Y30500000D03*
X24000000Y30000000D03*
X28000000Y18100000D03*
X17000000Y35000000D03*
X81500000Y30000000D03*
X84500000Y33000000D03*
X41500000Y34000000D03*
X72000000Y44500000D03*
X52500000Y16000000D03*
X52500000Y27000000D03*
X63500000Y28500000D03*
X63500000Y47500000D03*
X55500000Y19000000D03*
X69595000Y37405000D03*
X15500000Y14000000D03*
X15500000Y-500000D03*
X18560000Y-10500000D03*
X38000000Y-24000000D03*
X38000000Y22000000D03*
X105400000Y45500000D03*
X100000000Y9500000D03*
X94500000Y45000000D03*
X95500000Y2000000D03*
X92325000Y39500000D03*
X104900000Y32500000D03*
X18500000Y14500000D03*
X29000000Y30500000D03*
X33500000Y29500000D03*
X65000000Y25000000D03*
X65000000Y21000000D03*
X65500000Y18000000D03*
X50000000Y16000000D03*
X50500000Y19000000D03*
X67000000Y14000000D03*
X64934314Y14934314D03*
X26000000Y17450000D03*
D24*
X70934314Y14934314D02*
X74000000Y18000000D01*
X64934314Y14934314D02*
X70934314Y14934314D01*
X72000000Y14000000D02*
X75000000Y17000000D01*
X67000000Y14000000D02*
X72000000Y14000000D01*
X58500000Y31000000D02*
X57400000Y32100000D01*
X58500000Y30500000D02*
X58500000Y31000000D01*
X57400000Y32100000D02*
X57400000Y40000000D01*
X8000000Y31000000D02*
X5000000Y28000000D01*
X18000000Y31000000D02*
X8000000Y31000000D01*
X5000000Y28000000D02*
X5000000Y26290000D01*
X28000000Y21000000D02*
X18000000Y31000000D01*
X28000000Y18100000D02*
X28000000Y21000000D01*
X5000000Y26290000D02*
X7160000Y24130000D01*
X24000000Y30000000D02*
X24000000Y32500000D01*
X24000000Y32500000D02*
X24500000Y33000000D01*
X9000000Y30000000D02*
X17000000Y30000000D01*
X26000000Y21000000D02*
X26000000Y17450000D01*
X7160000Y26670000D02*
X7160000Y28160000D01*
X7160000Y28160000D02*
X9000000Y30000000D01*
X17000000Y30000000D02*
X26000000Y21000000D01*
X7160000Y26670000D02*
X7745000Y27255000D01*
D25*
X9000000Y35000000D02*
X17000000Y35000000D01*
X3000000Y29000000D02*
X9000000Y35000000D01*
X3000000Y17510000D02*
X3000000Y29000000D01*
X4000000Y16510000D02*
X3000000Y17510000D01*
X3000000Y15510000D02*
X4000000Y16510000D01*
X3000000Y5000000D02*
X3000000Y15510000D01*
X4000000Y4000000D02*
X3000000Y5000000D01*
X4000000Y3810000D02*
X4000000Y4000000D01*
X3000000Y2810000D02*
X4000000Y3810000D01*
X3000000Y-8000000D02*
X3000000Y2810000D01*
X3890000Y-8890000D02*
X3000000Y-8000000D01*
X4000000Y-8890000D02*
X3890000Y-8890000D01*
X3000000Y-9890000D02*
X4000000Y-8890000D01*
X4590000Y-21590000D02*
X3000000Y-20000000D01*
X7160000Y-21590000D02*
X4590000Y-21590000D01*
X3000000Y-20000000D02*
X3000000Y-9890000D01*
X29000000Y35000000D02*
X17000000Y35000000D01*
X29500000Y34500000D02*
X29000000Y35000000D01*
X29500000Y33000000D02*
X29500000Y34500000D01*
D24*
X84500000Y33000000D02*
X81500000Y30000000D01*
X41500000Y34000000D02*
X41500000Y32500000D01*
X41500000Y32500000D02*
X41000000Y32000000D01*
X41000000Y32000000D02*
X41000000Y22000000D01*
X41000000Y22000000D02*
X38000000Y22000000D01*
D25*
X69595000Y42095000D02*
X72000000Y44500000D01*
X69595000Y37405000D02*
X69595000Y42095000D01*
D24*
X74600000Y28400000D02*
X74600000Y40000000D01*
X77000000Y26000000D02*
X74600000Y28400000D01*
D25*
X55500000Y19000000D02*
X52500000Y16000000D01*
D24*
X53000000Y27500000D02*
X52500000Y27000000D01*
X53000000Y33000000D02*
X53000000Y27500000D01*
D25*
X63500000Y28500000D02*
X65750000Y30750000D01*
X65750000Y30750000D02*
X69500000Y30750000D01*
X63500000Y20000000D02*
X63500000Y28500000D01*
D24*
X63500000Y40500000D02*
X63000000Y40000000D01*
X63000000Y40000000D02*
X57400000Y40000000D01*
X63500000Y47500000D02*
X63500000Y40500000D01*
D25*
X69595000Y30845000D02*
X69500000Y30750000D01*
X69595000Y37405000D02*
X69595000Y30845000D01*
X55500000Y33000000D02*
X55500000Y19000000D01*
D24*
X15500000Y-500000D02*
X15500000Y14000000D01*
X18560000Y-10500000D02*
X18560000Y14440000D01*
X18560000Y14440000D02*
X18500000Y14500000D01*
X25500000Y2000000D02*
X25600000Y2100000D01*
X25500000Y1500000D02*
X25500000Y2000000D01*
X25600000Y2100000D02*
X25600000Y5000000D01*
X27500000Y-500000D02*
X25500000Y1500000D01*
X27500000Y-2000000D02*
X27500000Y-500000D01*
X29000000Y5226346D02*
X30000000Y4226346D01*
X30000000Y4226346D02*
X30000000Y-2000000D01*
X29000000Y30500000D02*
X29000000Y5226346D01*
X38000000Y-24000000D02*
X38000000Y7000000D01*
X38000000Y7000000D02*
X34500000Y10500000D01*
X32500000Y-26000000D02*
X32500000Y-2000000D01*
X7160000Y-24130000D02*
X7160000Y-26670000D01*
X100000000Y9500000D02*
X95500000Y9500000D01*
X9970000Y13970000D02*
X10000000Y14000000D01*
X100000000Y9500000D02*
X100000000Y20000000D01*
X100000000Y20000000D02*
X100000000Y32500000D01*
X9000000Y11000000D02*
X8570000Y11430000D01*
X7160000Y-11430000D02*
X7160000Y-13970000D01*
X10000000Y-14000000D02*
X9970000Y-13970000D01*
X10000000Y-14000000D02*
X10000000Y11000000D01*
X94900000Y45500000D02*
X94400000Y45000000D01*
X105400000Y45500000D02*
X94900000Y45500000D01*
X7160000Y13970000D02*
X9970000Y13970000D01*
X95500000Y9500000D02*
X95500000Y2000000D01*
X7830000Y-26000000D02*
X7160000Y-26670000D01*
X95500000Y2000000D02*
X91000000Y2000000D01*
X8570000Y11430000D02*
X7160000Y11430000D01*
X9970000Y-13970000D02*
X7160000Y-13970000D01*
X100000000Y32500000D02*
X104900000Y32500000D01*
X10000000Y11000000D02*
X9000000Y11000000D01*
X12000000Y-26000000D02*
X7830000Y-26000000D01*
X77000000Y20000000D02*
X100000000Y20000000D01*
X77000000Y26000000D02*
X77000000Y20000000D01*
X10000000Y14000000D02*
X10000000Y11000000D01*
X34500000Y10500000D02*
X34500000Y28500000D01*
X34500000Y28500000D02*
X33500000Y29500000D01*
X65000000Y25000000D02*
X65000000Y21000000D01*
D25*
X65500000Y18000000D02*
X63500000Y20000000D01*
X7460000Y3810000D02*
X4000000Y3810000D01*
D24*
X50500000Y19000000D02*
X50500000Y16500000D01*
D25*
X7460000Y-8890000D02*
X4000000Y-8890000D01*
D24*
X50500000Y16500000D02*
X50000000Y16000000D01*
D25*
X7460000Y16510000D02*
X4000000Y16510000D01*
G04 #@! TA.AperFunction,Conductor*
G36*
X7414000Y-26239297D02*
G01*
X7352993Y-26204075D01*
X7225826Y-26170000D01*
X7094174Y-26170000D01*
X6967007Y-26204075D01*
X6906000Y-26239297D01*
X6906000Y-24560702D01*
X6967007Y-24595925D01*
X7094174Y-24630000D01*
X7225826Y-24630000D01*
X7352993Y-24595925D01*
X7414000Y-24560702D01*
X7414000Y-26239297D01*
G37*
G04 #@! TD.AperFunction*
G04 #@! TA.AperFunction,Conductor*
G36*
X6162705Y-9818502D02*
G01*
X6187282Y-9839160D01*
X6198790Y-9851660D01*
X6236762Y-9892908D01*
X6283309Y-9929137D01*
X6414424Y-10031189D01*
X6448205Y-10049470D01*
X6498596Y-10099482D01*
X6513949Y-10168799D01*
X6489389Y-10235412D01*
X6448209Y-10271096D01*
X6414704Y-10289228D01*
X6414698Y-10289232D01*
X6237097Y-10427465D01*
X6084674Y-10593041D01*
X5961580Y-10781451D01*
X5871179Y-10987543D01*
X5871176Y-10987550D01*
X5823455Y-11175999D01*
X5823456Y-11176000D01*
X6729297Y-11176000D01*
X6694075Y-11237007D01*
X6660000Y-11364174D01*
X6660000Y-11495826D01*
X6694075Y-11622993D01*
X6729297Y-11684000D01*
X5823455Y-11684000D01*
X5871176Y-11872449D01*
X5871179Y-11872456D01*
X5961580Y-12078548D01*
X6084674Y-12266958D01*
X6237097Y-12432534D01*
X6414698Y-12570767D01*
X6414699Y-12570768D01*
X6448734Y-12589187D01*
X6499123Y-12639201D01*
X6514475Y-12708518D01*
X6489913Y-12775130D01*
X6448734Y-12810813D01*
X6414699Y-12829231D01*
X6414698Y-12829232D01*
X6237097Y-12967465D01*
X6084674Y-13133041D01*
X5961580Y-13321451D01*
X5871179Y-13527543D01*
X5871176Y-13527550D01*
X5823455Y-13715999D01*
X5823456Y-13716000D01*
X6729297Y-13716000D01*
X6694075Y-13777007D01*
X6660000Y-13904174D01*
X6660000Y-14035826D01*
X6694075Y-14162993D01*
X6729297Y-14224000D01*
X5823455Y-14224000D01*
X5871176Y-14412449D01*
X5871179Y-14412456D01*
X5961580Y-14618548D01*
X6084674Y-14806958D01*
X6237097Y-14972534D01*
X6414698Y-15110767D01*
X6414704Y-15110771D01*
X6448207Y-15128902D01*
X6498597Y-15178915D01*
X6513949Y-15248232D01*
X6489388Y-15314845D01*
X6448207Y-15350528D01*
X6414430Y-15368807D01*
X6414424Y-15368811D01*
X6236762Y-15507091D01*
X6084279Y-15672729D01*
X6084275Y-15672734D01*
X5961141Y-15861206D01*
X5870703Y-16067386D01*
X5870702Y-16067387D01*
X5815437Y-16285624D01*
X5815436Y-16285630D01*
X5815436Y-16285632D01*
X5796844Y-16510000D01*
X5809795Y-16666298D01*
X5815437Y-16734375D01*
X5870702Y-16952612D01*
X5870703Y-16952613D01*
X5961141Y-17158793D01*
X6084275Y-17347265D01*
X6084279Y-17347270D01*
X6236762Y-17512908D01*
X6287508Y-17552405D01*
X6414424Y-17651189D01*
X6447680Y-17669186D01*
X6498071Y-17719200D01*
X6513423Y-17788516D01*
X6488862Y-17855129D01*
X6447680Y-17890813D01*
X6414426Y-17908810D01*
X6414424Y-17908811D01*
X6236762Y-18047091D01*
X6084279Y-18212729D01*
X6084275Y-18212734D01*
X5961141Y-18401206D01*
X5870703Y-18607386D01*
X5870702Y-18607387D01*
X5815437Y-18825624D01*
X5815436Y-18825630D01*
X5815436Y-18825632D01*
X5796844Y-19050000D01*
X5813748Y-19254000D01*
X5815437Y-19274375D01*
X5870702Y-19492612D01*
X5870703Y-19492613D01*
X5870704Y-19492616D01*
X5928197Y-19623687D01*
X5961141Y-19698793D01*
X6084275Y-19887265D01*
X6084279Y-19887270D01*
X6236762Y-20052908D01*
X6283748Y-20089479D01*
X6414424Y-20191189D01*
X6447680Y-20209186D01*
X6498071Y-20259200D01*
X6513423Y-20328516D01*
X6488862Y-20395129D01*
X6447680Y-20430813D01*
X6414426Y-20448810D01*
X6414424Y-20448811D01*
X6236762Y-20587091D01*
X6187285Y-20640838D01*
X6126431Y-20677409D01*
X6094584Y-20681500D01*
X5018503Y-20681500D01*
X4950382Y-20661498D01*
X4929408Y-20644595D01*
X3945405Y-19660592D01*
X3911379Y-19598280D01*
X3908500Y-19571497D01*
X3908500Y-10318503D01*
X3928502Y-10250382D01*
X3945405Y-10229408D01*
X4339408Y-9835405D01*
X4401720Y-9801379D01*
X4428503Y-9798500D01*
X6094584Y-9798500D01*
X6162705Y-9818502D01*
G37*
G04 #@! TD.AperFunction*
G04 #@! TA.AperFunction,Conductor*
G36*
X7414000Y-13539297D02*
G01*
X7352993Y-13504075D01*
X7225826Y-13470000D01*
X7094174Y-13470000D01*
X6967007Y-13504075D01*
X6906000Y-13539297D01*
X6906000Y-11860702D01*
X6967007Y-11895925D01*
X7094174Y-11930000D01*
X7225826Y-11930000D01*
X7352993Y-11895925D01*
X7414000Y-11860702D01*
X7414000Y-13539297D01*
G37*
G04 #@! TD.AperFunction*
G04 #@! TA.AperFunction,Conductor*
G36*
X6162705Y15581498D02*
G01*
X6187285Y15560838D01*
X6236762Y15507092D01*
X6282804Y15471256D01*
X6414424Y15368811D01*
X6448205Y15350530D01*
X6498596Y15300518D01*
X6513949Y15231201D01*
X6489389Y15164588D01*
X6448209Y15128904D01*
X6414704Y15110772D01*
X6414698Y15110768D01*
X6237097Y14972535D01*
X6084674Y14806959D01*
X5961580Y14618549D01*
X5871179Y14412457D01*
X5871176Y14412450D01*
X5823455Y14224001D01*
X5823456Y14224000D01*
X6729297Y14224000D01*
X6694075Y14162993D01*
X6660000Y14035826D01*
X6660000Y13904174D01*
X6694075Y13777007D01*
X6729297Y13716000D01*
X5823455Y13716000D01*
X5871176Y13527551D01*
X5871179Y13527544D01*
X5961580Y13321452D01*
X6084674Y13133042D01*
X6237097Y12967466D01*
X6414698Y12829233D01*
X6414699Y12829232D01*
X6448734Y12810813D01*
X6499123Y12760799D01*
X6514475Y12691482D01*
X6489913Y12624870D01*
X6448734Y12589187D01*
X6414699Y12570769D01*
X6414698Y12570768D01*
X6237097Y12432535D01*
X6084674Y12266959D01*
X5961580Y12078549D01*
X5871179Y11872457D01*
X5871176Y11872450D01*
X5823455Y11684001D01*
X5823456Y11684000D01*
X6729297Y11684000D01*
X6694075Y11622993D01*
X6660000Y11495826D01*
X6660000Y11364174D01*
X6694075Y11237007D01*
X6729297Y11176000D01*
X5823455Y11176000D01*
X5871176Y10987551D01*
X5871179Y10987544D01*
X5961580Y10781452D01*
X6084674Y10593042D01*
X6237097Y10427466D01*
X6414698Y10289233D01*
X6414704Y10289229D01*
X6448207Y10271098D01*
X6498597Y10221085D01*
X6513949Y10151768D01*
X6489388Y10085155D01*
X6448207Y10049472D01*
X6414430Y10031193D01*
X6414424Y10031189D01*
X6236762Y9892909D01*
X6084279Y9727271D01*
X6084275Y9727266D01*
X5961141Y9538794D01*
X5870703Y9332614D01*
X5870702Y9332613D01*
X5815437Y9114376D01*
X5815436Y9114370D01*
X5815436Y9114368D01*
X5804107Y8977646D01*
X5796844Y8890000D01*
X5815437Y8665625D01*
X5870702Y8447388D01*
X5870703Y8447387D01*
X5961141Y8241207D01*
X6084275Y8052735D01*
X6084279Y8052730D01*
X6236762Y7887092D01*
X6274134Y7858004D01*
X6414424Y7748811D01*
X6447680Y7730814D01*
X6498071Y7680800D01*
X6513423Y7611484D01*
X6488862Y7544871D01*
X6447680Y7509187D01*
X6414426Y7491190D01*
X6414424Y7491189D01*
X6236762Y7352909D01*
X6084279Y7187271D01*
X6084275Y7187266D01*
X5961141Y6998794D01*
X5870703Y6792614D01*
X5870702Y6792613D01*
X5815437Y6574376D01*
X5796844Y6350000D01*
X5815437Y6125625D01*
X5870702Y5907388D01*
X5870703Y5907387D01*
X5870704Y5907384D01*
X5961140Y5701209D01*
X5961141Y5701207D01*
X6084275Y5512735D01*
X6084279Y5512730D01*
X6236762Y5347092D01*
X6291331Y5304619D01*
X6414424Y5208811D01*
X6447680Y5190814D01*
X6498071Y5140800D01*
X6513423Y5071484D01*
X6488862Y5004871D01*
X6447680Y4969187D01*
X6414426Y4951190D01*
X6414424Y4951189D01*
X6236762Y4812909D01*
X6187285Y4759162D01*
X6126431Y4722591D01*
X6094584Y4718500D01*
X4618503Y4718500D01*
X4550382Y4738502D01*
X4529408Y4755405D01*
X3945405Y5339408D01*
X3911379Y5401720D01*
X3908500Y5428503D01*
X3908500Y15081497D01*
X3928502Y15149618D01*
X3945405Y15170592D01*
X4339408Y15564595D01*
X4401720Y15598621D01*
X4428503Y15601500D01*
X6094584Y15601500D01*
X6162705Y15581498D01*
G37*
G04 #@! TD.AperFunction*
G04 #@! TA.AperFunction,Conductor*
G36*
X7414000Y11860703D02*
G01*
X7352993Y11895925D01*
X7225826Y11930000D01*
X7094174Y11930000D01*
X6967007Y11895925D01*
X6906000Y11860703D01*
X6906000Y13539298D01*
X6967007Y13504075D01*
X7094174Y13470000D01*
X7225826Y13470000D01*
X7352993Y13504075D01*
X7414000Y13539298D01*
X7414000Y11860703D01*
G37*
G04 #@! TD.AperFunction*
G04 #@! TA.AperFunction,Conductor*
G36*
X23035213Y34071498D02*
G01*
X23081706Y34017842D01*
X23092369Y33952025D01*
X23092000Y33948604D01*
X23092000Y33254000D01*
X24069297Y33254000D01*
X24034075Y33192993D01*
X24000000Y33065826D01*
X24000000Y32934174D01*
X24034075Y32807007D01*
X24069297Y32746000D01*
X23092000Y32746000D01*
X23092000Y32051403D01*
X23098505Y31990907D01*
X23149555Y31854036D01*
X23149555Y31854035D01*
X23237095Y31737096D01*
X23354034Y31649556D01*
X23490906Y31598506D01*
X23551402Y31592001D01*
X23551415Y31592000D01*
X24246000Y31592000D01*
X24246000Y32569298D01*
X24307007Y32534075D01*
X24434174Y32500000D01*
X24565826Y32500000D01*
X24692993Y32534075D01*
X24754000Y32569298D01*
X24754000Y31592000D01*
X25448585Y31592000D01*
X25448597Y31592001D01*
X25509093Y31598506D01*
X25645964Y31649556D01*
X25645965Y31649556D01*
X25762904Y31737096D01*
X25850444Y31854035D01*
X25850445Y31854037D01*
X25864413Y31891487D01*
X25906959Y31948323D01*
X25973479Y31973135D01*
X26042853Y31958044D01*
X26059860Y31946888D01*
X26226983Y31816810D01*
X26432273Y31705713D01*
X26653049Y31629920D01*
X26883288Y31591500D01*
X26883292Y31591500D01*
X27116708Y31591500D01*
X27116712Y31591500D01*
X27346951Y31629920D01*
X27567727Y31705713D01*
X27773017Y31816810D01*
X27957220Y31960182D01*
X27985505Y31990907D01*
X28041147Y32051351D01*
X28115314Y32131917D01*
X28144517Y32176617D01*
X28198519Y32222704D01*
X28268867Y32232280D01*
X28333225Y32202304D01*
X28355481Y32176618D01*
X28384685Y32131919D01*
X28384687Y32131916D01*
X28542774Y31960187D01*
X28542778Y31960183D01*
X28583117Y31928786D01*
X28726983Y31816810D01*
X28932273Y31705713D01*
X28932276Y31705712D01*
X29083859Y31653673D01*
X29141794Y31612636D01*
X29168346Y31546791D01*
X29155084Y31477044D01*
X29106220Y31425539D01*
X29042947Y31408500D01*
X28904513Y31408500D01*
X28717711Y31368794D01*
X28543247Y31291118D01*
X28388744Y31178865D01*
X28260965Y31036952D01*
X28260958Y31036942D01*
X28165476Y30871562D01*
X28165473Y30871556D01*
X28164576Y30868794D01*
X28106457Y30689928D01*
X28086496Y30500000D01*
X28106457Y30310073D01*
X28120822Y30265864D01*
X28165473Y30128444D01*
X28165476Y30128439D01*
X28260958Y29963059D01*
X28264843Y29957712D01*
X28263233Y29956543D01*
X28289853Y29901075D01*
X28291500Y29880771D01*
X28291500Y22014662D01*
X28271498Y21946541D01*
X28217842Y21900048D01*
X28147568Y21889944D01*
X28082988Y21919438D01*
X28076405Y21925567D01*
X18451648Y31550324D01*
X18451642Y31550329D01*
X18407330Y31579937D01*
X18335601Y31627865D01*
X18244427Y31665631D01*
X18244426Y31665632D01*
X18206669Y31681271D01*
X18206663Y31681273D01*
X18206662Y31681273D01*
X18138221Y31694887D01*
X18138220Y31694888D01*
X18069787Y31708500D01*
X18069782Y31708500D01*
X18069781Y31708500D01*
X7930219Y31708500D01*
X7930216Y31708500D01*
X7793337Y31681273D01*
X7793332Y31681271D01*
X7739930Y31659152D01*
X7739930Y31659151D01*
X7664400Y31627865D01*
X7664398Y31627864D01*
X7548362Y31550331D01*
X7548355Y31550326D01*
X4449676Y28451649D01*
X4449671Y28451643D01*
X4372133Y28335599D01*
X4361562Y28310075D01*
X4361561Y28310072D01*
X4318729Y28206668D01*
X4318727Y28206663D01*
X4291500Y28069784D01*
X4291500Y26220214D01*
X4317101Y26091508D01*
X4318726Y26083341D01*
X4318726Y26083340D01*
X4372135Y25954399D01*
X4449671Y25838358D01*
X4449676Y25838352D01*
X5788700Y24499329D01*
X5822725Y24437017D01*
X5821750Y24379306D01*
X5815437Y24354375D01*
X5796844Y24130000D01*
X5815437Y23905625D01*
X5870702Y23687388D01*
X5870703Y23687387D01*
X5961141Y23481207D01*
X6084275Y23292735D01*
X6084279Y23292730D01*
X6236762Y23127092D01*
X6291331Y23084619D01*
X6414424Y22988811D01*
X6447680Y22970814D01*
X6498071Y22920800D01*
X6513423Y22851484D01*
X6488862Y22784871D01*
X6447680Y22749187D01*
X6414426Y22731190D01*
X6414424Y22731189D01*
X6236762Y22592909D01*
X6084279Y22427271D01*
X6084275Y22427266D01*
X5961141Y22238794D01*
X5870703Y22032614D01*
X5870702Y22032613D01*
X5815437Y21814376D01*
X5815436Y21814370D01*
X5815436Y21814368D01*
X5796844Y21590000D01*
X5814945Y21371555D01*
X5815437Y21365625D01*
X5870702Y21147388D01*
X5870703Y21147387D01*
X5961141Y20941207D01*
X6084275Y20752735D01*
X6084279Y20752730D01*
X6236762Y20587092D01*
X6291331Y20544619D01*
X6414424Y20448811D01*
X6447680Y20430814D01*
X6498071Y20380800D01*
X6513423Y20311484D01*
X6488862Y20244871D01*
X6447680Y20209187D01*
X6414426Y20191190D01*
X6414424Y20191189D01*
X6236762Y20052909D01*
X6084279Y19887271D01*
X6084275Y19887266D01*
X5961141Y19698794D01*
X5870703Y19492614D01*
X5870702Y19492613D01*
X5815437Y19274376D01*
X5815436Y19274370D01*
X5815436Y19274368D01*
X5796844Y19050000D01*
X5811859Y18868794D01*
X5815437Y18825625D01*
X5870702Y18607388D01*
X5870703Y18607387D01*
X5870704Y18607384D01*
X5948364Y18430336D01*
X5961141Y18401207D01*
X6084275Y18212735D01*
X6084279Y18212730D01*
X6236762Y18047092D01*
X6244530Y18041046D01*
X6414424Y17908811D01*
X6447680Y17890814D01*
X6498071Y17840800D01*
X6513423Y17771484D01*
X6488862Y17704871D01*
X6447680Y17669187D01*
X6414426Y17651190D01*
X6414424Y17651189D01*
X6236762Y17512909D01*
X6206765Y17480324D01*
X6190870Y17463056D01*
X6187285Y17459162D01*
X6126431Y17422591D01*
X6094584Y17418500D01*
X4428503Y17418500D01*
X4360382Y17438502D01*
X4339408Y17455405D01*
X3945405Y17849408D01*
X3911379Y17911720D01*
X3908500Y17938503D01*
X3908500Y28571497D01*
X3928502Y28639618D01*
X3945405Y28660592D01*
X9339408Y34054595D01*
X9401720Y34088621D01*
X9428503Y34091500D01*
X16904513Y34091500D01*
X16910521Y34091500D01*
X22967092Y34091500D01*
X23035213Y34071498D01*
G37*
G04 #@! TD.AperFunction*
G04 #@! TA.AperFunction,Conductor*
G36*
X10731885Y29271498D02*
G01*
X10778378Y29217842D01*
X10788482Y29147568D01*
X10758988Y29082988D01*
X10716670Y29051146D01*
X10448234Y28926954D01*
X10448227Y28926950D01*
X10140867Y28742018D01*
X10140861Y28742014D01*
X9855299Y28524933D01*
X9844502Y28514707D01*
X11062577Y27296632D01*
X10957670Y27220412D01*
X10779588Y27042330D01*
X10703368Y26937423D01*
X9488168Y28152623D01*
X9362654Y28004855D01*
X9161352Y27707957D01*
X9161350Y27707953D01*
X8993330Y27391031D01*
X8993326Y27391022D01*
X8860559Y27057802D01*
X8765907Y26716896D01*
X8728410Y26656610D01*
X8664272Y26626166D01*
X8593856Y26635231D01*
X8539520Y26680926D01*
X8518514Y26748744D01*
X8518500Y26750605D01*
X8518500Y27568633D01*
X8518499Y27568650D01*
X8511990Y27629197D01*
X8511988Y27629205D01*
X8460889Y27766203D01*
X8460887Y27766208D01*
X8373261Y27883262D01*
X8256207Y27970888D01*
X8256204Y27970889D01*
X8233528Y27979347D01*
X8176693Y28021895D01*
X8151883Y28088415D01*
X8166975Y28157789D01*
X8188464Y28186494D01*
X9256566Y29254595D01*
X9318878Y29288621D01*
X9345661Y29291500D01*
X10663764Y29291500D01*
X10731885Y29271498D01*
G37*
G04 #@! TD.AperFunction*
G04 #@! TA.AperFunction,Conductor*
G36*
X105505368Y49954498D02*
G01*
X105526342Y49937595D01*
X106937595Y48526343D01*
X106971620Y48464031D01*
X106974500Y48437248D01*
X106974500Y-28437247D01*
X106954498Y-28505368D01*
X106937595Y-28526342D01*
X105526342Y-29937595D01*
X105464030Y-29971621D01*
X105437247Y-29974500D01*
X1562752Y-29974500D01*
X1494631Y-29954498D01*
X1473657Y-29937595D01*
X62405Y-28526342D01*
X28379Y-28464030D01*
X25500Y-28437247D01*
X25500Y29089482D01*
X2091500Y29089482D01*
X2091500Y17420519D01*
X2126413Y17245000D01*
X2126415Y17244995D01*
X2132126Y17231207D01*
X2194897Y17079664D01*
X2248127Y17000000D01*
X2294321Y16930866D01*
X2294326Y16930860D01*
X2626091Y16599095D01*
X2660117Y16536783D01*
X2655052Y16465968D01*
X2626091Y16420905D01*
X2294326Y16089141D01*
X2294321Y16089135D01*
X2194897Y15940336D01*
X2126415Y15775006D01*
X2126413Y15775001D01*
X2091500Y15599482D01*
X2091500Y4910519D01*
X2118515Y4774704D01*
X2126413Y4735000D01*
X2194897Y4569664D01*
X2261330Y4470240D01*
X2294321Y4420866D01*
X2294326Y4420860D01*
X2721091Y3994095D01*
X2755117Y3931783D01*
X2750052Y3860968D01*
X2721091Y3815905D01*
X2294326Y3389141D01*
X2294321Y3389135D01*
X2194897Y3240336D01*
X2126415Y3075006D01*
X2126413Y3075001D01*
X2091500Y2899482D01*
X2091500Y2899479D01*
X2091500Y-7910521D01*
X2091500Y-8089479D01*
X2126413Y-8265000D01*
X2194897Y-8430336D01*
X2261330Y-8529760D01*
X2294321Y-8579134D01*
X2294326Y-8579140D01*
X2571091Y-8855905D01*
X2605117Y-8918217D01*
X2600052Y-8989032D01*
X2571091Y-9034095D01*
X2294326Y-9310859D01*
X2294321Y-9310865D01*
X2194897Y-9459664D01*
X2134448Y-9605601D01*
X2134447Y-9605602D01*
X2126415Y-9624992D01*
X2091500Y-9800518D01*
X2091500Y-9800521D01*
X2091500Y-19910521D01*
X2091500Y-20089479D01*
X2126413Y-20265000D01*
X2194897Y-20430336D01*
X2222758Y-20472032D01*
X2294321Y-20579134D01*
X2294326Y-20579140D01*
X4010859Y-22295673D01*
X4010865Y-22295678D01*
X4159664Y-22395103D01*
X4254015Y-22434184D01*
X4325000Y-22463587D01*
X4500521Y-22498500D01*
X6094584Y-22498500D01*
X6162705Y-22518502D01*
X6187282Y-22539160D01*
X6236760Y-22592906D01*
X6236762Y-22592908D01*
X6285140Y-22630562D01*
X6414424Y-22731189D01*
X6448205Y-22749470D01*
X6498596Y-22799482D01*
X6513949Y-22868799D01*
X6489389Y-22935412D01*
X6448209Y-22971096D01*
X6414704Y-22989228D01*
X6414698Y-22989232D01*
X6237097Y-23127465D01*
X6084674Y-23293041D01*
X5961580Y-23481451D01*
X5871179Y-23687543D01*
X5871176Y-23687550D01*
X5823455Y-23875999D01*
X5823456Y-23876000D01*
X6729297Y-23876000D01*
X6694075Y-23937007D01*
X6660000Y-24064174D01*
X6660000Y-24195826D01*
X6694075Y-24322993D01*
X6729297Y-24384000D01*
X5823455Y-24384000D01*
X5871176Y-24572449D01*
X5871179Y-24572456D01*
X5961580Y-24778548D01*
X6084674Y-24966958D01*
X6237097Y-25132534D01*
X6414698Y-25270767D01*
X6414699Y-25270768D01*
X6448734Y-25289187D01*
X6499123Y-25339201D01*
X6514475Y-25408518D01*
X6489913Y-25475130D01*
X6448734Y-25510813D01*
X6414699Y-25529231D01*
X6414698Y-25529232D01*
X6237097Y-25667465D01*
X6084674Y-25833041D01*
X5961580Y-26021451D01*
X5871179Y-26227543D01*
X5871176Y-26227550D01*
X5823455Y-26415999D01*
X5823456Y-26416000D01*
X6729297Y-26416000D01*
X6694075Y-26477007D01*
X6660000Y-26604174D01*
X6660000Y-26735826D01*
X6694075Y-26862993D01*
X6729297Y-26924000D01*
X5823455Y-26924000D01*
X5871176Y-27112449D01*
X5871179Y-27112456D01*
X5961580Y-27318548D01*
X6084674Y-27506958D01*
X6237097Y-27672534D01*
X6414698Y-27810767D01*
X6414699Y-27810768D01*
X6612628Y-27917882D01*
X6612630Y-27917883D01*
X6825483Y-27990955D01*
X6825492Y-27990957D01*
X6906000Y-28004391D01*
X6906000Y-27100702D01*
X6967007Y-27135925D01*
X7094174Y-27170000D01*
X7225826Y-27170000D01*
X7352993Y-27135925D01*
X7414000Y-27100702D01*
X7414000Y-28004390D01*
X7494507Y-27990957D01*
X7494516Y-27990955D01*
X7707369Y-27917883D01*
X7707371Y-27917882D01*
X7905300Y-27810768D01*
X7905301Y-27810767D01*
X8082902Y-27672534D01*
X8235325Y-27506958D01*
X8358419Y-27318548D01*
X8448820Y-27112456D01*
X8448823Y-27112449D01*
X8496544Y-26924000D01*
X7590703Y-26924000D01*
X7625925Y-26862993D01*
X7660000Y-26735826D01*
X7660000Y-26604174D01*
X7625925Y-26477007D01*
X7590703Y-26416000D01*
X8496543Y-26416000D01*
X8500731Y-26410619D01*
X8558356Y-26369148D01*
X8629255Y-26365414D01*
X8690917Y-26400604D01*
X8723765Y-26463545D01*
X8724503Y-26467625D01*
X8764593Y-26712163D01*
X8860559Y-27057801D01*
X8993326Y-27391021D01*
X8993330Y-27391030D01*
X9161350Y-27707952D01*
X9161352Y-27707956D01*
X9362654Y-28004854D01*
X9488167Y-28152621D01*
X10703367Y-26937421D01*
X10779588Y-27042330D01*
X10957670Y-27220412D01*
X11062576Y-27296631D01*
X9844502Y-28514705D01*
X9844502Y-28514706D01*
X9855297Y-28524932D01*
X9855300Y-28524934D01*
X10140849Y-28742005D01*
X10140867Y-28742017D01*
X10448227Y-28926949D01*
X10448234Y-28926953D01*
X10773766Y-29077561D01*
X10773785Y-29077569D01*
X11113706Y-29192101D01*
X11113723Y-29192106D01*
X11464022Y-29269213D01*
X11464050Y-29269218D01*
X11820637Y-29307999D01*
X11820653Y-29308000D01*
X12179347Y-29308000D01*
X12179362Y-29307999D01*
X12535949Y-29269218D01*
X12535977Y-29269213D01*
X12886276Y-29192106D01*
X12886293Y-29192101D01*
X13226214Y-29077569D01*
X13226233Y-29077561D01*
X13551765Y-28926953D01*
X13551772Y-28926949D01*
X13859132Y-28742017D01*
X13859138Y-28742013D01*
X14144701Y-28524932D01*
X14155495Y-28514706D01*
X14155495Y-28514704D01*
X12937422Y-27296631D01*
X13042330Y-27220412D01*
X13220412Y-27042330D01*
X13296631Y-26937422D01*
X14511830Y-28152621D01*
X14511831Y-28152621D01*
X14637340Y-28004862D01*
X14637342Y-28004858D01*
X14838647Y-27707956D01*
X14838649Y-27707952D01*
X15006669Y-27391030D01*
X15006673Y-27391021D01*
X15139440Y-27057801D01*
X15235407Y-26712162D01*
X15293438Y-26358183D01*
X15312859Y-26000003D01*
X15312859Y-25999996D01*
X15293438Y-25641816D01*
X15235407Y-25287837D01*
X15139440Y-24942198D01*
X15006673Y-24608978D01*
X15006669Y-24608969D01*
X14838649Y-24292047D01*
X14838647Y-24292043D01*
X14637348Y-23995150D01*
X14511830Y-23847378D01*
X13296631Y-25062577D01*
X13220412Y-24957670D01*
X13042330Y-24779588D01*
X12937422Y-24703367D01*
X14155496Y-23485293D01*
X14155496Y-23485292D01*
X14144702Y-23475067D01*
X14144699Y-23475065D01*
X13859150Y-23257994D01*
X13859132Y-23257982D01*
X13551772Y-23073050D01*
X13551765Y-23073046D01*
X13226233Y-22922438D01*
X13226214Y-22922430D01*
X12886293Y-22807898D01*
X12886276Y-22807893D01*
X12535977Y-22730786D01*
X12535949Y-22730781D01*
X12179362Y-22692000D01*
X11820637Y-22692000D01*
X11464050Y-22730781D01*
X11464022Y-22730786D01*
X11113723Y-22807893D01*
X11113706Y-22807898D01*
X10773785Y-22922430D01*
X10773766Y-22922438D01*
X10448234Y-23073046D01*
X10448227Y-23073050D01*
X10140867Y-23257982D01*
X10140861Y-23257986D01*
X9855299Y-23475067D01*
X9844502Y-23485293D01*
X11062577Y-24703368D01*
X10957670Y-24779588D01*
X10779588Y-24957670D01*
X10703368Y-25062577D01*
X9488168Y-23847377D01*
X9362654Y-23995145D01*
X9161352Y-24292043D01*
X9161350Y-24292047D01*
X8993330Y-24608969D01*
X8993326Y-24608978D01*
X8860559Y-24942198D01*
X8764592Y-25287837D01*
X8706561Y-25641816D01*
X8687141Y-25999996D01*
X8687141Y-26000004D01*
X8697608Y-26193061D01*
X8681323Y-26262164D01*
X8630263Y-26311494D01*
X8560640Y-26325387D01*
X8494557Y-26299434D01*
X8452996Y-26241873D01*
X8449647Y-26230808D01*
X8448820Y-26227541D01*
X8358419Y-26021451D01*
X8235325Y-25833041D01*
X8082902Y-25667465D01*
X7905301Y-25529232D01*
X7905300Y-25529231D01*
X7871267Y-25510814D01*
X7820876Y-25460801D01*
X7805524Y-25391484D01*
X7830085Y-25324871D01*
X7871267Y-25289186D01*
X7905300Y-25270768D01*
X7905301Y-25270767D01*
X8082902Y-25132534D01*
X8235325Y-24966958D01*
X8358419Y-24778548D01*
X8448820Y-24572456D01*
X8448823Y-24572449D01*
X8496544Y-24384000D01*
X7590703Y-24384000D01*
X7625925Y-24322993D01*
X7660000Y-24195826D01*
X7660000Y-24064174D01*
X7625925Y-23937007D01*
X7590703Y-23876000D01*
X8496544Y-23876000D01*
X8496544Y-23875999D01*
X8448823Y-23687550D01*
X8448820Y-23687543D01*
X8358419Y-23481451D01*
X8235325Y-23293041D01*
X8082902Y-23127465D01*
X7905301Y-22989232D01*
X7905300Y-22989231D01*
X7871791Y-22971097D01*
X7821401Y-22921083D01*
X7806050Y-22851766D01*
X7830612Y-22785153D01*
X7871790Y-22749472D01*
X7905576Y-22731189D01*
X8083240Y-22592906D01*
X8235722Y-22427268D01*
X8358860Y-22238791D01*
X8449296Y-22032616D01*
X8504564Y-21814368D01*
X8523156Y-21590000D01*
X8504564Y-21365632D01*
X8449296Y-21147384D01*
X8358860Y-20941209D01*
X8324726Y-20888963D01*
X8235724Y-20752734D01*
X8235720Y-20752729D01*
X8083237Y-20587091D01*
X7945774Y-20480099D01*
X7905576Y-20448811D01*
X7903327Y-20447594D01*
X7872320Y-20430814D01*
X7821929Y-20380802D01*
X7806576Y-20311485D01*
X7831136Y-20244872D01*
X7872320Y-20209186D01*
X7905576Y-20191189D01*
X8083240Y-20052906D01*
X8235722Y-19887268D01*
X8358860Y-19698791D01*
X8449296Y-19492616D01*
X8504564Y-19274368D01*
X8523156Y-19050000D01*
X8504564Y-18825632D01*
X8504562Y-18825624D01*
X8449297Y-18607387D01*
X8449296Y-18607386D01*
X8449296Y-18607384D01*
X8358860Y-18401209D01*
X8333594Y-18362537D01*
X8235724Y-18212734D01*
X8235720Y-18212729D01*
X8083237Y-18047091D01*
X8001382Y-17983381D01*
X7905576Y-17908811D01*
X7872319Y-17890813D01*
X7821929Y-17840802D01*
X7806576Y-17771485D01*
X7831136Y-17704872D01*
X7853616Y-17685393D01*
X23592000Y-17685393D01*
X23592000Y-18746000D01*
X24630932Y-18746000D01*
X24600000Y-18901509D01*
X24600000Y-19098491D01*
X24630932Y-19254000D01*
X23592000Y-19254000D01*
X23592000Y-20314606D01*
X23602467Y-20447594D01*
X23657794Y-20667167D01*
X23657797Y-20667176D01*
X23751441Y-20873340D01*
X23751444Y-20873346D01*
X23880394Y-21059473D01*
X23880408Y-21059490D01*
X24040509Y-21219591D01*
X24040526Y-21219605D01*
X24226653Y-21348555D01*
X24226659Y-21348558D01*
X24432823Y-21442202D01*
X24432832Y-21442205D01*
X24652405Y-21497532D01*
X24785393Y-21508000D01*
X25346000Y-21508000D01*
X25346000Y-19969067D01*
X25501509Y-20000000D01*
X25698491Y-20000000D01*
X25854000Y-19969067D01*
X25854000Y-21508000D01*
X26414607Y-21508000D01*
X26547594Y-21497532D01*
X26767167Y-21442205D01*
X26767176Y-21442202D01*
X26973340Y-21348558D01*
X26973346Y-21348555D01*
X27159473Y-21219605D01*
X27159490Y-21219591D01*
X27319591Y-21059490D01*
X27319605Y-21059473D01*
X27448555Y-20873346D01*
X27448558Y-20873340D01*
X27542202Y-20667176D01*
X27542205Y-20667167D01*
X27597532Y-20447594D01*
X27608000Y-20314606D01*
X27608000Y-19254000D01*
X26569068Y-19254000D01*
X26600000Y-19098491D01*
X26600000Y-18901509D01*
X26569068Y-18746000D01*
X27608000Y-18746000D01*
X27608000Y-17685393D01*
X27597532Y-17552405D01*
X27542205Y-17332832D01*
X27542202Y-17332823D01*
X27448558Y-17126659D01*
X27448555Y-17126653D01*
X27319605Y-16940526D01*
X27319591Y-16940509D01*
X27159490Y-16780408D01*
X27159473Y-16780394D01*
X26973346Y-16651444D01*
X26973340Y-16651441D01*
X26767176Y-16557797D01*
X26767167Y-16557794D01*
X26547594Y-16502467D01*
X26414607Y-16492000D01*
X25854000Y-16492000D01*
X25854000Y-18030932D01*
X25698491Y-18000000D01*
X25501509Y-18000000D01*
X25346000Y-18030932D01*
X25346000Y-16492000D01*
X24785393Y-16492000D01*
X24652405Y-16502467D01*
X24432832Y-16557794D01*
X24432823Y-16557797D01*
X24226659Y-16651441D01*
X24226653Y-16651444D01*
X24040526Y-16780394D01*
X24040509Y-16780408D01*
X23880408Y-16940509D01*
X23880394Y-16940526D01*
X23751444Y-17126653D01*
X23751441Y-17126659D01*
X23657797Y-17332823D01*
X23657794Y-17332832D01*
X23602467Y-17552405D01*
X23592000Y-17685393D01*
X7853616Y-17685393D01*
X7872320Y-17669186D01*
X7905576Y-17651189D01*
X8083240Y-17512906D01*
X8235722Y-17347268D01*
X8358860Y-17158791D01*
X8449296Y-16952616D01*
X8504564Y-16734368D01*
X8523156Y-16510000D01*
X8504564Y-16285632D01*
X8449296Y-16067384D01*
X8358860Y-15861209D01*
X8315408Y-15794700D01*
X8235724Y-15672734D01*
X8235720Y-15672729D01*
X8083237Y-15507091D01*
X8001382Y-15443381D01*
X7905576Y-15368811D01*
X7871792Y-15350528D01*
X7821402Y-15300516D01*
X7806050Y-15231199D01*
X7830610Y-15164586D01*
X7871793Y-15128901D01*
X7905300Y-15110767D01*
X7905301Y-15110767D01*
X8082902Y-14972534D01*
X8235325Y-14806958D01*
X8358419Y-14618548D01*
X8448820Y-14412456D01*
X8448823Y-14412449D01*
X8496544Y-14224000D01*
X7590703Y-14224000D01*
X7625925Y-14162993D01*
X7660000Y-14035826D01*
X7660000Y-13904174D01*
X7625925Y-13777007D01*
X7590703Y-13716000D01*
X8496544Y-13716000D01*
X8496544Y-13715999D01*
X8448823Y-13527550D01*
X8448820Y-13527543D01*
X8358419Y-13321451D01*
X8235325Y-13133041D01*
X8082902Y-12967465D01*
X7905301Y-12829232D01*
X7905300Y-12829231D01*
X7871267Y-12810814D01*
X7820876Y-12760801D01*
X7805524Y-12691484D01*
X7830085Y-12624871D01*
X7871267Y-12589186D01*
X7905300Y-12570768D01*
X7905301Y-12570767D01*
X8082902Y-12432534D01*
X8235325Y-12266958D01*
X8358419Y-12078548D01*
X8448820Y-11872456D01*
X8448823Y-11872449D01*
X8496544Y-11684000D01*
X7590703Y-11684000D01*
X7625925Y-11622993D01*
X7660000Y-11495826D01*
X7660000Y-11364174D01*
X7625925Y-11237007D01*
X7590703Y-11176000D01*
X8496544Y-11176000D01*
X8496544Y-11175999D01*
X8448823Y-10987550D01*
X8448820Y-10987543D01*
X8358419Y-10781451D01*
X8235325Y-10593041D01*
X8082902Y-10427465D01*
X7905301Y-10289232D01*
X7905300Y-10289231D01*
X7871791Y-10271097D01*
X7821401Y-10221083D01*
X7806050Y-10151766D01*
X7830612Y-10085153D01*
X7871790Y-10049472D01*
X7905576Y-10031189D01*
X8083240Y-9892906D01*
X8235722Y-9727268D01*
X8358860Y-9538791D01*
X8449296Y-9332616D01*
X8504564Y-9114368D01*
X8523156Y-8890000D01*
X8504564Y-8665632D01*
X8449296Y-8447384D01*
X8358860Y-8241209D01*
X8352140Y-8230924D01*
X8235724Y-8052734D01*
X8235720Y-8052729D01*
X8083237Y-7887091D01*
X8001382Y-7823381D01*
X7905576Y-7748811D01*
X7872319Y-7730813D01*
X7821929Y-7680802D01*
X7806576Y-7611485D01*
X7831136Y-7544872D01*
X7872320Y-7509186D01*
X7905576Y-7491189D01*
X8083240Y-7352906D01*
X8235722Y-7187268D01*
X8358860Y-6998791D01*
X8449296Y-6792616D01*
X8504564Y-6574368D01*
X8523156Y-6350000D01*
X8504564Y-6125632D01*
X8449296Y-5907384D01*
X8358860Y-5701209D01*
X8352140Y-5690924D01*
X8235724Y-5512734D01*
X8235719Y-5512729D01*
X8092524Y-5357179D01*
X8061103Y-5293514D01*
X8069090Y-5222968D01*
X8113948Y-5167939D01*
X8141183Y-5153789D01*
X8256204Y-5110889D01*
X8373261Y-5023261D01*
X8460889Y-4906204D01*
X8511989Y-4769201D01*
X8518500Y-4708638D01*
X8518500Y-2911362D01*
X8518499Y-2911350D01*
X8511990Y-2850803D01*
X8511988Y-2850795D01*
X8460889Y-2713797D01*
X8460887Y-2713792D01*
X8373261Y-2596738D01*
X8256207Y-2509112D01*
X8256202Y-2509110D01*
X8119204Y-2458011D01*
X8119196Y-2458009D01*
X8058649Y-2451500D01*
X8058638Y-2451500D01*
X6261362Y-2451500D01*
X6261350Y-2451500D01*
X6200803Y-2458009D01*
X6200795Y-2458011D01*
X6063797Y-2509110D01*
X6063792Y-2509112D01*
X5946738Y-2596738D01*
X5859112Y-2713792D01*
X5859110Y-2713797D01*
X5808011Y-2850795D01*
X5808009Y-2850803D01*
X5801500Y-2911350D01*
X5801500Y-4708649D01*
X5808009Y-4769196D01*
X5808011Y-4769204D01*
X5859110Y-4906202D01*
X5859112Y-4906207D01*
X5946738Y-5023261D01*
X6063791Y-5110886D01*
X6063792Y-5110886D01*
X6063796Y-5110889D01*
X6178810Y-5153787D01*
X6235642Y-5196332D01*
X6260453Y-5262852D01*
X6245362Y-5332226D01*
X6227475Y-5357179D01*
X6084280Y-5512729D01*
X6084275Y-5512734D01*
X5961141Y-5701206D01*
X5870703Y-5907386D01*
X5870702Y-5907387D01*
X5815437Y-6125624D01*
X5796844Y-6350000D01*
X5815437Y-6574375D01*
X5870702Y-6792612D01*
X5870703Y-6792613D01*
X5961141Y-6998793D01*
X6084275Y-7187265D01*
X6084279Y-7187270D01*
X6236762Y-7352908D01*
X6291331Y-7395381D01*
X6414424Y-7491189D01*
X6447680Y-7509186D01*
X6498071Y-7559200D01*
X6513423Y-7628516D01*
X6488862Y-7695129D01*
X6447680Y-7730813D01*
X6414426Y-7748810D01*
X6414424Y-7748811D01*
X6236762Y-7887091D01*
X6187285Y-7940838D01*
X6126431Y-7977409D01*
X6094584Y-7981500D01*
X4318503Y-7981500D01*
X4250382Y-7961498D01*
X4229408Y-7944595D01*
X3945405Y-7660592D01*
X3911379Y-7598280D01*
X3908500Y-7571497D01*
X3908500Y2381497D01*
X3928502Y2449618D01*
X3945405Y2470592D01*
X4339408Y2864595D01*
X4401720Y2898621D01*
X4428503Y2901500D01*
X6094584Y2901500D01*
X6162705Y2881498D01*
X6187285Y2860838D01*
X6236762Y2807092D01*
X6271062Y2780395D01*
X6414424Y2668811D01*
X6612426Y2561658D01*
X6612427Y2561658D01*
X6612428Y2561657D01*
X6724227Y2523277D01*
X6825365Y2488556D01*
X7047431Y2451500D01*
X7047435Y2451500D01*
X7272565Y2451500D01*
X7272569Y2451500D01*
X7494635Y2488556D01*
X7707574Y2561658D01*
X7905576Y2668811D01*
X8083240Y2807094D01*
X8235722Y2972732D01*
X8358860Y3161209D01*
X8449296Y3367384D01*
X8504564Y3585632D01*
X8523156Y3810000D01*
X8504564Y4034368D01*
X8449296Y4252616D01*
X8358860Y4458791D01*
X8291466Y4561946D01*
X8235724Y4647266D01*
X8235720Y4647271D01*
X8083237Y4812909D01*
X8001382Y4876619D01*
X7905576Y4951189D01*
X7872319Y4969187D01*
X7821929Y5019198D01*
X7806576Y5088515D01*
X7831136Y5155128D01*
X7872320Y5190814D01*
X7905576Y5208811D01*
X8083240Y5347094D01*
X8235722Y5512732D01*
X8358860Y5701209D01*
X8449296Y5907384D01*
X8504564Y6125632D01*
X8523156Y6350000D01*
X8504564Y6574368D01*
X8482485Y6661556D01*
X8449297Y6792613D01*
X8449296Y6792614D01*
X8449296Y6792616D01*
X8358860Y6998791D01*
X8312478Y7069784D01*
X8235724Y7187266D01*
X8235720Y7187271D01*
X8119570Y7313441D01*
X8083240Y7352906D01*
X8083239Y7352907D01*
X8083237Y7352909D01*
X8001382Y7416619D01*
X7905576Y7491189D01*
X7872319Y7509187D01*
X7821929Y7559198D01*
X7806576Y7628515D01*
X7831136Y7695128D01*
X7872320Y7730814D01*
X7905576Y7748811D01*
X8083240Y7887094D01*
X8235722Y8052732D01*
X8358860Y8241209D01*
X8449296Y8447384D01*
X8504564Y8665632D01*
X8523156Y8890000D01*
X8504564Y9114368D01*
X8449296Y9332616D01*
X8358860Y9538791D01*
X8352140Y9549076D01*
X8235724Y9727266D01*
X8235720Y9727271D01*
X8083237Y9892909D01*
X7978472Y9974451D01*
X7905576Y10031189D01*
X7871792Y10049472D01*
X7821402Y10099484D01*
X7806050Y10168801D01*
X7830610Y10235414D01*
X7871793Y10271099D01*
X7905300Y10289233D01*
X7905301Y10289233D01*
X8082902Y10427466D01*
X8235325Y10593042D01*
X8358419Y10781452D01*
X8448820Y10987544D01*
X8448823Y10987551D01*
X8496544Y11176000D01*
X7590703Y11176000D01*
X7625925Y11237007D01*
X7660000Y11364174D01*
X7660000Y11495826D01*
X7625925Y11622993D01*
X7590703Y11684000D01*
X8496544Y11684000D01*
X8496544Y11684001D01*
X8448823Y11872450D01*
X8448820Y11872457D01*
X8358419Y12078549D01*
X8235325Y12266959D01*
X8082902Y12432535D01*
X7905301Y12570768D01*
X7905300Y12570769D01*
X7871267Y12589186D01*
X7820876Y12639199D01*
X7805524Y12708516D01*
X7830085Y12775129D01*
X7871267Y12810814D01*
X7905300Y12829232D01*
X7905301Y12829233D01*
X8082902Y12967466D01*
X8235325Y13133042D01*
X8358419Y13321452D01*
X8448820Y13527544D01*
X8448823Y13527551D01*
X8496544Y13716000D01*
X7590703Y13716000D01*
X7625925Y13777007D01*
X7660000Y13904174D01*
X7660000Y14000000D01*
X14586496Y14000000D01*
X14606457Y13810073D01*
X14636526Y13717530D01*
X14665473Y13628444D01*
X14665476Y13628439D01*
X14760958Y13463059D01*
X14764843Y13457712D01*
X14763233Y13456543D01*
X14789853Y13401075D01*
X14791500Y13380771D01*
X14791500Y119230D01*
X14771498Y51109D01*
X14764791Y42324D01*
X14764842Y42287D01*
X14760957Y36941D01*
X14665476Y-128438D01*
X14665473Y-128445D01*
X14606457Y-310072D01*
X14586496Y-500000D01*
X14606457Y-689927D01*
X14631695Y-767599D01*
X14665473Y-871556D01*
X14665476Y-871561D01*
X14760958Y-1036941D01*
X14760965Y-1036951D01*
X14888744Y-1178864D01*
X14888747Y-1178866D01*
X15043248Y-1291118D01*
X15217712Y-1368794D01*
X15404513Y-1408500D01*
X15595487Y-1408500D01*
X15782288Y-1368794D01*
X15956752Y-1291118D01*
X16111253Y-1178866D01*
X16239040Y-1036944D01*
X16334527Y-871556D01*
X16393542Y-689928D01*
X16413504Y-500000D01*
X16393542Y-310072D01*
X16334527Y-128444D01*
X16256921Y5973D01*
X16239042Y36941D01*
X16235158Y42287D01*
X16236763Y43454D01*
X16210144Y98945D01*
X16208500Y119230D01*
X16208500Y13380771D01*
X16228502Y13448892D01*
X16235208Y13457675D01*
X16235157Y13457712D01*
X16239033Y13463050D01*
X16239040Y13463056D01*
X16334527Y13628444D01*
X16393542Y13810072D01*
X16413504Y14000000D01*
X16393542Y14189928D01*
X16334527Y14371556D01*
X16260370Y14500000D01*
X17586496Y14500000D01*
X17606457Y14310073D01*
X17633835Y14225814D01*
X17665473Y14128444D01*
X17665476Y14128439D01*
X17760961Y13963054D01*
X17819135Y13898447D01*
X17849853Y13834439D01*
X17851500Y13814135D01*
X17851500Y-9880770D01*
X17831498Y-9948891D01*
X17824791Y-9957676D01*
X17824842Y-9957713D01*
X17820957Y-9963059D01*
X17725476Y-10128438D01*
X17725473Y-10128445D01*
X17666457Y-10310072D01*
X17646496Y-10500000D01*
X17666457Y-10689927D01*
X17682417Y-10739044D01*
X17725473Y-10871556D01*
X17725476Y-10871561D01*
X17820958Y-11036941D01*
X17820965Y-11036951D01*
X17948744Y-11178864D01*
X17948747Y-11178866D01*
X18103248Y-11291118D01*
X18277712Y-11368794D01*
X18464513Y-11408500D01*
X18655487Y-11408500D01*
X18842288Y-11368794D01*
X19016752Y-11291118D01*
X19171253Y-11178866D01*
X19173834Y-11176000D01*
X19299034Y-11036951D01*
X19299035Y-11036949D01*
X19299040Y-11036944D01*
X19394527Y-10871556D01*
X19453542Y-10689928D01*
X19473504Y-10500000D01*
X19453542Y-10310072D01*
X19394527Y-10128444D01*
X19299040Y-9963056D01*
X19299039Y-9963054D01*
X19295158Y-9957713D01*
X19296763Y-9956546D01*
X19270144Y-9901055D01*
X19268500Y-9880770D01*
X19268500Y6314607D01*
X23592000Y6314607D01*
X23592000Y5254000D01*
X24630932Y5254000D01*
X24600000Y5098491D01*
X24600000Y4901509D01*
X24630932Y4746000D01*
X23592000Y4746000D01*
X23592000Y3685394D01*
X23602467Y3552406D01*
X23657794Y3332833D01*
X23657797Y3332824D01*
X23751441Y3126660D01*
X23751444Y3126654D01*
X23880394Y2940527D01*
X23880408Y2940510D01*
X24040509Y2780409D01*
X24040526Y2780395D01*
X24226653Y2651445D01*
X24226659Y2651442D01*
X24432823Y2557798D01*
X24432832Y2557795D01*
X24652405Y2502468D01*
X24785393Y2492000D01*
X25346000Y2492000D01*
X25346000Y4030933D01*
X25501509Y4000000D01*
X25698491Y4000000D01*
X25854000Y4030933D01*
X25854000Y2492000D01*
X26414607Y2492000D01*
X26547594Y2502468D01*
X26767167Y2557795D01*
X26767176Y2557798D01*
X26973340Y2651442D01*
X26973346Y2651445D01*
X27159473Y2780395D01*
X27159490Y2780409D01*
X27319591Y2940510D01*
X27319605Y2940527D01*
X27448555Y3126654D01*
X27448558Y3126660D01*
X27542202Y3332824D01*
X27542205Y3332833D01*
X27597532Y3552406D01*
X27608000Y3685394D01*
X27608000Y4746000D01*
X26569068Y4746000D01*
X26600000Y4901509D01*
X26600000Y5098491D01*
X26569068Y5254000D01*
X27608000Y5254000D01*
X27608000Y6314607D01*
X27597532Y6447595D01*
X27542205Y6667168D01*
X27542202Y6667177D01*
X27448558Y6873341D01*
X27448555Y6873347D01*
X27319605Y7059474D01*
X27319591Y7059491D01*
X27159490Y7219592D01*
X27159473Y7219606D01*
X26973346Y7348556D01*
X26973340Y7348559D01*
X26767176Y7442203D01*
X26767167Y7442206D01*
X26547594Y7497533D01*
X26414607Y7508000D01*
X25854000Y7508000D01*
X25854000Y5969068D01*
X25698491Y6000000D01*
X25501509Y6000000D01*
X25346000Y5969068D01*
X25346000Y7508000D01*
X24785393Y7508000D01*
X24652405Y7497533D01*
X24432832Y7442206D01*
X24432823Y7442203D01*
X24226659Y7348559D01*
X24226653Y7348556D01*
X24040526Y7219606D01*
X24040509Y7219592D01*
X23880408Y7059491D01*
X23880394Y7059474D01*
X23751444Y6873347D01*
X23751441Y6873341D01*
X23657797Y6667177D01*
X23657794Y6667168D01*
X23602467Y6447595D01*
X23592000Y6314607D01*
X19268500Y6314607D01*
X19268500Y13980322D01*
X19285382Y14043323D01*
X19334524Y14128439D01*
X19334523Y14128439D01*
X19334527Y14128444D01*
X19393542Y14310072D01*
X19413504Y14500000D01*
X19393542Y14689928D01*
X19334527Y14871556D01*
X19239040Y15036944D01*
X19239038Y15036946D01*
X19239034Y15036952D01*
X19111255Y15178865D01*
X18956752Y15291118D01*
X18782288Y15368794D01*
X18595487Y15408500D01*
X18404513Y15408500D01*
X18217711Y15368794D01*
X18043247Y15291118D01*
X17888744Y15178865D01*
X17760965Y15036952D01*
X17760958Y15036942D01*
X17665476Y14871562D01*
X17665473Y14871555D01*
X17606457Y14689928D01*
X17586496Y14500000D01*
X16260370Y14500000D01*
X16239040Y14536944D01*
X16239038Y14536946D01*
X16239034Y14536952D01*
X16111255Y14678865D01*
X15956752Y14791118D01*
X15782288Y14868794D01*
X15595487Y14908500D01*
X15404513Y14908500D01*
X15217711Y14868794D01*
X15043247Y14791118D01*
X14888744Y14678865D01*
X14760965Y14536952D01*
X14760958Y14536942D01*
X14665476Y14371562D01*
X14665473Y14371555D01*
X14606457Y14189928D01*
X14586496Y14000000D01*
X7660000Y14000000D01*
X7660000Y14035826D01*
X7625925Y14162993D01*
X7590703Y14224000D01*
X8496544Y14224000D01*
X8496544Y14224001D01*
X8448823Y14412450D01*
X8448820Y14412457D01*
X8358419Y14618549D01*
X8235325Y14806959D01*
X8082902Y14972535D01*
X7905301Y15110768D01*
X7905300Y15110769D01*
X7871791Y15128903D01*
X7821401Y15178917D01*
X7806050Y15248234D01*
X7830612Y15314847D01*
X7871790Y15350528D01*
X7905576Y15368811D01*
X8083240Y15507094D01*
X8235722Y15672732D01*
X8358860Y15861209D01*
X8449296Y16067384D01*
X8504564Y16285632D01*
X8523156Y16510000D01*
X8504564Y16734368D01*
X8470523Y16868794D01*
X8449297Y16952613D01*
X8449296Y16952614D01*
X8449296Y16952616D01*
X8358860Y17158791D01*
X8337490Y17191500D01*
X8235724Y17347266D01*
X8235720Y17347271D01*
X8083237Y17512909D01*
X7984594Y17589686D01*
X7905576Y17651189D01*
X7872319Y17669187D01*
X7821929Y17719198D01*
X7806576Y17788515D01*
X7831136Y17855128D01*
X7872320Y17890814D01*
X7905576Y17908811D01*
X8083240Y18047094D01*
X8235722Y18212732D01*
X8358860Y18401209D01*
X8449296Y18607384D01*
X8504564Y18825632D01*
X8523156Y19050000D01*
X8504564Y19274368D01*
X8467466Y19420866D01*
X8449297Y19492613D01*
X8449296Y19492614D01*
X8449296Y19492616D01*
X8358860Y19698791D01*
X8247792Y19868794D01*
X8235724Y19887266D01*
X8235720Y19887271D01*
X8083237Y20052909D01*
X7982640Y20131207D01*
X7905576Y20191189D01*
X7872319Y20209187D01*
X7821929Y20259198D01*
X7806576Y20328515D01*
X7831136Y20395128D01*
X7872320Y20430814D01*
X7905576Y20448811D01*
X8083240Y20587094D01*
X8235722Y20752732D01*
X8358860Y20941209D01*
X8449296Y21147384D01*
X8504564Y21365632D01*
X8523156Y21590000D01*
X8504564Y21814368D01*
X8449296Y22032616D01*
X8358860Y22238791D01*
X8352140Y22249076D01*
X8235724Y22427266D01*
X8235720Y22427271D01*
X8083237Y22592909D01*
X7955924Y22692001D01*
X7905576Y22731189D01*
X7872319Y22749187D01*
X7821929Y22799198D01*
X7806576Y22868515D01*
X7831136Y22935128D01*
X7872320Y22970814D01*
X7905576Y22988811D01*
X8083240Y23127094D01*
X8235722Y23292732D01*
X8358860Y23481209D01*
X8449296Y23687384D01*
X8504564Y23905632D01*
X8523156Y24130000D01*
X8504564Y24354368D01*
X8478394Y24457712D01*
X8449297Y24572613D01*
X8449296Y24572614D01*
X8449296Y24572616D01*
X8358860Y24778791D01*
X8338423Y24810072D01*
X8235724Y24967266D01*
X8235719Y24967271D01*
X8092524Y25122821D01*
X8061103Y25186486D01*
X8069090Y25257032D01*
X8113948Y25312061D01*
X8141183Y25326211D01*
X8256204Y25369111D01*
X8373261Y25456739D01*
X8460887Y25573793D01*
X8460888Y25573795D01*
X8460887Y25573795D01*
X8460889Y25573796D01*
X8473605Y25607891D01*
X8516150Y25664724D01*
X8582670Y25689536D01*
X8652044Y25674445D01*
X8702247Y25624243D01*
X8716000Y25584242D01*
X8764593Y25287837D01*
X8860559Y24942199D01*
X8993326Y24608979D01*
X8993330Y24608970D01*
X9161350Y24292048D01*
X9161352Y24292044D01*
X9362654Y23995146D01*
X9488167Y23847379D01*
X10703367Y25062579D01*
X10779588Y24957670D01*
X10957670Y24779588D01*
X11062576Y24703369D01*
X9844502Y23485295D01*
X9844502Y23485294D01*
X9855297Y23475068D01*
X9855300Y23475066D01*
X10140849Y23257995D01*
X10140867Y23257983D01*
X10448227Y23073051D01*
X10448234Y23073047D01*
X10773766Y22922439D01*
X10773785Y22922431D01*
X11113706Y22807899D01*
X11113723Y22807894D01*
X11464022Y22730787D01*
X11464050Y22730782D01*
X11820637Y22692001D01*
X11820653Y22692000D01*
X12179347Y22692000D01*
X12179362Y22692001D01*
X12535949Y22730782D01*
X12535977Y22730787D01*
X12886276Y22807894D01*
X12886293Y22807899D01*
X13226214Y22922431D01*
X13226233Y22922439D01*
X13551765Y23073047D01*
X13551772Y23073051D01*
X13859132Y23257983D01*
X13859138Y23257987D01*
X14144701Y23475068D01*
X14155495Y23485294D01*
X14155495Y23485296D01*
X12937422Y24703369D01*
X13042330Y24779588D01*
X13220412Y24957670D01*
X13296631Y25062578D01*
X14511830Y23847379D01*
X14511831Y23847379D01*
X14637340Y23995138D01*
X14637342Y23995142D01*
X14838647Y24292044D01*
X14838649Y24292048D01*
X15006669Y24608970D01*
X15006673Y24608979D01*
X15139440Y24942199D01*
X15235407Y25287838D01*
X15293438Y25641817D01*
X15312859Y25999997D01*
X15312859Y26000004D01*
X15293438Y26358184D01*
X15235407Y26712163D01*
X15139440Y27057802D01*
X15006673Y27391022D01*
X15006669Y27391031D01*
X14838649Y27707953D01*
X14838647Y27707957D01*
X14637348Y28004850D01*
X14511830Y28152622D01*
X13296631Y26937423D01*
X13220412Y27042330D01*
X13042330Y27220412D01*
X12937422Y27296633D01*
X14155496Y28514707D01*
X14155496Y28514708D01*
X14144702Y28524933D01*
X14144699Y28524935D01*
X13859150Y28742006D01*
X13859132Y28742018D01*
X13551772Y28926950D01*
X13551765Y28926954D01*
X13283330Y29051146D01*
X13229904Y29097902D01*
X13210238Y29166121D01*
X13230575Y29234142D01*
X13284459Y29280370D01*
X13336236Y29291500D01*
X16654339Y29291500D01*
X16722460Y29271498D01*
X16743434Y29254595D01*
X25254595Y20743434D01*
X25288621Y20681122D01*
X25291500Y20654339D01*
X25291500Y18069230D01*
X25271498Y18001109D01*
X25264791Y17992324D01*
X25264842Y17992287D01*
X25260957Y17986941D01*
X25165476Y17821562D01*
X25165473Y17821555D01*
X25106457Y17639928D01*
X25086496Y17450000D01*
X25106457Y17260073D01*
X25129249Y17189928D01*
X25165473Y17078444D01*
X25165476Y17078439D01*
X25260958Y16913059D01*
X25260965Y16913049D01*
X25388744Y16771136D01*
X25388747Y16771134D01*
X25543248Y16658882D01*
X25717712Y16581206D01*
X25904513Y16541500D01*
X26095487Y16541500D01*
X26282288Y16581206D01*
X26456752Y16658882D01*
X26611253Y16771134D01*
X26698800Y16868365D01*
X26739034Y16913049D01*
X26739035Y16913051D01*
X26739040Y16913056D01*
X26834527Y17078444D01*
X26893542Y17260072D01*
X26913504Y17450000D01*
X26893542Y17639928D01*
X26834527Y17821556D01*
X26770869Y17931815D01*
X26739042Y17986941D01*
X26735158Y17992287D01*
X26736763Y17993454D01*
X26710144Y18048945D01*
X26708500Y18069230D01*
X26708500Y20985340D01*
X26728502Y21053461D01*
X26782158Y21099954D01*
X26852432Y21110058D01*
X26917012Y21080564D01*
X26923595Y21074435D01*
X27254595Y20743435D01*
X27288621Y20681123D01*
X27291500Y20654340D01*
X27291500Y18719230D01*
X27271498Y18651109D01*
X27264791Y18642324D01*
X27264842Y18642287D01*
X27260957Y18636941D01*
X27165476Y18471562D01*
X27165473Y18471556D01*
X27153018Y18433225D01*
X27106457Y18289928D01*
X27086496Y18100000D01*
X27106457Y17910073D01*
X27126169Y17849408D01*
X27165473Y17728444D01*
X27165476Y17728439D01*
X27260958Y17563059D01*
X27260965Y17563049D01*
X27388744Y17421136D01*
X27389593Y17420519D01*
X27543248Y17308882D01*
X27717712Y17231206D01*
X27904513Y17191500D01*
X28095490Y17191500D01*
X28139301Y17200813D01*
X28210092Y17195412D01*
X28266725Y17152596D01*
X28291220Y17085959D01*
X28291500Y17077567D01*
X28291500Y5156562D01*
X28318727Y5019685D01*
X28318729Y5019680D01*
X28372135Y4890745D01*
X28424145Y4812906D01*
X28449672Y4774703D01*
X28861838Y4362537D01*
X29254595Y3969781D01*
X29288620Y3907468D01*
X29291500Y3880685D01*
X29291500Y-706815D01*
X29271498Y-774936D01*
X29230623Y-812854D01*
X29231346Y-813960D01*
X29226983Y-816810D01*
X29059860Y-946888D01*
X28993818Y-972944D01*
X28924172Y-959159D01*
X28873036Y-909909D01*
X28864413Y-891487D01*
X28850445Y-854036D01*
X28850444Y-854034D01*
X28762904Y-737095D01*
X28645965Y-649555D01*
X28509093Y-598505D01*
X28448597Y-592000D01*
X27754000Y-592000D01*
X27754000Y-1569297D01*
X27692993Y-1534075D01*
X27565826Y-1500000D01*
X27434174Y-1500000D01*
X27307007Y-1534075D01*
X27246000Y-1569297D01*
X27246000Y-592000D01*
X26551402Y-592000D01*
X26490906Y-598505D01*
X26354035Y-649555D01*
X26354034Y-649555D01*
X26237095Y-737095D01*
X26149555Y-854034D01*
X26149555Y-854035D01*
X26098505Y-990906D01*
X26092000Y-1051402D01*
X26092000Y-1746000D01*
X27069297Y-1746000D01*
X27034075Y-1807007D01*
X27000000Y-1934174D01*
X27000000Y-2065826D01*
X27034075Y-2192993D01*
X27069297Y-2254000D01*
X26092000Y-2254000D01*
X26092000Y-2948597D01*
X26098505Y-3009093D01*
X26149555Y-3145964D01*
X26149555Y-3145965D01*
X26237095Y-3262904D01*
X26354034Y-3350444D01*
X26490906Y-3401494D01*
X26551402Y-3407999D01*
X26551415Y-3408000D01*
X27246000Y-3408000D01*
X27246000Y-2430702D01*
X27307007Y-2465925D01*
X27434174Y-2500000D01*
X27565826Y-2500000D01*
X27692993Y-2465925D01*
X27754000Y-2430702D01*
X27754000Y-3408000D01*
X28448585Y-3408000D01*
X28448597Y-3407999D01*
X28509093Y-3401494D01*
X28645964Y-3350444D01*
X28645965Y-3350444D01*
X28762904Y-3262904D01*
X28850444Y-3145965D01*
X28850445Y-3145963D01*
X28864413Y-3108513D01*
X28906959Y-3051677D01*
X28973479Y-3026865D01*
X29042853Y-3041956D01*
X29059860Y-3053112D01*
X29226983Y-3183190D01*
X29432273Y-3294287D01*
X29653049Y-3370080D01*
X29883288Y-3408500D01*
X29883292Y-3408500D01*
X30116708Y-3408500D01*
X30116712Y-3408500D01*
X30346951Y-3370080D01*
X30567727Y-3294287D01*
X30773017Y-3183190D01*
X30957220Y-3039818D01*
X30985505Y-3009093D01*
X31041195Y-2948597D01*
X31115314Y-2868083D01*
X31144517Y-2823383D01*
X31198519Y-2777296D01*
X31268867Y-2767720D01*
X31333225Y-2797696D01*
X31355481Y-2823382D01*
X31384686Y-2868083D01*
X31384687Y-2868084D01*
X31542774Y-3039813D01*
X31542778Y-3039817D01*
X31619588Y-3099600D01*
X31726983Y-3183190D01*
X31726988Y-3183193D01*
X31731347Y-3186041D01*
X31730486Y-3187358D01*
X31775847Y-3232360D01*
X31791500Y-3293184D01*
X31791500Y-24706815D01*
X31771498Y-24774936D01*
X31730623Y-24812854D01*
X31731346Y-24813960D01*
X31726983Y-24816810D01*
X31542778Y-24960182D01*
X31542774Y-24960186D01*
X31384685Y-25131916D01*
X31355483Y-25176615D01*
X31301480Y-25222704D01*
X31231132Y-25232279D01*
X31166774Y-25202302D01*
X31144517Y-25176615D01*
X31115314Y-25131916D01*
X30957225Y-24960186D01*
X30957221Y-24960182D01*
X30865118Y-24888496D01*
X30773017Y-24816810D01*
X30567727Y-24705713D01*
X30567724Y-24705712D01*
X30567723Y-24705711D01*
X30346955Y-24629921D01*
X30346948Y-24629919D01*
X30248411Y-24613476D01*
X30116712Y-24591500D01*
X29883288Y-24591500D01*
X29778602Y-24608969D01*
X29653051Y-24629919D01*
X29653044Y-24629921D01*
X29432276Y-24705711D01*
X29432273Y-24705713D01*
X29232250Y-24813960D01*
X29226985Y-24816809D01*
X29226983Y-24816810D01*
X29059860Y-24946888D01*
X28993818Y-24972944D01*
X28924172Y-24959159D01*
X28873036Y-24909909D01*
X28864413Y-24891487D01*
X28850445Y-24854036D01*
X28850444Y-24854034D01*
X28762904Y-24737095D01*
X28645965Y-24649555D01*
X28509093Y-24598505D01*
X28448597Y-24592000D01*
X27754000Y-24592000D01*
X27754000Y-25569297D01*
X27692993Y-25534075D01*
X27565826Y-25500000D01*
X27434174Y-25500000D01*
X27307007Y-25534075D01*
X27246000Y-25569297D01*
X27246000Y-24592000D01*
X26551402Y-24592000D01*
X26490906Y-24598505D01*
X26354035Y-24649555D01*
X26354034Y-24649555D01*
X26237095Y-24737095D01*
X26149555Y-24854034D01*
X26149555Y-24854035D01*
X26098505Y-24990906D01*
X26092000Y-25051402D01*
X26092000Y-25746000D01*
X27069297Y-25746000D01*
X27034075Y-25807007D01*
X27000000Y-25934174D01*
X27000000Y-26065826D01*
X27034075Y-26192993D01*
X27069297Y-26254000D01*
X26092000Y-26254000D01*
X26092000Y-26948597D01*
X26098505Y-27009093D01*
X26149555Y-27145964D01*
X26149555Y-27145965D01*
X26237095Y-27262904D01*
X26354034Y-27350444D01*
X26490906Y-27401494D01*
X26551402Y-27407999D01*
X26551415Y-27408000D01*
X27246000Y-27408000D01*
X27246000Y-26430702D01*
X27307007Y-26465925D01*
X27434174Y-26500000D01*
X27565826Y-26500000D01*
X27692993Y-26465925D01*
X27754000Y-26430702D01*
X27754000Y-27408000D01*
X28448585Y-27408000D01*
X28448597Y-27407999D01*
X28509093Y-27401494D01*
X28645964Y-27350444D01*
X28645965Y-27350444D01*
X28762904Y-27262904D01*
X28850444Y-27145965D01*
X28850445Y-27145963D01*
X28864413Y-27108513D01*
X28906959Y-27051677D01*
X28973479Y-27026865D01*
X29042853Y-27041956D01*
X29059860Y-27053112D01*
X29226983Y-27183190D01*
X29432273Y-27294287D01*
X29653049Y-27370080D01*
X29883288Y-27408500D01*
X29883292Y-27408500D01*
X30116708Y-27408500D01*
X30116712Y-27408500D01*
X30346951Y-27370080D01*
X30567727Y-27294287D01*
X30773017Y-27183190D01*
X30957220Y-27039818D01*
X30985505Y-27009093D01*
X31041195Y-26948597D01*
X31115314Y-26868083D01*
X31144517Y-26823383D01*
X31198519Y-26777296D01*
X31268867Y-26767720D01*
X31333225Y-26797696D01*
X31355481Y-26823382D01*
X31365413Y-26838583D01*
X31384687Y-26868084D01*
X31542774Y-27039813D01*
X31542778Y-27039817D01*
X31608650Y-27091087D01*
X31726983Y-27183190D01*
X31932273Y-27294287D01*
X32153049Y-27370080D01*
X32383288Y-27408500D01*
X32383292Y-27408500D01*
X32616708Y-27408500D01*
X32616712Y-27408500D01*
X32846951Y-27370080D01*
X33067727Y-27294287D01*
X33273017Y-27183190D01*
X33457220Y-27039818D01*
X33469145Y-27026865D01*
X33615314Y-26868083D01*
X33634587Y-26838583D01*
X33742984Y-26672669D01*
X33836749Y-26458907D01*
X33894051Y-26232626D01*
X33913327Y-26000000D01*
X33913327Y-25999996D01*
X73687141Y-25999996D01*
X73687141Y-26000003D01*
X73706561Y-26358183D01*
X73764592Y-26712162D01*
X73860559Y-27057801D01*
X73993326Y-27391021D01*
X73993330Y-27391030D01*
X74161350Y-27707952D01*
X74161352Y-27707956D01*
X74362654Y-28004854D01*
X74488167Y-28152621D01*
X75703367Y-26937421D01*
X75779588Y-27042330D01*
X75957670Y-27220412D01*
X76062576Y-27296631D01*
X74844502Y-28514705D01*
X74844502Y-28514706D01*
X74855297Y-28524932D01*
X74855300Y-28524934D01*
X75140849Y-28742005D01*
X75140867Y-28742017D01*
X75448227Y-28926949D01*
X75448234Y-28926953D01*
X75773766Y-29077561D01*
X75773785Y-29077569D01*
X76113706Y-29192101D01*
X76113723Y-29192106D01*
X76464022Y-29269213D01*
X76464050Y-29269218D01*
X76820637Y-29307999D01*
X76820653Y-29308000D01*
X77179347Y-29308000D01*
X77179362Y-29307999D01*
X77535949Y-29269218D01*
X77535977Y-29269213D01*
X77886276Y-29192106D01*
X77886293Y-29192101D01*
X78226214Y-29077569D01*
X78226233Y-29077561D01*
X78551765Y-28926953D01*
X78551772Y-28926949D01*
X78859132Y-28742017D01*
X78859138Y-28742013D01*
X79144701Y-28524932D01*
X79155495Y-28514706D01*
X79155495Y-28514704D01*
X77937422Y-27296631D01*
X78042330Y-27220412D01*
X78220412Y-27042330D01*
X78296631Y-26937422D01*
X79511830Y-28152621D01*
X79511831Y-28152621D01*
X79637340Y-28004862D01*
X79637342Y-28004858D01*
X79838647Y-27707956D01*
X79838649Y-27707952D01*
X80006669Y-27391030D01*
X80006673Y-27391021D01*
X80139440Y-27057801D01*
X80235407Y-26712162D01*
X80293438Y-26358183D01*
X80312859Y-26000003D01*
X80312859Y-25999996D01*
X80293438Y-25641816D01*
X80235407Y-25287837D01*
X80139440Y-24942198D01*
X80006673Y-24608978D01*
X80006669Y-24608969D01*
X79838649Y-24292047D01*
X79838647Y-24292043D01*
X79637348Y-23995150D01*
X79511830Y-23847378D01*
X78296631Y-25062577D01*
X78220412Y-24957670D01*
X78042330Y-24779588D01*
X77937422Y-24703367D01*
X79155496Y-23485293D01*
X79155496Y-23485292D01*
X79144702Y-23475067D01*
X79144699Y-23475065D01*
X78859150Y-23257994D01*
X78859132Y-23257982D01*
X78551772Y-23073050D01*
X78551765Y-23073046D01*
X78226233Y-22922438D01*
X78226214Y-22922430D01*
X77886293Y-22807898D01*
X77886276Y-22807893D01*
X77535977Y-22730786D01*
X77535949Y-22730781D01*
X77179362Y-22692000D01*
X76820637Y-22692000D01*
X76464050Y-22730781D01*
X76464022Y-22730786D01*
X76113723Y-22807893D01*
X76113706Y-22807898D01*
X75773785Y-22922430D01*
X75773766Y-22922438D01*
X75448234Y-23073046D01*
X75448227Y-23073050D01*
X75140867Y-23257982D01*
X75140861Y-23257986D01*
X74855299Y-23475067D01*
X74844502Y-23485293D01*
X76062577Y-24703368D01*
X75957670Y-24779588D01*
X75779588Y-24957670D01*
X75703368Y-25062577D01*
X74488168Y-23847377D01*
X74362654Y-23995145D01*
X74161352Y-24292043D01*
X74161350Y-24292047D01*
X73993330Y-24608969D01*
X73993326Y-24608978D01*
X73860559Y-24942198D01*
X73764592Y-25287837D01*
X73706561Y-25641816D01*
X73687141Y-25999996D01*
X33913327Y-25999996D01*
X33894051Y-25767374D01*
X33868751Y-25667465D01*
X33836750Y-25541096D01*
X33836747Y-25541089D01*
X33833670Y-25534075D01*
X33742984Y-25327331D01*
X33644517Y-25176615D01*
X33615314Y-25131916D01*
X33457225Y-24960186D01*
X33457221Y-24960182D01*
X33365118Y-24888496D01*
X33273017Y-24816810D01*
X33273011Y-24816806D01*
X33268654Y-24813960D01*
X33269509Y-24812651D01*
X33224131Y-24767599D01*
X33208500Y-24706815D01*
X33208500Y-21597761D01*
X33228502Y-21529640D01*
X33282158Y-21483147D01*
X33352432Y-21473043D01*
X33365288Y-21475580D01*
X33452407Y-21497532D01*
X33585393Y-21508000D01*
X34146000Y-21508000D01*
X34146000Y-19969067D01*
X34301509Y-20000000D01*
X34498491Y-20000000D01*
X34654000Y-19969067D01*
X34654000Y-21508000D01*
X35214607Y-21508000D01*
X35347594Y-21497532D01*
X35567167Y-21442205D01*
X35567176Y-21442202D01*
X35773340Y-21348558D01*
X35773346Y-21348555D01*
X35959473Y-21219605D01*
X35959490Y-21219591D01*
X36119591Y-21059490D01*
X36119605Y-21059473D01*
X36248555Y-20873346D01*
X36248558Y-20873340D01*
X36342202Y-20667176D01*
X36342205Y-20667167D01*
X36397532Y-20447594D01*
X36408000Y-20314606D01*
X36408000Y-19254000D01*
X35369068Y-19254000D01*
X35400000Y-19098491D01*
X35400000Y-18901509D01*
X35369068Y-18746000D01*
X36408000Y-18746000D01*
X36408000Y-17685393D01*
X36397532Y-17552405D01*
X36342205Y-17332832D01*
X36342202Y-17332823D01*
X36248558Y-17126659D01*
X36248555Y-17126653D01*
X36119605Y-16940526D01*
X36119591Y-16940509D01*
X35959490Y-16780408D01*
X35959473Y-16780394D01*
X35773346Y-16651444D01*
X35773340Y-16651441D01*
X35567176Y-16557797D01*
X35567167Y-16557794D01*
X35347594Y-16502467D01*
X35214607Y-16492000D01*
X34654000Y-16492000D01*
X34654000Y-18030932D01*
X34498491Y-18000000D01*
X34301509Y-18000000D01*
X34146000Y-18030932D01*
X34146000Y-16492000D01*
X33585393Y-16492000D01*
X33452402Y-16502467D01*
X33365285Y-16524418D01*
X33294342Y-16521666D01*
X33236149Y-16480996D01*
X33209181Y-16415321D01*
X33208500Y-16402237D01*
X33208500Y-3293184D01*
X33228502Y-3225063D01*
X33269380Y-3187155D01*
X33268653Y-3186041D01*
X33273005Y-3183196D01*
X33273017Y-3183190D01*
X33457220Y-3039818D01*
X33469145Y-3026865D01*
X33615314Y-2868083D01*
X33742984Y-2672669D01*
X33836749Y-2458907D01*
X33894051Y-2232626D01*
X33913327Y-2000000D01*
X33894051Y-1767374D01*
X33871872Y-1679792D01*
X33836750Y-1541096D01*
X33836747Y-1541089D01*
X33833670Y-1534075D01*
X33742984Y-1327331D01*
X33661299Y-1202302D01*
X33615314Y-1131916D01*
X33457225Y-960186D01*
X33457221Y-960182D01*
X33365118Y-888496D01*
X33273017Y-816810D01*
X33067727Y-705713D01*
X33067724Y-705712D01*
X33067723Y-705711D01*
X32846955Y-629921D01*
X32846948Y-629919D01*
X32748411Y-613476D01*
X32616712Y-591500D01*
X32383288Y-591500D01*
X32268066Y-610727D01*
X32153051Y-629919D01*
X32153044Y-629921D01*
X31932276Y-705711D01*
X31932273Y-705713D01*
X31732250Y-813960D01*
X31726985Y-816809D01*
X31726983Y-816810D01*
X31542778Y-960182D01*
X31542774Y-960186D01*
X31384685Y-1131916D01*
X31355483Y-1176615D01*
X31301480Y-1222704D01*
X31231132Y-1232279D01*
X31166774Y-1202302D01*
X31144517Y-1176615D01*
X31115314Y-1131916D01*
X30957225Y-960186D01*
X30957221Y-960182D01*
X30865118Y-888496D01*
X30773017Y-816810D01*
X30773011Y-816806D01*
X30768654Y-813960D01*
X30769509Y-812651D01*
X30724131Y-767599D01*
X30708500Y-706815D01*
X30708500Y4296126D01*
X30708499Y4296130D01*
X30683688Y4420865D01*
X30681273Y4433008D01*
X30647030Y4515678D01*
X30627865Y4561946D01*
X30550328Y4677988D01*
X29745404Y5482913D01*
X29711379Y5545225D01*
X29708500Y5572008D01*
X29708500Y6314607D01*
X32392000Y6314607D01*
X32392000Y5254000D01*
X33430932Y5254000D01*
X33400000Y5098491D01*
X33400000Y4901509D01*
X33430932Y4746000D01*
X32392000Y4746000D01*
X32392000Y3685394D01*
X32402467Y3552406D01*
X32457794Y3332833D01*
X32457797Y3332824D01*
X32551441Y3126660D01*
X32551444Y3126654D01*
X32680394Y2940527D01*
X32680408Y2940510D01*
X32840509Y2780409D01*
X32840526Y2780395D01*
X33026653Y2651445D01*
X33026659Y2651442D01*
X33232823Y2557798D01*
X33232832Y2557795D01*
X33452405Y2502468D01*
X33585393Y2492000D01*
X34146000Y2492000D01*
X34146000Y4030933D01*
X34301509Y4000000D01*
X34498491Y4000000D01*
X34654000Y4030933D01*
X34654000Y2492000D01*
X35214607Y2492000D01*
X35347594Y2502468D01*
X35567167Y2557795D01*
X35567176Y2557798D01*
X35773340Y2651442D01*
X35773346Y2651445D01*
X35959473Y2780395D01*
X35959490Y2780409D01*
X36119591Y2940510D01*
X36119605Y2940527D01*
X36248555Y3126654D01*
X36248558Y3126660D01*
X36342202Y3332824D01*
X36342205Y3332833D01*
X36397532Y3552406D01*
X36408000Y3685394D01*
X36408000Y4746000D01*
X35369068Y4746000D01*
X35400000Y4901509D01*
X35400000Y5098491D01*
X35369068Y5254000D01*
X36408000Y5254000D01*
X36408000Y6314607D01*
X36397532Y6447595D01*
X36342205Y6667168D01*
X36342202Y6667177D01*
X36248558Y6873341D01*
X36248555Y6873347D01*
X36119605Y7059474D01*
X36119591Y7059491D01*
X35959490Y7219592D01*
X35959473Y7219606D01*
X35773346Y7348556D01*
X35773340Y7348559D01*
X35567176Y7442203D01*
X35567167Y7442206D01*
X35347594Y7497533D01*
X35214607Y7508000D01*
X34654000Y7508000D01*
X34654000Y5969068D01*
X34498491Y6000000D01*
X34301509Y6000000D01*
X34146000Y5969068D01*
X34146000Y7508000D01*
X33585393Y7508000D01*
X33452405Y7497533D01*
X33232832Y7442206D01*
X33232823Y7442203D01*
X33026659Y7348559D01*
X33026653Y7348556D01*
X32840526Y7219606D01*
X32840509Y7219592D01*
X32680408Y7059491D01*
X32680394Y7059474D01*
X32551444Y6873347D01*
X32551441Y6873341D01*
X32457797Y6667177D01*
X32457794Y6667168D01*
X32402467Y6447595D01*
X32392000Y6314607D01*
X29708500Y6314607D01*
X29708500Y29500000D01*
X32586496Y29500000D01*
X32606457Y29310073D01*
X32631129Y29234142D01*
X32665473Y29128444D01*
X32691717Y29082988D01*
X32760958Y28963059D01*
X32760965Y28963049D01*
X32888744Y28821136D01*
X32934539Y28787864D01*
X33043248Y28708882D01*
X33217712Y28631206D01*
X33370566Y28598716D01*
X33433039Y28564988D01*
X33433464Y28564565D01*
X33754595Y28243435D01*
X33788620Y28181122D01*
X33791500Y28154339D01*
X33791500Y10430216D01*
X33818727Y10293339D01*
X33818729Y10293334D01*
X33872135Y10164399D01*
X33949671Y10048358D01*
X33949676Y10048352D01*
X37254595Y6743435D01*
X37288620Y6681123D01*
X37291500Y6654340D01*
X37291500Y-23380770D01*
X37271498Y-23448891D01*
X37264791Y-23457676D01*
X37264842Y-23457713D01*
X37260957Y-23463059D01*
X37165476Y-23628438D01*
X37165473Y-23628444D01*
X37153896Y-23664075D01*
X37106457Y-23810072D01*
X37086496Y-24000000D01*
X37106457Y-24189927D01*
X37108374Y-24195826D01*
X37165473Y-24371556D01*
X37165476Y-24371561D01*
X37260958Y-24536941D01*
X37260965Y-24536951D01*
X37388744Y-24678864D01*
X37427215Y-24706815D01*
X37543248Y-24791118D01*
X37717712Y-24868794D01*
X37904513Y-24908500D01*
X38095487Y-24908500D01*
X38282288Y-24868794D01*
X38456752Y-24791118D01*
X38611253Y-24678866D01*
X38655325Y-24629919D01*
X38739034Y-24536951D01*
X38739035Y-24536949D01*
X38739040Y-24536944D01*
X38834527Y-24371556D01*
X38893542Y-24189928D01*
X38913504Y-24000000D01*
X38893542Y-23810072D01*
X38834527Y-23628444D01*
X38751878Y-23485292D01*
X38739042Y-23463059D01*
X38735158Y-23457713D01*
X38736763Y-23456546D01*
X38710144Y-23401055D01*
X38708500Y-23380770D01*
X38708500Y-4999984D01*
X41969545Y-4999984D01*
X41969545Y-5000015D01*
X41989361Y-5845118D01*
X42048767Y-6688364D01*
X42048772Y-6688411D01*
X42147634Y-7527910D01*
X42147639Y-7527947D01*
X42147641Y-7527958D01*
X42172952Y-7680802D01*
X42285752Y-8361960D01*
X42462801Y-9188550D01*
X42462811Y-9188593D01*
X42604896Y-9727270D01*
X42678409Y-10005976D01*
X42713180Y-10116507D01*
X42932080Y-10812351D01*
X42932082Y-10812356D01*
X42932086Y-10812369D01*
X42932089Y-10812376D01*
X43223287Y-11605999D01*
X43340139Y-11883492D01*
X43551360Y-12385091D01*
X43915601Y-13147970D01*
X44315190Y-13892922D01*
X44315200Y-13892940D01*
X44749259Y-14618326D01*
X44749270Y-14618344D01*
X45216855Y-15322595D01*
X45563254Y-15794700D01*
X45716950Y-16004172D01*
X46240261Y-16651441D01*
X46248450Y-16661569D01*
X46810144Y-17293292D01*
X47400858Y-17898021D01*
X47400869Y-17898031D01*
X48019277Y-18474405D01*
X48019282Y-18474409D01*
X48019301Y-18474426D01*
X48664022Y-19021160D01*
X49333664Y-19537076D01*
X49333704Y-19537106D01*
X50026783Y-20021060D01*
X50026793Y-20021066D01*
X50026794Y-20021067D01*
X50741827Y-20472024D01*
X50741840Y-20472031D01*
X50741841Y-20472032D01*
X50944775Y-20587091D01*
X51477211Y-20888970D01*
X52129897Y-21219605D01*
X52231337Y-21270992D01*
X52612668Y-21442202D01*
X53002527Y-21617241D01*
X53789106Y-21926964D01*
X54589337Y-22199478D01*
X55401463Y-22434184D01*
X56223697Y-22630566D01*
X56523881Y-22687537D01*
X57054208Y-22788188D01*
X57054217Y-22788189D01*
X57054232Y-22788192D01*
X57805676Y-22894598D01*
X57891206Y-22906710D01*
X57891211Y-22906710D01*
X57891242Y-22906715D01*
X58732888Y-22985876D01*
X59577320Y-23025500D01*
X59577331Y-23025500D01*
X60422669Y-23025500D01*
X60422680Y-23025500D01*
X61267112Y-22985876D01*
X62108758Y-22906715D01*
X62945768Y-22788192D01*
X62945784Y-22788188D01*
X62945791Y-22788188D01*
X63294741Y-22721960D01*
X63776303Y-22630566D01*
X64598537Y-22434184D01*
X65410663Y-22199478D01*
X66210894Y-21926964D01*
X66997473Y-21617241D01*
X67768669Y-21270989D01*
X68522789Y-20888970D01*
X69258173Y-20472024D01*
X69973206Y-20021067D01*
X70252565Y-19826000D01*
X85970128Y-19826000D01*
X87029297Y-19826000D01*
X86994075Y-19887007D01*
X86960000Y-20014174D01*
X86960000Y-20145826D01*
X86994075Y-20272993D01*
X87029297Y-20334000D01*
X85970128Y-20334000D01*
X86021369Y-20547429D01*
X86021371Y-20547435D01*
X86112206Y-20766733D01*
X86236231Y-20969122D01*
X86236232Y-20969124D01*
X86390385Y-21149614D01*
X86570875Y-21303767D01*
X86570877Y-21303768D01*
X86773266Y-21427793D01*
X86992562Y-21518628D01*
X87206000Y-21569869D01*
X87206000Y-20510702D01*
X87267007Y-20545925D01*
X87394174Y-20580000D01*
X87525826Y-20580000D01*
X87652993Y-20545925D01*
X87714000Y-20510702D01*
X87714000Y-21569868D01*
X87927437Y-21518628D01*
X88146733Y-21427793D01*
X88349122Y-21303768D01*
X88349124Y-21303767D01*
X88529614Y-21149614D01*
X88683767Y-20969124D01*
X88683768Y-20969122D01*
X88807793Y-20766733D01*
X88898628Y-20547435D01*
X88898630Y-20547429D01*
X88949872Y-20334000D01*
X87890703Y-20334000D01*
X87925925Y-20272993D01*
X87960000Y-20145826D01*
X87960000Y-20014174D01*
X87925925Y-19887007D01*
X87890703Y-19826000D01*
X88949871Y-19826000D01*
X91050128Y-19826000D01*
X92109297Y-19826000D01*
X92074075Y-19887007D01*
X92040000Y-20014174D01*
X92040000Y-20145826D01*
X92074075Y-20272993D01*
X92109297Y-20334000D01*
X91050128Y-20334000D01*
X91101369Y-20547429D01*
X91101371Y-20547435D01*
X91192206Y-20766733D01*
X91316231Y-20969122D01*
X91316232Y-20969124D01*
X91470385Y-21149614D01*
X91650875Y-21303767D01*
X91650877Y-21303768D01*
X91853266Y-21427793D01*
X92072562Y-21518628D01*
X92286000Y-21569869D01*
X92286000Y-20510702D01*
X92347007Y-20545925D01*
X92474174Y-20580000D01*
X92605826Y-20580000D01*
X92732993Y-20545925D01*
X92794000Y-20510702D01*
X92794000Y-21569868D01*
X93007437Y-21518628D01*
X93226733Y-21427793D01*
X93429122Y-21303768D01*
X93429124Y-21303767D01*
X93609614Y-21149614D01*
X93763767Y-20969124D01*
X93763768Y-20969122D01*
X93887793Y-20766733D01*
X93978628Y-20547435D01*
X93978630Y-20547429D01*
X94029872Y-20334000D01*
X92970703Y-20334000D01*
X93005925Y-20272993D01*
X93040000Y-20145826D01*
X93040000Y-20014174D01*
X93005925Y-19887007D01*
X92970703Y-19826000D01*
X94029871Y-19826000D01*
X93978630Y-19612570D01*
X93978628Y-19612564D01*
X93887793Y-19393266D01*
X93763768Y-19190877D01*
X93763767Y-19190875D01*
X93609614Y-19010385D01*
X93429124Y-18856232D01*
X93429122Y-18856231D01*
X93226733Y-18732206D01*
X93007435Y-18641371D01*
X93007429Y-18641369D01*
X92794000Y-18590128D01*
X92794000Y-19649297D01*
X92732993Y-19614075D01*
X92605826Y-19580000D01*
X92474174Y-19580000D01*
X92347007Y-19614075D01*
X92286000Y-19649297D01*
X92286000Y-18590128D01*
X92072570Y-18641369D01*
X92072564Y-18641371D01*
X91853266Y-18732206D01*
X91650877Y-18856231D01*
X91650875Y-18856232D01*
X91470385Y-19010385D01*
X91316232Y-19190875D01*
X91316231Y-19190877D01*
X91192206Y-19393266D01*
X91101371Y-19612564D01*
X91101369Y-19612570D01*
X91050128Y-19826000D01*
X88949871Y-19826000D01*
X88898630Y-19612570D01*
X88898628Y-19612564D01*
X88807793Y-19393266D01*
X88683768Y-19190877D01*
X88683767Y-19190875D01*
X88529614Y-19010385D01*
X88349124Y-18856232D01*
X88349122Y-18856231D01*
X88146733Y-18732206D01*
X87927435Y-18641371D01*
X87927429Y-18641369D01*
X87714000Y-18590128D01*
X87714000Y-19649297D01*
X87652993Y-19614075D01*
X87525826Y-19580000D01*
X87394174Y-19580000D01*
X87267007Y-19614075D01*
X87206000Y-19649297D01*
X87206000Y-18590128D01*
X86992570Y-18641369D01*
X86992564Y-18641371D01*
X86773266Y-18732206D01*
X86570877Y-18856231D01*
X86570875Y-18856232D01*
X86390385Y-19010385D01*
X86236232Y-19190875D01*
X86236231Y-19190877D01*
X86112206Y-19393266D01*
X86021371Y-19612564D01*
X86021369Y-19612570D01*
X85970128Y-19826000D01*
X70252565Y-19826000D01*
X70434743Y-19698791D01*
X70666295Y-19537106D01*
X70666301Y-19537101D01*
X70666316Y-19537091D01*
X71335979Y-19021159D01*
X71980723Y-18474405D01*
X72599131Y-17898031D01*
X72638231Y-17858004D01*
X72840253Y-17651189D01*
X73189843Y-17293305D01*
X73751561Y-16661556D01*
X74283050Y-16004172D01*
X74783142Y-15322598D01*
X75250737Y-14618333D01*
X75684808Y-13892925D01*
X75787568Y-13701350D01*
X86201500Y-13701350D01*
X86201500Y-16298649D01*
X86208009Y-16359196D01*
X86208011Y-16359204D01*
X86259110Y-16496202D01*
X86259112Y-16496207D01*
X86346738Y-16613261D01*
X86463792Y-16700887D01*
X86463794Y-16700888D01*
X86463796Y-16700889D01*
X86522875Y-16722924D01*
X86600795Y-16751988D01*
X86600803Y-16751990D01*
X86661350Y-16758499D01*
X86661355Y-16758499D01*
X86661362Y-16758500D01*
X86661368Y-16758500D01*
X88258632Y-16758500D01*
X88258638Y-16758500D01*
X88258645Y-16758499D01*
X88258649Y-16758499D01*
X88319196Y-16751990D01*
X88319199Y-16751989D01*
X88319201Y-16751989D01*
X88456204Y-16700889D01*
X88502414Y-16666297D01*
X88573261Y-16613261D01*
X88660887Y-16496207D01*
X88660887Y-16496206D01*
X88660889Y-16496204D01*
X88711989Y-16359201D01*
X88716219Y-16319860D01*
X88718499Y-16298649D01*
X88718500Y-16298632D01*
X88718500Y-16265043D01*
X88738502Y-16196922D01*
X88792158Y-16150429D01*
X88862432Y-16140325D01*
X88927012Y-16169819D01*
X88946435Y-16190981D01*
X89040070Y-16319858D01*
X89040072Y-16319860D01*
X89040074Y-16319863D01*
X89180139Y-16459928D01*
X89180142Y-16459930D01*
X89340402Y-16576366D01*
X89516903Y-16666298D01*
X89705300Y-16727512D01*
X89900954Y-16758500D01*
X89900957Y-16758500D01*
X90099043Y-16758500D01*
X90099046Y-16758500D01*
X90294700Y-16727512D01*
X90483097Y-16666298D01*
X90659598Y-16576366D01*
X90819858Y-16459930D01*
X90959930Y-16319858D01*
X91076366Y-16159598D01*
X91157734Y-15999902D01*
X91206481Y-15948290D01*
X91275396Y-15931224D01*
X91342598Y-15954125D01*
X91382264Y-15999902D01*
X91463634Y-16159598D01*
X91463636Y-16159601D01*
X91580071Y-16319860D01*
X91720139Y-16459928D01*
X91720142Y-16459930D01*
X91880402Y-16576366D01*
X92056903Y-16666298D01*
X92245300Y-16727512D01*
X92440954Y-16758500D01*
X92440957Y-16758500D01*
X92639043Y-16758500D01*
X92639046Y-16758500D01*
X92834700Y-16727512D01*
X93023097Y-16666298D01*
X93199598Y-16576366D01*
X93359858Y-16459930D01*
X93499930Y-16319858D01*
X93616366Y-16159598D01*
X93706298Y-15983097D01*
X93767512Y-15794700D01*
X93798500Y-15599046D01*
X93798500Y-14400954D01*
X93767512Y-14205300D01*
X93706298Y-14016903D01*
X93616366Y-13840402D01*
X93539755Y-13734956D01*
X93499928Y-13680139D01*
X93359860Y-13540071D01*
X93199601Y-13423636D01*
X93199600Y-13423635D01*
X93199598Y-13423634D01*
X93023097Y-13333702D01*
X92834700Y-13272488D01*
X92639046Y-13241500D01*
X92440954Y-13241500D01*
X92245300Y-13272488D01*
X92245297Y-13272488D01*
X92245296Y-13272489D01*
X92056903Y-13333702D01*
X92056901Y-13333703D01*
X91880398Y-13423636D01*
X91720139Y-13540071D01*
X91580071Y-13680139D01*
X91463636Y-13840398D01*
X91463634Y-13840402D01*
X91431141Y-13904174D01*
X91382267Y-14000094D01*
X91333519Y-14051709D01*
X91264604Y-14068775D01*
X91197402Y-14045874D01*
X91157733Y-14000094D01*
X91076366Y-13840402D01*
X90999755Y-13734956D01*
X90959928Y-13680139D01*
X90819860Y-13540071D01*
X90659601Y-13423636D01*
X90659600Y-13423635D01*
X90659598Y-13423634D01*
X90483097Y-13333702D01*
X90294700Y-13272488D01*
X90099046Y-13241500D01*
X89900954Y-13241500D01*
X89705300Y-13272488D01*
X89705297Y-13272488D01*
X89705296Y-13272489D01*
X89516903Y-13333702D01*
X89516901Y-13333703D01*
X89340398Y-13423636D01*
X89180139Y-13540071D01*
X89040071Y-13680139D01*
X88946436Y-13809017D01*
X88890213Y-13852371D01*
X88819477Y-13858446D01*
X88756685Y-13825314D01*
X88721774Y-13763494D01*
X88718500Y-13734956D01*
X88718500Y-13701367D01*
X88718499Y-13701350D01*
X88711990Y-13640803D01*
X88711988Y-13640795D01*
X88674419Y-13540071D01*
X88660889Y-13503796D01*
X88660888Y-13503794D01*
X88660887Y-13503792D01*
X88573261Y-13386738D01*
X88456207Y-13299112D01*
X88456202Y-13299110D01*
X88319204Y-13248011D01*
X88319196Y-13248009D01*
X88258649Y-13241500D01*
X88258638Y-13241500D01*
X86661362Y-13241500D01*
X86661350Y-13241500D01*
X86600803Y-13248009D01*
X86600795Y-13248011D01*
X86463797Y-13299110D01*
X86463792Y-13299112D01*
X86346738Y-13386738D01*
X86259112Y-13503792D01*
X86259110Y-13503797D01*
X86208011Y-13640795D01*
X86208009Y-13640803D01*
X86201500Y-13701350D01*
X75787568Y-13701350D01*
X76084400Y-13147968D01*
X76448635Y-12385101D01*
X76776713Y-11605999D01*
X76999068Y-11000000D01*
X80861587Y-11000000D01*
X80876408Y-11178866D01*
X80881206Y-11236762D01*
X80939522Y-11467048D01*
X80939525Y-11467055D01*
X81034953Y-11684608D01*
X81164889Y-11883492D01*
X81325782Y-12058269D01*
X81325787Y-12058273D01*
X81325789Y-12058275D01*
X81513263Y-12204191D01*
X81722196Y-12317260D01*
X81946890Y-12394398D01*
X82181217Y-12433500D01*
X82181221Y-12433500D01*
X82418779Y-12433500D01*
X82418783Y-12433500D01*
X82653110Y-12394398D01*
X82877804Y-12317260D01*
X83086737Y-12204191D01*
X83274211Y-12058275D01*
X83330136Y-11997525D01*
X83435110Y-11883492D01*
X83470503Y-11829318D01*
X83565046Y-11684609D01*
X83660476Y-11467052D01*
X83718795Y-11236755D01*
X83738413Y-11000000D01*
X83718795Y-10763245D01*
X83714428Y-10746000D01*
X83660477Y-10532951D01*
X83660474Y-10532944D01*
X83646023Y-10500000D01*
X83565046Y-10315391D01*
X83538320Y-10274483D01*
X85067000Y-10274483D01*
X85067000Y-10746000D01*
X86155900Y-10746000D01*
X86103963Y-10835956D01*
X86075000Y-10944048D01*
X86075000Y-11055952D01*
X86103963Y-11164044D01*
X86155900Y-11254000D01*
X85067000Y-11254000D01*
X85067000Y-11725516D01*
X85077605Y-11829318D01*
X85077606Y-11829321D01*
X85133342Y-11997525D01*
X85226365Y-12148339D01*
X85226370Y-12148345D01*
X85351654Y-12273629D01*
X85351660Y-12273634D01*
X85502474Y-12366657D01*
X85670678Y-12422393D01*
X85670681Y-12422394D01*
X85774483Y-12432999D01*
X85774483Y-12433000D01*
X86246000Y-12433000D01*
X86246000Y-11344100D01*
X86335956Y-11396037D01*
X86444048Y-11425000D01*
X86555952Y-11425000D01*
X86664044Y-11396037D01*
X86754000Y-11344100D01*
X86754000Y-12433000D01*
X87225517Y-12433000D01*
X87225516Y-12432999D01*
X87329318Y-12422394D01*
X87329321Y-12422393D01*
X87497525Y-12366657D01*
X87648339Y-12273634D01*
X87648345Y-12273629D01*
X87773629Y-12148345D01*
X87773634Y-12148339D01*
X87866657Y-11997525D01*
X87922393Y-11829321D01*
X87922394Y-11829318D01*
X87932999Y-11725516D01*
X87933000Y-11725516D01*
X87933000Y-11254000D01*
X86844100Y-11254000D01*
X86896037Y-11164044D01*
X86925000Y-11055952D01*
X86925000Y-10944048D01*
X86896037Y-10835956D01*
X86844100Y-10746000D01*
X87933000Y-10746000D01*
X87933000Y-10274483D01*
X87922394Y-10170681D01*
X87922393Y-10170678D01*
X87866657Y-10002474D01*
X87773634Y-9851660D01*
X87773629Y-9851654D01*
X87648345Y-9726370D01*
X87648339Y-9726365D01*
X87497525Y-9633342D01*
X87329321Y-9577606D01*
X87329318Y-9577605D01*
X87225516Y-9567000D01*
X86754000Y-9567000D01*
X86754000Y-10655899D01*
X86664044Y-10603963D01*
X86555952Y-10575000D01*
X86444048Y-10575000D01*
X86335956Y-10603963D01*
X86246000Y-10655899D01*
X86246000Y-9567000D01*
X85774483Y-9567000D01*
X85670681Y-9577605D01*
X85670678Y-9577606D01*
X85502474Y-9633342D01*
X85351660Y-9726365D01*
X85351654Y-9726370D01*
X85226370Y-9851654D01*
X85226365Y-9851660D01*
X85133342Y-10002474D01*
X85077606Y-10170678D01*
X85077605Y-10170681D01*
X85067000Y-10274483D01*
X83538320Y-10274483D01*
X83435110Y-10116507D01*
X83274217Y-9941730D01*
X83258037Y-9929137D01*
X83086737Y-9795809D01*
X83086736Y-9795808D01*
X82877803Y-9682739D01*
X82877800Y-9682738D01*
X82653114Y-9605603D01*
X82653105Y-9605601D01*
X82606513Y-9597826D01*
X82418783Y-9566500D01*
X82181217Y-9566500D01*
X82024813Y-9592599D01*
X81946894Y-9605601D01*
X81946885Y-9605603D01*
X81722199Y-9682738D01*
X81722196Y-9682739D01*
X81513263Y-9795808D01*
X81513262Y-9795809D01*
X81325782Y-9941730D01*
X81164889Y-10116507D01*
X81034953Y-10315391D01*
X80939525Y-10532944D01*
X80939522Y-10532951D01*
X80881206Y-10763237D01*
X80881205Y-10763243D01*
X80881205Y-10763245D01*
X80861587Y-11000000D01*
X76999068Y-11000000D01*
X77067911Y-10812376D01*
X77073586Y-10794338D01*
X77136910Y-10593041D01*
X77321591Y-10005976D01*
X77537194Y-9188571D01*
X77714247Y-8361960D01*
X77852359Y-7527958D01*
X77951229Y-6688399D01*
X77951230Y-6688378D01*
X77951232Y-6688364D01*
X77990877Y-6125624D01*
X78010638Y-5845128D01*
X78025559Y-5208811D01*
X78030455Y-5000015D01*
X78030455Y-4999984D01*
X78017772Y-4459118D01*
X78010638Y-4154872D01*
X77958056Y-3408500D01*
X77951232Y-3311635D01*
X77951230Y-3311618D01*
X77951229Y-3311601D01*
X77898998Y-2868083D01*
X77852365Y-2472089D01*
X77852363Y-2472076D01*
X77852359Y-2472042D01*
X77714247Y-1638040D01*
X77693482Y-1541096D01*
X77605840Y-1131917D01*
X77537194Y-811429D01*
X77506145Y-693713D01*
X80949500Y-693713D01*
X80949500Y-906287D01*
X80982754Y-1116243D01*
X81048443Y-1318412D01*
X81144949Y-1507816D01*
X81269896Y-1679792D01*
X81269898Y-1679794D01*
X81269900Y-1679797D01*
X81420202Y-1830099D01*
X81420205Y-1830101D01*
X81420208Y-1830104D01*
X81592184Y-1955051D01*
X81781588Y-2051557D01*
X81983757Y-2117246D01*
X82193713Y-2150500D01*
X82193716Y-2150500D01*
X82406284Y-2150500D01*
X82406287Y-2150500D01*
X82616243Y-2117246D01*
X82818412Y-2051557D01*
X83007816Y-1955051D01*
X83179792Y-1830104D01*
X83330104Y-1679792D01*
X83455051Y-1507816D01*
X83551557Y-1318412D01*
X83617246Y-1116243D01*
X83650500Y-906287D01*
X83650500Y-693713D01*
X85149500Y-693713D01*
X85149500Y-906287D01*
X85182754Y-1116243D01*
X85248443Y-1318412D01*
X85344949Y-1507816D01*
X85469896Y-1679792D01*
X85469898Y-1679794D01*
X85469900Y-1679797D01*
X85620202Y-1830099D01*
X85620205Y-1830101D01*
X85620208Y-1830104D01*
X85792184Y-1955051D01*
X85981588Y-2051557D01*
X86183757Y-2117246D01*
X86393713Y-2150500D01*
X86393716Y-2150500D01*
X86606284Y-2150500D01*
X86606287Y-2150500D01*
X86816243Y-2117246D01*
X87018412Y-2051557D01*
X87207816Y-1955051D01*
X87379792Y-1830104D01*
X87530104Y-1679792D01*
X87655051Y-1507816D01*
X87751557Y-1318412D01*
X87817246Y-1116243D01*
X87850500Y-906287D01*
X87850500Y-693713D01*
X87817246Y-483757D01*
X87751557Y-281588D01*
X87655051Y-92184D01*
X87530104Y79792D01*
X87530101Y79795D01*
X87530099Y79798D01*
X87379797Y230100D01*
X87379794Y230102D01*
X87379792Y230104D01*
X87207816Y355051D01*
X87018412Y451557D01*
X86816243Y517246D01*
X86606287Y550500D01*
X86393713Y550500D01*
X86183757Y517246D01*
X86183754Y517246D01*
X86183753Y517245D01*
X85981588Y451557D01*
X85981586Y451556D01*
X85792180Y355049D01*
X85620205Y230102D01*
X85620202Y230100D01*
X85469900Y79798D01*
X85469898Y79795D01*
X85344951Y-92180D01*
X85344949Y-92184D01*
X85248443Y-281588D01*
X85182754Y-483757D01*
X85149500Y-693713D01*
X83650500Y-693713D01*
X83617246Y-483757D01*
X83551557Y-281588D01*
X83455051Y-92184D01*
X83330104Y79792D01*
X83330101Y79795D01*
X83330099Y79798D01*
X83179797Y230100D01*
X83179794Y230102D01*
X83179792Y230104D01*
X83007816Y355051D01*
X82818412Y451557D01*
X82616243Y517246D01*
X82406287Y550500D01*
X82193713Y550500D01*
X81983757Y517246D01*
X81983754Y517246D01*
X81983753Y517245D01*
X81781588Y451557D01*
X81781586Y451556D01*
X81592180Y355049D01*
X81420205Y230102D01*
X81420202Y230100D01*
X81269900Y79798D01*
X81269898Y79795D01*
X81144951Y-92180D01*
X81144949Y-92184D01*
X81048443Y-281588D01*
X80982754Y-483757D01*
X80949500Y-693713D01*
X77506145Y-693713D01*
X77321591Y5976D01*
X77149822Y551997D01*
X77067919Y812352D01*
X77067917Y812357D01*
X77067916Y812358D01*
X77067911Y812376D01*
X76776713Y1605999D01*
X76448635Y2385101D01*
X76084400Y3147968D01*
X75684808Y3892925D01*
X75684806Y3892928D01*
X75684799Y3892941D01*
X75368898Y4420865D01*
X75250737Y4618333D01*
X75029738Y4951189D01*
X74783144Y5322596D01*
X74354063Y5907388D01*
X74283050Y6004172D01*
X73751561Y6661556D01*
X73751549Y6661570D01*
X73189855Y7293293D01*
X72599141Y7898022D01*
X72230928Y8241207D01*
X71980723Y8474405D01*
X71980715Y8474412D01*
X71980698Y8474427D01*
X71335977Y9021161D01*
X70666335Y9537077D01*
X70666295Y9537107D01*
X69973216Y10021061D01*
X69548011Y10289229D01*
X69258173Y10472024D01*
X69258165Y10472029D01*
X69258158Y10472033D01*
X68522802Y10888963D01*
X68522800Y10888964D01*
X68522796Y10888966D01*
X68522789Y10888970D01*
X67956181Y11176000D01*
X67768662Y11270993D01*
X66997494Y11617232D01*
X66997486Y11617236D01*
X66997473Y11617241D01*
X66210894Y11926964D01*
X65735158Y12088973D01*
X65410659Y12199480D01*
X64692172Y12407124D01*
X64598537Y12434184D01*
X64598528Y12434186D01*
X64598514Y12434190D01*
X63776317Y12630563D01*
X63776274Y12630572D01*
X62945791Y12788189D01*
X62945768Y12788192D01*
X62108793Y12906711D01*
X62108745Y12906717D01*
X61267142Y12985874D01*
X61267124Y12985875D01*
X61267112Y12985876D01*
X60422680Y13025500D01*
X59577320Y13025500D01*
X58732888Y12985876D01*
X58732876Y12985875D01*
X58732857Y12985874D01*
X57891254Y12906717D01*
X57891206Y12906711D01*
X57054231Y12788192D01*
X57054208Y12788189D01*
X56223725Y12630572D01*
X56223682Y12630563D01*
X55401485Y12434190D01*
X55401452Y12434181D01*
X54589340Y12199480D01*
X54091584Y12029972D01*
X53789106Y11926964D01*
X53002527Y11617241D01*
X53002520Y11617239D01*
X53002505Y11617232D01*
X52231337Y11270993D01*
X51477199Y10888964D01*
X51477197Y10888963D01*
X50741841Y10472033D01*
X50026783Y10021061D01*
X49333704Y9537107D01*
X49333664Y9537077D01*
X48664022Y9021161D01*
X48019301Y8474427D01*
X48019282Y8474410D01*
X47400858Y7898022D01*
X46810144Y7293293D01*
X46248450Y6661570D01*
X45716958Y6004183D01*
X45716945Y6004166D01*
X45216855Y5322596D01*
X44749270Y4618345D01*
X44749259Y4618327D01*
X44315200Y3892941D01*
X44315190Y3892923D01*
X43915601Y3147971D01*
X43551360Y2385092D01*
X43223288Y1606001D01*
X43223285Y1605995D01*
X42932082Y812357D01*
X42932080Y812352D01*
X42678408Y5973D01*
X42462811Y-811406D01*
X42462801Y-811449D01*
X42285752Y-1638039D01*
X42147642Y-2472037D01*
X42147634Y-2472089D01*
X42048772Y-3311588D01*
X42048767Y-3311635D01*
X41989361Y-4154881D01*
X41969545Y-4999984D01*
X38708500Y-4999984D01*
X38708500Y7069780D01*
X38708499Y7069784D01*
X38681273Y7206662D01*
X38681270Y7206670D01*
X38645385Y7293304D01*
X38645384Y7293305D01*
X38627865Y7335601D01*
X38550327Y7451643D01*
X38550324Y7451646D01*
X38550322Y7451649D01*
X35245405Y10756566D01*
X35211379Y10818878D01*
X35208500Y10845661D01*
X35208500Y14934314D01*
X64020810Y14934314D01*
X64040771Y14744387D01*
X64062061Y14678866D01*
X64099787Y14562758D01*
X64099790Y14562753D01*
X64195272Y14397373D01*
X64195279Y14397363D01*
X64323058Y14255450D01*
X64364132Y14225608D01*
X64477562Y14143196D01*
X64652026Y14065520D01*
X64838827Y14025814D01*
X65029801Y14025814D01*
X65216602Y14065520D01*
X65391066Y14143196D01*
X65471658Y14201751D01*
X65538526Y14225608D01*
X65545719Y14225814D01*
X65970293Y14225814D01*
X66038414Y14205812D01*
X66084907Y14152156D01*
X66095602Y14086646D01*
X66089209Y14025814D01*
X66086496Y14000000D01*
X66106457Y13810073D01*
X66136526Y13717530D01*
X66165473Y13628444D01*
X66165476Y13628439D01*
X66260958Y13463059D01*
X66260965Y13463049D01*
X66388744Y13321136D01*
X66429818Y13291294D01*
X66543248Y13208882D01*
X66717712Y13131206D01*
X66904513Y13091500D01*
X67095487Y13091500D01*
X67282288Y13131206D01*
X67456752Y13208882D01*
X67537344Y13267437D01*
X67604212Y13291294D01*
X67611405Y13291500D01*
X72069777Y13291500D01*
X72069782Y13291500D01*
X72138221Y13305114D01*
X72206662Y13318727D01*
X72244427Y13334370D01*
X72335601Y13372135D01*
X72451643Y13449672D01*
X75066536Y16064567D01*
X75128845Y16098589D01*
X75129240Y16098675D01*
X75282288Y16131206D01*
X75456752Y16208882D01*
X75611253Y16321134D01*
X75611255Y16321136D01*
X75739034Y16463049D01*
X75739035Y16463051D01*
X75739040Y16463056D01*
X75834527Y16628444D01*
X75893542Y16810072D01*
X75913504Y17000000D01*
X75893542Y17189928D01*
X75834527Y17371556D01*
X75739040Y17536944D01*
X75739038Y17536946D01*
X75739034Y17536952D01*
X75611255Y17678865D01*
X75456752Y17791118D01*
X75282288Y17868794D01*
X75095487Y17908500D01*
X75036572Y17908500D01*
X74968451Y17928502D01*
X74921958Y17982158D01*
X74911262Y18021330D01*
X74893542Y18189928D01*
X74882888Y18222718D01*
X74834527Y18371556D01*
X74739040Y18536944D01*
X74739038Y18536946D01*
X74739034Y18536952D01*
X74611255Y18678865D01*
X74456752Y18791118D01*
X74282288Y18868794D01*
X74095487Y18908500D01*
X73904513Y18908500D01*
X73717711Y18868794D01*
X73543247Y18791118D01*
X73388744Y18678865D01*
X73260965Y18536952D01*
X73260958Y18536942D01*
X73165476Y18371562D01*
X73165473Y18371555D01*
X73106457Y18189928D01*
X73101549Y18143229D01*
X73074535Y18077572D01*
X73065334Y18067306D01*
X70677748Y15679719D01*
X70615436Y15645694D01*
X70588653Y15642814D01*
X65545719Y15642814D01*
X65477598Y15662816D01*
X65471658Y15666878D01*
X65391066Y15725432D01*
X65216602Y15803108D01*
X65029801Y15842814D01*
X64838827Y15842814D01*
X64652025Y15803108D01*
X64477561Y15725432D01*
X64323058Y15613179D01*
X64195279Y15471266D01*
X64195272Y15471256D01*
X64099790Y15305876D01*
X64099787Y15305870D01*
X64094994Y15291118D01*
X64040771Y15124242D01*
X64020810Y14934314D01*
X35208500Y14934314D01*
X35208500Y16000000D01*
X49086496Y16000000D01*
X49106457Y15810073D01*
X49130854Y15734990D01*
X49165473Y15628444D01*
X49165476Y15628439D01*
X49260958Y15463059D01*
X49260965Y15463049D01*
X49388744Y15321136D01*
X49408150Y15307037D01*
X49543248Y15208882D01*
X49717712Y15131206D01*
X49904513Y15091500D01*
X50095487Y15091500D01*
X50282288Y15131206D01*
X50456752Y15208882D01*
X50611253Y15321134D01*
X50654182Y15368811D01*
X50739034Y15463049D01*
X50739035Y15463051D01*
X50739040Y15463056D01*
X50834527Y15628444D01*
X50893542Y15810072D01*
X50898449Y15856768D01*
X50925460Y15922425D01*
X50934653Y15932685D01*
X51050328Y16048358D01*
X51127865Y16164399D01*
X51178081Y16285632D01*
X51181273Y16293338D01*
X51208500Y16430219D01*
X51208500Y18380771D01*
X51228502Y18448892D01*
X51235208Y18457675D01*
X51235157Y18457712D01*
X51239033Y18463050D01*
X51239040Y18463056D01*
X51334527Y18628444D01*
X51393542Y18810072D01*
X51413504Y19000000D01*
X51393542Y19189928D01*
X51334527Y19371556D01*
X51239040Y19536944D01*
X51239038Y19536946D01*
X51239034Y19536952D01*
X51111255Y19678865D01*
X50956752Y19791118D01*
X50782288Y19868794D01*
X50595487Y19908500D01*
X50404513Y19908500D01*
X50217711Y19868794D01*
X50043247Y19791118D01*
X49888744Y19678865D01*
X49760965Y19536952D01*
X49760958Y19536942D01*
X49665476Y19371562D01*
X49665473Y19371555D01*
X49606457Y19189928D01*
X49586496Y19000000D01*
X49606457Y18810073D01*
X49630850Y18735001D01*
X49665473Y18628444D01*
X49665476Y18628439D01*
X49760958Y18463059D01*
X49764843Y18457712D01*
X49763233Y18456543D01*
X49789853Y18401075D01*
X49791500Y18380771D01*
X49791500Y16983472D01*
X49771498Y16915351D01*
X49717842Y16868858D01*
X49716791Y16868385D01*
X49654862Y16840812D01*
X49543247Y16791118D01*
X49388744Y16678865D01*
X49260965Y16536952D01*
X49260958Y16536942D01*
X49165476Y16371562D01*
X49165473Y16371556D01*
X49150999Y16327014D01*
X49106457Y16189928D01*
X49086496Y16000000D01*
X35208500Y16000000D01*
X35208500Y28569780D01*
X35208499Y28569784D01*
X35181273Y28706662D01*
X35147638Y28787864D01*
X35127865Y28835600D01*
X35050328Y28951642D01*
X34434662Y29567308D01*
X34400639Y29629618D01*
X34398449Y29643233D01*
X34393542Y29689925D01*
X34393541Y29689931D01*
X34334527Y29871556D01*
X34239040Y30036944D01*
X34239038Y30036946D01*
X34239034Y30036952D01*
X34111255Y30178865D01*
X33956752Y30291118D01*
X33782288Y30368794D01*
X33595487Y30408500D01*
X33404513Y30408500D01*
X33217711Y30368794D01*
X33043247Y30291118D01*
X32888744Y30178865D01*
X32760965Y30036952D01*
X32760958Y30036942D01*
X32668277Y29876413D01*
X32665473Y29871556D01*
X32655707Y29841500D01*
X32606457Y29689928D01*
X32586496Y29500000D01*
X29708500Y29500000D01*
X29708500Y29880771D01*
X29728502Y29948892D01*
X29735208Y29957675D01*
X29735157Y29957712D01*
X29739033Y29963050D01*
X29739040Y29963056D01*
X29834527Y30128444D01*
X29893542Y30310072D01*
X29913504Y30500000D01*
X29893542Y30689928D01*
X29834527Y30871556D01*
X29739040Y31036944D01*
X29739038Y31036946D01*
X29739034Y31036952D01*
X29611255Y31178865D01*
X29456752Y31291118D01*
X29322880Y31350721D01*
X29268787Y31396700D01*
X29248137Y31464627D01*
X29267489Y31532935D01*
X29320700Y31579937D01*
X29378077Y31590238D01*
X29378077Y31591500D01*
X29616708Y31591500D01*
X29616712Y31591500D01*
X29846951Y31629920D01*
X30067727Y31705713D01*
X30273017Y31816810D01*
X30457220Y31960182D01*
X30469145Y31973135D01*
X30615314Y32131917D01*
X30615317Y32131921D01*
X30742984Y32327331D01*
X30836749Y32541093D01*
X30894051Y32767374D01*
X30913327Y33000000D01*
X30894051Y33232626D01*
X30875215Y33307007D01*
X30836750Y33458904D01*
X30836747Y33458911D01*
X30833670Y33465925D01*
X30742984Y33672669D01*
X30644517Y33823385D01*
X30615314Y33868084D01*
X30541195Y33948598D01*
X49092000Y33948598D01*
X49092000Y33254000D01*
X50069297Y33254000D01*
X50034075Y33192993D01*
X50000000Y33065826D01*
X50000000Y32934174D01*
X50034075Y32807007D01*
X50069297Y32746000D01*
X49092000Y32746000D01*
X49092000Y32051403D01*
X49098505Y31990907D01*
X49149555Y31854036D01*
X49149555Y31854035D01*
X49237095Y31737096D01*
X49354034Y31649556D01*
X49490906Y31598506D01*
X49551402Y31592001D01*
X49551415Y31592000D01*
X50246000Y31592000D01*
X50246000Y32569298D01*
X50307007Y32534075D01*
X50434174Y32500000D01*
X50565826Y32500000D01*
X50692993Y32534075D01*
X50754000Y32569298D01*
X50754000Y31592000D01*
X51448585Y31592000D01*
X51448597Y31592001D01*
X51509093Y31598506D01*
X51645964Y31649556D01*
X51645965Y31649556D01*
X51762904Y31737096D01*
X51850444Y31854035D01*
X51850445Y31854037D01*
X51864413Y31891487D01*
X51906959Y31948323D01*
X51973479Y31973135D01*
X52042853Y31958044D01*
X52059860Y31946888D01*
X52226983Y31816810D01*
X52226988Y31816807D01*
X52231347Y31813959D01*
X52230486Y31812642D01*
X52275847Y31767640D01*
X52291500Y31706816D01*
X52291500Y27983472D01*
X52271498Y27915351D01*
X52217842Y27868858D01*
X52216791Y27868385D01*
X52154862Y27840812D01*
X52043247Y27791118D01*
X51888744Y27678865D01*
X51760965Y27536952D01*
X51760958Y27536942D01*
X51665476Y27371562D01*
X51665473Y27371555D01*
X51606457Y27189928D01*
X51586496Y27000000D01*
X51606457Y26810073D01*
X51625780Y26750605D01*
X51665473Y26628444D01*
X51665476Y26628439D01*
X51760958Y26463059D01*
X51760965Y26463049D01*
X51888744Y26321136D01*
X51888747Y26321134D01*
X52043248Y26208882D01*
X52217712Y26131206D01*
X52404513Y26091500D01*
X52595487Y26091500D01*
X52782288Y26131206D01*
X52956752Y26208882D01*
X53111253Y26321134D01*
X53239040Y26463056D01*
X53334527Y26628444D01*
X53393542Y26810072D01*
X53398449Y26856768D01*
X53425460Y26922425D01*
X53434653Y26932685D01*
X53550328Y27048358D01*
X53627865Y27164399D01*
X53665630Y27255573D01*
X53681273Y27293338D01*
X53708500Y27430219D01*
X53708500Y31706816D01*
X53728502Y31774937D01*
X53769380Y31812845D01*
X53768653Y31813959D01*
X53773005Y31816804D01*
X53773017Y31816810D01*
X53957220Y31960182D01*
X53985505Y31990907D01*
X54041147Y32051351D01*
X54115314Y32131917D01*
X54144517Y32176617D01*
X54198519Y32222704D01*
X54268867Y32232280D01*
X54333225Y32202304D01*
X54355481Y32176618D01*
X54368828Y32156189D01*
X54384684Y32131919D01*
X54514597Y31990796D01*
X54542780Y31960182D01*
X54542880Y31960105D01*
X54542909Y31960064D01*
X54546615Y31956652D01*
X54545913Y31955891D01*
X54584357Y31902487D01*
X54591500Y31860665D01*
X54591500Y19428504D01*
X54571498Y19360383D01*
X54554595Y19339409D01*
X51915163Y16699978D01*
X51900136Y16687142D01*
X51888746Y16678866D01*
X51842984Y16628042D01*
X51838444Y16623258D01*
X51794325Y16579139D01*
X51794320Y16579133D01*
X51786053Y16566761D01*
X51774932Y16552463D01*
X51760961Y16536946D01*
X51730152Y16483585D01*
X51725800Y16476588D01*
X51694897Y16430338D01*
X51694894Y16430333D01*
X51686597Y16410302D01*
X51679312Y16395529D01*
X51665473Y16371557D01*
X51665471Y16371554D01*
X51648527Y16319407D01*
X51645105Y16310131D01*
X51626415Y16265008D01*
X51626413Y16264999D01*
X51620855Y16237063D01*
X51617111Y16222717D01*
X51606458Y16189932D01*
X51606457Y16189926D01*
X51601432Y16142124D01*
X51599702Y16130718D01*
X51591500Y16089486D01*
X51591500Y16054216D01*
X51590810Y16041046D01*
X51586496Y16000001D01*
X51590810Y15958955D01*
X51591500Y15945785D01*
X51591500Y15910517D01*
X51599702Y15869285D01*
X51601432Y15857878D01*
X51606457Y15810075D01*
X51606459Y15810067D01*
X51617111Y15777284D01*
X51620856Y15762933D01*
X51626411Y15735006D01*
X51626416Y15734990D01*
X51645107Y15689863D01*
X51648529Y15680587D01*
X51665470Y15628451D01*
X51665476Y15628437D01*
X51679307Y15604483D01*
X51686599Y15589697D01*
X51694895Y15569667D01*
X51694898Y15569662D01*
X51725801Y15523411D01*
X51730153Y15516413D01*
X51760958Y15463059D01*
X51760961Y15463055D01*
X51774929Y15447542D01*
X51786053Y15433240D01*
X51794322Y15420865D01*
X51838460Y15376727D01*
X51842984Y15371959D01*
X51888744Y15321136D01*
X51888747Y15321134D01*
X51900117Y15312873D01*
X51900126Y15312867D01*
X51915161Y15300026D01*
X51920865Y15294322D01*
X51969751Y15261658D01*
X51978391Y15255885D01*
X51982421Y15253076D01*
X52043248Y15208882D01*
X52043252Y15208880D01*
X52049867Y15205935D01*
X52068620Y15195595D01*
X52069664Y15194897D01*
X52139889Y15165809D01*
X52142847Y15164538D01*
X52203850Y15137378D01*
X52217705Y15131209D01*
X52217707Y15131208D01*
X52217712Y15131206D01*
X52218113Y15131121D01*
X52228936Y15127758D01*
X52229074Y15128211D01*
X52235003Y15126412D01*
X52265271Y15120392D01*
X52316244Y15110254D01*
X52317607Y15109973D01*
X52404513Y15091500D01*
X52404515Y15091500D01*
X52595486Y15091500D01*
X52595487Y15091500D01*
X52682391Y15109974D01*
X52683753Y15110254D01*
X52765000Y15126413D01*
X52765008Y15126417D01*
X52770931Y15128213D01*
X52771070Y15127754D01*
X52781886Y15131121D01*
X52782288Y15131206D01*
X52857178Y15164550D01*
X52860073Y15165794D01*
X52930336Y15194897D01*
X52931365Y15195585D01*
X52950132Y15205936D01*
X52956752Y15208882D01*
X53017602Y15253094D01*
X53021608Y15255885D01*
X53079135Y15294322D01*
X53084840Y15300029D01*
X53099868Y15312864D01*
X53111253Y15321134D01*
X53157052Y15372002D01*
X53161538Y15376727D01*
X56084840Y18300029D01*
X56099867Y18312863D01*
X56111253Y18321134D01*
X56157053Y18372002D01*
X56161520Y18376709D01*
X56205678Y18420865D01*
X56213944Y18433238D01*
X56225066Y18447538D01*
X56239040Y18463056D01*
X56269850Y18516422D01*
X56274193Y18523405D01*
X56283238Y18536942D01*
X56305103Y18569664D01*
X56313401Y18589701D01*
X56320686Y18604473D01*
X56334527Y18628444D01*
X56351479Y18680620D01*
X56354894Y18689872D01*
X56373586Y18734998D01*
X56373588Y18735006D01*
X56377733Y18755838D01*
X56378421Y18759305D01*
X56379140Y18762922D01*
X56382884Y18777275D01*
X56393542Y18810072D01*
X56398565Y18857872D01*
X56400296Y18869280D01*
X56408500Y18910521D01*
X56408500Y18945785D01*
X56409190Y18958955D01*
X56413504Y19000000D01*
X56409190Y19041046D01*
X56408500Y19054216D01*
X56408500Y28500001D01*
X62586496Y28500001D01*
X62590810Y28458955D01*
X62591500Y28445785D01*
X62591500Y19910519D01*
X62626413Y19735000D01*
X62694897Y19569664D01*
X62746379Y19492616D01*
X62794321Y19420866D01*
X62794326Y19420860D01*
X64838442Y17376745D01*
X64842984Y17371959D01*
X64888744Y17321136D01*
X64888747Y17321134D01*
X64900117Y17312873D01*
X64900126Y17312867D01*
X64915161Y17300026D01*
X64920865Y17294322D01*
X64978376Y17255895D01*
X64978391Y17255885D01*
X64982421Y17253076D01*
X65043248Y17208882D01*
X65049872Y17205933D01*
X65068625Y17195591D01*
X65069665Y17194896D01*
X65119646Y17174195D01*
X65139820Y17165839D01*
X65142835Y17164544D01*
X65217712Y17131206D01*
X65218109Y17131122D01*
X65228934Y17127756D01*
X65229073Y17128212D01*
X65235003Y17126413D01*
X65272945Y17118867D01*
X65316194Y17110264D01*
X65317592Y17109977D01*
X65404513Y17091500D01*
X65404514Y17091500D01*
X65595486Y17091500D01*
X65595487Y17091500D01*
X65682450Y17109986D01*
X65683789Y17110261D01*
X65764999Y17126414D01*
X65765001Y17126416D01*
X65770927Y17128212D01*
X65771065Y17127756D01*
X65781879Y17131119D01*
X65781993Y17131144D01*
X65782288Y17131206D01*
X65857216Y17164568D01*
X65860124Y17165817D01*
X65930336Y17194897D01*
X65931359Y17195581D01*
X65950139Y17205938D01*
X65956752Y17208882D01*
X66017602Y17253094D01*
X66021608Y17255885D01*
X66079135Y17294322D01*
X66084840Y17300029D01*
X66099868Y17312864D01*
X66111253Y17321134D01*
X66157053Y17372002D01*
X66161520Y17376709D01*
X66205678Y17420865D01*
X66213944Y17433238D01*
X66225066Y17447538D01*
X66239040Y17463056D01*
X66269850Y17516422D01*
X66274181Y17523388D01*
X66305103Y17569664D01*
X66313401Y17589702D01*
X66320688Y17604478D01*
X66334527Y17628444D01*
X66351474Y17680605D01*
X66354891Y17689869D01*
X66373586Y17735001D01*
X66379140Y17762925D01*
X66382881Y17777263D01*
X66393542Y17810072D01*
X66398565Y17857878D01*
X66400296Y17869281D01*
X66408160Y17908812D01*
X66408500Y17910521D01*
X66408500Y17945785D01*
X66409190Y17958955D01*
X66413504Y18000000D01*
X66409190Y18041046D01*
X66408500Y18054216D01*
X66408500Y18089476D01*
X66408500Y18089480D01*
X66400295Y18130728D01*
X66398565Y18142134D01*
X66398450Y18143229D01*
X66393542Y18189928D01*
X66382880Y18222739D01*
X66379141Y18237069D01*
X66373586Y18265000D01*
X66354896Y18310122D01*
X66351476Y18319390D01*
X66334527Y18371556D01*
X66320687Y18395527D01*
X66313401Y18410303D01*
X66309026Y18420865D01*
X66305103Y18430336D01*
X66274189Y18476602D01*
X66269849Y18483582D01*
X66239040Y18536944D01*
X66225068Y18552461D01*
X66213943Y18566765D01*
X66205678Y18579135D01*
X66161537Y18623276D01*
X66157014Y18628043D01*
X66156657Y18628439D01*
X66111253Y18678866D01*
X66099864Y18687141D01*
X66084833Y18699980D01*
X64908408Y19876405D01*
X64874382Y19938717D01*
X64879447Y20009532D01*
X64921994Y20066368D01*
X64988514Y20091179D01*
X64997503Y20091500D01*
X65095487Y20091500D01*
X65282288Y20131206D01*
X65456752Y20208882D01*
X65611253Y20321134D01*
X65629733Y20341658D01*
X65739034Y20463049D01*
X65739035Y20463051D01*
X65739040Y20463056D01*
X65834527Y20628444D01*
X65893542Y20810072D01*
X65913504Y21000000D01*
X65893542Y21189928D01*
X65834527Y21371556D01*
X65739040Y21536944D01*
X65739039Y21536946D01*
X65735158Y21542287D01*
X65736763Y21543454D01*
X65710144Y21598945D01*
X65708500Y21619230D01*
X65708500Y24380771D01*
X65728502Y24448892D01*
X65735208Y24457675D01*
X65735157Y24457712D01*
X65739033Y24463050D01*
X65739040Y24463056D01*
X65834527Y24628444D01*
X65893542Y24810072D01*
X65913504Y25000000D01*
X65893542Y25189928D01*
X65834527Y25371556D01*
X65739040Y25536944D01*
X65739038Y25536946D01*
X65739034Y25536952D01*
X65611255Y25678865D01*
X65456752Y25791118D01*
X65282288Y25868794D01*
X65095487Y25908500D01*
X64904513Y25908500D01*
X64717709Y25868794D01*
X64585748Y25810041D01*
X64515381Y25800607D01*
X64451084Y25830714D01*
X64413271Y25890803D01*
X64408500Y25925148D01*
X64408500Y26000004D01*
X73687141Y26000004D01*
X73687141Y25999997D01*
X73706561Y25641817D01*
X73764592Y25287838D01*
X73860559Y24942199D01*
X73993326Y24608979D01*
X73993330Y24608970D01*
X74161350Y24292048D01*
X74161352Y24292044D01*
X74362654Y23995146D01*
X74488167Y23847379D01*
X75703367Y25062579D01*
X75779588Y24957670D01*
X75957670Y24779588D01*
X76062576Y24703369D01*
X74844502Y23485295D01*
X74844502Y23485294D01*
X74855297Y23475068D01*
X74855300Y23475066D01*
X75140849Y23257995D01*
X75140867Y23257983D01*
X75448227Y23073051D01*
X75448234Y23073047D01*
X75773766Y22922439D01*
X75773785Y22922431D01*
X76113706Y22807899D01*
X76113723Y22807894D01*
X76464022Y22730787D01*
X76464050Y22730782D01*
X76820637Y22692001D01*
X76820653Y22692000D01*
X77179347Y22692000D01*
X77179362Y22692001D01*
X77535949Y22730782D01*
X77535977Y22730787D01*
X77886276Y22807894D01*
X77886293Y22807899D01*
X78226214Y22922431D01*
X78226233Y22922439D01*
X78551765Y23073047D01*
X78551772Y23073051D01*
X78859132Y23257983D01*
X78859138Y23257987D01*
X79144701Y23475068D01*
X79155495Y23485294D01*
X79155495Y23485296D01*
X77937422Y24703369D01*
X78042330Y24779588D01*
X78220412Y24957670D01*
X78296631Y25062578D01*
X79511830Y23847379D01*
X79511831Y23847379D01*
X79637340Y23995138D01*
X79637342Y23995142D01*
X79838647Y24292044D01*
X79838649Y24292048D01*
X80006669Y24608970D01*
X80006673Y24608979D01*
X80139440Y24942199D01*
X80235407Y25287838D01*
X80293438Y25641817D01*
X80312859Y25999997D01*
X80312859Y26000004D01*
X80293438Y26358184D01*
X80235407Y26712163D01*
X80139440Y27057802D01*
X80006673Y27391022D01*
X80006669Y27391031D01*
X79838649Y27707953D01*
X79838647Y27707957D01*
X79637348Y28004850D01*
X79511830Y28152622D01*
X78296631Y26937423D01*
X78220412Y27042330D01*
X78042330Y27220412D01*
X77937422Y27296633D01*
X79155496Y28514707D01*
X79155496Y28514708D01*
X79144702Y28524933D01*
X79144699Y28524935D01*
X78859150Y28742006D01*
X78859132Y28742018D01*
X78551772Y28926950D01*
X78551765Y28926954D01*
X78226233Y29077562D01*
X78226214Y29077570D01*
X77886293Y29192102D01*
X77886276Y29192107D01*
X77535977Y29269214D01*
X77535949Y29269219D01*
X77179362Y29308000D01*
X76820637Y29308000D01*
X76464050Y29269219D01*
X76464022Y29269214D01*
X76113723Y29192107D01*
X76113706Y29192102D01*
X75773785Y29077570D01*
X75773766Y29077562D01*
X75448234Y28926954D01*
X75448227Y28926950D01*
X75140867Y28742018D01*
X75140861Y28742014D01*
X74855299Y28524933D01*
X74844502Y28514707D01*
X76062577Y27296632D01*
X75957670Y27220412D01*
X75779588Y27042330D01*
X75703368Y26937423D01*
X74488168Y28152623D01*
X74362654Y28004855D01*
X74161352Y27707957D01*
X74161350Y27707953D01*
X73993330Y27391031D01*
X73993326Y27391022D01*
X73860559Y27057802D01*
X73764592Y26712163D01*
X73706561Y26358184D01*
X73687141Y26000004D01*
X64408500Y26000004D01*
X64408500Y28071497D01*
X64428502Y28139618D01*
X64445405Y28160592D01*
X66089408Y29804595D01*
X66151720Y29838621D01*
X66178503Y29841500D01*
X69589478Y29841500D01*
X69589479Y29841500D01*
X69765000Y29876413D01*
X69930336Y29944897D01*
X70079135Y30044322D01*
X70300678Y30265864D01*
X70400102Y30414664D01*
X70409761Y30437984D01*
X70415420Y30451644D01*
X70435449Y30500000D01*
X70468587Y30580000D01*
X70503500Y30755521D01*
X70503500Y33948650D01*
X75091500Y33948650D01*
X75091500Y32051351D01*
X75098009Y31990804D01*
X75098011Y31990796D01*
X75149110Y31853798D01*
X75149112Y31853793D01*
X75236738Y31736739D01*
X75353792Y31649113D01*
X75353794Y31649112D01*
X75353796Y31649111D01*
X75405243Y31629922D01*
X75490795Y31598012D01*
X75490803Y31598010D01*
X75551350Y31591501D01*
X75551355Y31591501D01*
X75551362Y31591500D01*
X75551368Y31591500D01*
X77448632Y31591500D01*
X77448638Y31591500D01*
X77448645Y31591501D01*
X77448649Y31591501D01*
X77509196Y31598010D01*
X77509199Y31598011D01*
X77509201Y31598011D01*
X77523993Y31603528D01*
X77528045Y31605040D01*
X77646204Y31649111D01*
X77646799Y31649556D01*
X77763261Y31736739D01*
X77850887Y31853793D01*
X77850888Y31853795D01*
X77850887Y31853795D01*
X77850889Y31853796D01*
X77864828Y31891168D01*
X77907372Y31948001D01*
X77973891Y31972813D01*
X78043266Y31957722D01*
X78060273Y31946566D01*
X78179154Y31854037D01*
X78226983Y31816810D01*
X78432273Y31705713D01*
X78653049Y31629920D01*
X78883288Y31591500D01*
X78883292Y31591500D01*
X79116708Y31591500D01*
X79116712Y31591500D01*
X79346951Y31629920D01*
X79567727Y31705713D01*
X79773017Y31816810D01*
X79957220Y31960182D01*
X79985505Y31990907D01*
X80041147Y32051351D01*
X80115314Y32131917D01*
X80144517Y32176617D01*
X80198519Y32222704D01*
X80268867Y32232280D01*
X80333225Y32202304D01*
X80355481Y32176618D01*
X80384685Y32131919D01*
X80384687Y32131916D01*
X80542774Y31960187D01*
X80542778Y31960183D01*
X80583117Y31928786D01*
X80726983Y31816810D01*
X80932273Y31705713D01*
X81153049Y31629920D01*
X81383288Y31591500D01*
X81383292Y31591500D01*
X81616708Y31591500D01*
X81616712Y31591500D01*
X81796286Y31621466D01*
X81866767Y31612949D01*
X81921457Y31567677D01*
X81942990Y31500025D01*
X81924529Y31431470D01*
X81906117Y31408089D01*
X81433465Y30935437D01*
X81371153Y30901411D01*
X81370567Y30901286D01*
X81217716Y30868796D01*
X81043247Y30791118D01*
X80888744Y30678865D01*
X80760965Y30536952D01*
X80760958Y30536942D01*
X80665476Y30371562D01*
X80665473Y30371555D01*
X80606457Y30189928D01*
X80586496Y30000000D01*
X80606457Y29810073D01*
X80636526Y29717530D01*
X80665473Y29628444D01*
X80665476Y29628439D01*
X80760958Y29463059D01*
X80760965Y29463049D01*
X80888744Y29321136D01*
X80933497Y29288621D01*
X81043248Y29208882D01*
X81217712Y29131206D01*
X81404513Y29091500D01*
X81595487Y29091500D01*
X81782288Y29131206D01*
X81956752Y29208882D01*
X82111253Y29321134D01*
X82239040Y29463056D01*
X82334527Y29628444D01*
X82393542Y29810072D01*
X82398449Y29856769D01*
X82425460Y29922425D01*
X82434655Y29932686D01*
X84566535Y32064566D01*
X84628845Y32098590D01*
X84629084Y32098642D01*
X84782288Y32131206D01*
X84956752Y32208882D01*
X85111253Y32321134D01*
X85239040Y32463056D01*
X85334527Y32628444D01*
X85393542Y32810072D01*
X85413504Y33000000D01*
X85393542Y33189928D01*
X85334527Y33371556D01*
X85239040Y33536944D01*
X85239038Y33536946D01*
X85239034Y33536952D01*
X85111255Y33678865D01*
X84956752Y33791118D01*
X84782288Y33868794D01*
X84595487Y33908500D01*
X84404513Y33908500D01*
X84217711Y33868794D01*
X84043247Y33791118D01*
X83888744Y33678865D01*
X83760965Y33536952D01*
X83760958Y33536942D01*
X83665476Y33371562D01*
X83665473Y33371555D01*
X83606457Y33189928D01*
X83601549Y33143229D01*
X83574535Y33077572D01*
X83565334Y33067306D01*
X83091696Y32593668D01*
X83029384Y32559642D01*
X82958569Y32564707D01*
X82901733Y32607254D01*
X82876922Y32673774D01*
X82880456Y32713691D01*
X82894051Y32767374D01*
X82913327Y33000000D01*
X82894051Y33232626D01*
X82875215Y33307007D01*
X82836750Y33458904D01*
X82836747Y33458911D01*
X82833670Y33465925D01*
X82742984Y33672669D01*
X82644517Y33823385D01*
X82615314Y33868084D01*
X82457225Y34039814D01*
X82457221Y34039818D01*
X82329360Y34139336D01*
X82273017Y34183190D01*
X82067727Y34294287D01*
X82067724Y34294288D01*
X82067723Y34294289D01*
X81846955Y34370079D01*
X81846948Y34370081D01*
X81748411Y34386524D01*
X81616712Y34408500D01*
X81383288Y34408500D01*
X81268066Y34389273D01*
X81153051Y34370081D01*
X81153044Y34370079D01*
X80932276Y34294289D01*
X80932273Y34294287D01*
X80726985Y34183191D01*
X80726983Y34183190D01*
X80542778Y34039818D01*
X80542774Y34039814D01*
X80384685Y33868084D01*
X80355483Y33823385D01*
X80301480Y33777296D01*
X80231132Y33767721D01*
X80166774Y33797698D01*
X80144517Y33823385D01*
X80115314Y33868084D01*
X79957225Y34039814D01*
X79957221Y34039818D01*
X79829360Y34139336D01*
X79773017Y34183190D01*
X79567727Y34294287D01*
X79567724Y34294288D01*
X79567723Y34294289D01*
X79346955Y34370079D01*
X79346948Y34370081D01*
X79248411Y34386524D01*
X79116712Y34408500D01*
X78883288Y34408500D01*
X78768066Y34389273D01*
X78653051Y34370081D01*
X78653044Y34370079D01*
X78432276Y34294289D01*
X78432273Y34294287D01*
X78226983Y34183190D01*
X78061766Y34054595D01*
X78060274Y34053434D01*
X77994232Y34027378D01*
X77924586Y34041163D01*
X77873450Y34090413D01*
X77864828Y34108833D01*
X77850889Y34146204D01*
X77850887Y34146208D01*
X77763261Y34263262D01*
X77646207Y34350888D01*
X77646202Y34350890D01*
X77509204Y34401989D01*
X77509196Y34401991D01*
X77448649Y34408500D01*
X77448638Y34408500D01*
X75551362Y34408500D01*
X75551350Y34408500D01*
X75490803Y34401991D01*
X75490795Y34401989D01*
X75353797Y34350890D01*
X75353792Y34350888D01*
X75236738Y34263262D01*
X75149112Y34146208D01*
X75149110Y34146203D01*
X75098011Y34009205D01*
X75098009Y34009197D01*
X75091500Y33948650D01*
X70503500Y33948650D01*
X70503500Y37350785D01*
X70504190Y37363955D01*
X70508504Y37405000D01*
X70504190Y37446046D01*
X70503500Y37459216D01*
X70503500Y41314607D01*
X72592000Y41314607D01*
X72592000Y40254000D01*
X73630932Y40254000D01*
X73600000Y40098491D01*
X73600000Y39901509D01*
X73630932Y39746000D01*
X72592000Y39746000D01*
X72592000Y38685394D01*
X72602467Y38552406D01*
X72657794Y38332833D01*
X72657797Y38332824D01*
X72751441Y38126660D01*
X72751444Y38126654D01*
X72880394Y37940527D01*
X72880408Y37940510D01*
X73040509Y37780409D01*
X73040526Y37780395D01*
X73226653Y37651445D01*
X73226659Y37651442D01*
X73432823Y37557798D01*
X73432832Y37557795D01*
X73652405Y37502468D01*
X73785393Y37492000D01*
X74346000Y37492000D01*
X74346000Y39030933D01*
X74501509Y39000000D01*
X74698491Y39000000D01*
X74854000Y39030933D01*
X74854000Y37492000D01*
X75414607Y37492000D01*
X75547594Y37502468D01*
X75767167Y37557795D01*
X75767176Y37557798D01*
X75973340Y37651442D01*
X75973346Y37651445D01*
X76159473Y37780395D01*
X76159490Y37780409D01*
X76319591Y37940510D01*
X76319605Y37940527D01*
X76448555Y38126654D01*
X76448558Y38126660D01*
X76542202Y38332824D01*
X76542205Y38332833D01*
X76597532Y38552406D01*
X76608000Y38685394D01*
X76608000Y39746000D01*
X75569068Y39746000D01*
X75600000Y39901509D01*
X75600000Y40098491D01*
X75569068Y40254000D01*
X76608000Y40254000D01*
X76608000Y41314607D01*
X81392000Y41314607D01*
X81392000Y40254000D01*
X82430932Y40254000D01*
X82400000Y40098491D01*
X82400000Y39901509D01*
X82430932Y39746000D01*
X81392000Y39746000D01*
X81392000Y38685394D01*
X81402467Y38552406D01*
X81457794Y38332833D01*
X81457797Y38332824D01*
X81551441Y38126660D01*
X81551444Y38126654D01*
X81680394Y37940527D01*
X81680408Y37940510D01*
X81840509Y37780409D01*
X81840526Y37780395D01*
X82026653Y37651445D01*
X82026659Y37651442D01*
X82232823Y37557798D01*
X82232832Y37557795D01*
X82452405Y37502468D01*
X82585393Y37492000D01*
X83146000Y37492000D01*
X83146000Y39030933D01*
X83301509Y39000000D01*
X83498491Y39000000D01*
X83654000Y39030933D01*
X83654000Y37492000D01*
X84214607Y37492000D01*
X84347594Y37502468D01*
X84567167Y37557795D01*
X84567176Y37557798D01*
X84773340Y37651442D01*
X84773346Y37651445D01*
X84959473Y37780395D01*
X84959490Y37780409D01*
X85119591Y37940510D01*
X85119605Y37940527D01*
X85248555Y38126654D01*
X85248558Y38126660D01*
X85342202Y38332824D01*
X85342205Y38332833D01*
X85397532Y38552406D01*
X85408000Y38685394D01*
X85408000Y39746000D01*
X84369068Y39746000D01*
X84400000Y39901509D01*
X84400000Y40098491D01*
X84399989Y40098545D01*
X96999500Y40098545D01*
X96999500Y39901456D01*
X97030423Y39746000D01*
X97037949Y39708165D01*
X97113368Y39526086D01*
X97222861Y39362218D01*
X97362218Y39222861D01*
X97526086Y39113368D01*
X97708165Y39037949D01*
X97901459Y38999500D01*
X98098541Y38999500D01*
X98291835Y39037949D01*
X98473914Y39113368D01*
X98637782Y39222861D01*
X98777139Y39362218D01*
X98886632Y39526086D01*
X98962051Y39708165D01*
X99000500Y39901459D01*
X99000500Y40098541D01*
X99000499Y40098545D01*
X103999500Y40098545D01*
X103999500Y39901456D01*
X104030423Y39746000D01*
X104037949Y39708165D01*
X104113368Y39526086D01*
X104222861Y39362218D01*
X104362218Y39222861D01*
X104526086Y39113368D01*
X104708165Y39037949D01*
X104901459Y38999500D01*
X105098541Y38999500D01*
X105291835Y39037949D01*
X105473914Y39113368D01*
X105637782Y39222861D01*
X105777139Y39362218D01*
X105886632Y39526086D01*
X105962051Y39708165D01*
X106000500Y39901459D01*
X106000500Y40098541D01*
X105962051Y40291835D01*
X105886632Y40473914D01*
X105777139Y40637782D01*
X105637782Y40777139D01*
X105473914Y40886632D01*
X105292994Y40961571D01*
X105291838Y40962050D01*
X105291835Y40962051D01*
X105098544Y41000500D01*
X105098541Y41000500D01*
X104901459Y41000500D01*
X104901455Y41000500D01*
X104708164Y40962051D01*
X104708161Y40962050D01*
X104526085Y40886632D01*
X104362222Y40777142D01*
X104362215Y40777137D01*
X104222863Y40637785D01*
X104222858Y40637778D01*
X104113368Y40473915D01*
X104037950Y40291839D01*
X104037949Y40291836D01*
X103999500Y40098545D01*
X99000499Y40098545D01*
X98962051Y40291835D01*
X98886632Y40473914D01*
X98777139Y40637782D01*
X98637782Y40777139D01*
X98473914Y40886632D01*
X98292994Y40961571D01*
X98291838Y40962050D01*
X98291835Y40962051D01*
X98098544Y41000500D01*
X98098541Y41000500D01*
X97901459Y41000500D01*
X97901455Y41000500D01*
X97708164Y40962051D01*
X97708161Y40962050D01*
X97526085Y40886632D01*
X97362222Y40777142D01*
X97362215Y40777137D01*
X97222863Y40637785D01*
X97222858Y40637778D01*
X97113368Y40473915D01*
X97037950Y40291839D01*
X97037949Y40291836D01*
X96999500Y40098545D01*
X84399989Y40098545D01*
X84369068Y40254000D01*
X85408000Y40254000D01*
X85408000Y41314607D01*
X85397532Y41447595D01*
X85342205Y41667168D01*
X85342202Y41667177D01*
X85248558Y41873341D01*
X85248555Y41873347D01*
X85119605Y42059474D01*
X85119591Y42059491D01*
X84959490Y42219592D01*
X84959473Y42219606D01*
X84773346Y42348556D01*
X84773340Y42348559D01*
X84567176Y42442203D01*
X84567167Y42442206D01*
X84347594Y42497533D01*
X84214607Y42508000D01*
X83654000Y42508000D01*
X83654000Y40969068D01*
X83498491Y41000000D01*
X83301509Y41000000D01*
X83146000Y40969068D01*
X83146000Y42508000D01*
X82585393Y42508000D01*
X82452405Y42497533D01*
X82232832Y42442206D01*
X82232823Y42442203D01*
X82026659Y42348559D01*
X82026653Y42348556D01*
X81840526Y42219606D01*
X81840509Y42219592D01*
X81680408Y42059491D01*
X81680394Y42059474D01*
X81551444Y41873347D01*
X81551441Y41873341D01*
X81457797Y41667177D01*
X81457794Y41667168D01*
X81402467Y41447595D01*
X81392000Y41314607D01*
X76608000Y41314607D01*
X76597532Y41447595D01*
X76542205Y41667168D01*
X76542202Y41667177D01*
X76448558Y41873341D01*
X76448555Y41873347D01*
X76319605Y42059474D01*
X76319591Y42059491D01*
X76159490Y42219592D01*
X76159473Y42219606D01*
X75973346Y42348556D01*
X75973340Y42348559D01*
X75767176Y42442203D01*
X75767167Y42442206D01*
X75547594Y42497533D01*
X75414607Y42508000D01*
X74854000Y42508000D01*
X74854000Y40969068D01*
X74698491Y41000000D01*
X74501509Y41000000D01*
X74346000Y40969068D01*
X74346000Y42508000D01*
X73785393Y42508000D01*
X73652405Y42497533D01*
X73432832Y42442206D01*
X73432823Y42442203D01*
X73226659Y42348559D01*
X73226653Y42348556D01*
X73040526Y42219606D01*
X73040509Y42219592D01*
X72880408Y42059491D01*
X72880394Y42059474D01*
X72751444Y41873347D01*
X72751441Y41873341D01*
X72657797Y41667177D01*
X72657794Y41667168D01*
X72602467Y41447595D01*
X72592000Y41314607D01*
X70503500Y41314607D01*
X70503500Y41666498D01*
X70523502Y41734619D01*
X70540400Y41755588D01*
X72584840Y43800029D01*
X72599867Y43812863D01*
X72611253Y43821134D01*
X72657053Y43872002D01*
X72661520Y43876709D01*
X72705678Y43920865D01*
X72713944Y43933238D01*
X72725066Y43947538D01*
X72739040Y43963056D01*
X72769850Y44016422D01*
X72774193Y44023405D01*
X72805103Y44069664D01*
X72813401Y44089701D01*
X72820686Y44104473D01*
X72834527Y44128444D01*
X72851479Y44180620D01*
X72854894Y44189872D01*
X72873585Y44234996D01*
X72873585Y44234997D01*
X72873587Y44235001D01*
X72879141Y44262929D01*
X72882886Y44277279D01*
X72893542Y44310072D01*
X72898565Y44357872D01*
X72900296Y44369280D01*
X72908500Y44410521D01*
X72908500Y44445785D01*
X72909190Y44458955D01*
X72911247Y44478528D01*
X72913504Y44500000D01*
X72909190Y44541046D01*
X72908500Y44554216D01*
X72908500Y44589476D01*
X72908500Y44589480D01*
X72900290Y44630746D01*
X72898563Y44642144D01*
X72898366Y44644016D01*
X72893542Y44689928D01*
X72882884Y44722727D01*
X72879141Y44737072D01*
X72873587Y44765000D01*
X72854891Y44810136D01*
X72851476Y44819392D01*
X72834527Y44871556D01*
X72820690Y44895522D01*
X72813399Y44910308D01*
X72805106Y44930330D01*
X72805104Y44930333D01*
X72805103Y44930336D01*
X72774181Y44976614D01*
X72769838Y44983599D01*
X72739041Y45036943D01*
X72725075Y45052453D01*
X72713944Y45066764D01*
X72705678Y45079136D01*
X72661528Y45123286D01*
X72657005Y45128053D01*
X72611256Y45178864D01*
X72607545Y45181560D01*
X72599871Y45187136D01*
X72584840Y45199974D01*
X72579136Y45205678D01*
X72579135Y45205679D01*
X72579134Y45205680D01*
X72521611Y45244115D01*
X72517552Y45246944D01*
X72517549Y45246946D01*
X72456752Y45291118D01*
X72456751Y45291119D01*
X72456749Y45291120D01*
X72450121Y45294071D01*
X72431382Y45304404D01*
X72430336Y45305103D01*
X72360130Y45334184D01*
X72357139Y45335470D01*
X72282290Y45368794D01*
X72282280Y45368797D01*
X72281860Y45368886D01*
X72271062Y45372236D01*
X72270927Y45371789D01*
X72265002Y45373587D01*
X72183858Y45389728D01*
X72182245Y45390060D01*
X72095488Y45408500D01*
X72095487Y45408500D01*
X71904513Y45408500D01*
X71904511Y45408500D01*
X71817723Y45390053D01*
X71816109Y45389721D01*
X71734998Y45373587D01*
X71729086Y45371793D01*
X71728951Y45372236D01*
X71718151Y45368888D01*
X71717717Y45368796D01*
X71717709Y45368794D01*
X71642873Y45335475D01*
X71639845Y45334173D01*
X71569663Y45305103D01*
X71568618Y45304404D01*
X71549880Y45294072D01*
X71543250Y45291120D01*
X71543248Y45291119D01*
X71482449Y45246946D01*
X71478394Y45244120D01*
X71420866Y45205679D01*
X71420859Y45205673D01*
X71415157Y45199971D01*
X71400132Y45187139D01*
X71388747Y45178867D01*
X71342984Y45128042D01*
X71338443Y45123258D01*
X68889326Y42674141D01*
X68889321Y42674135D01*
X68789897Y42525336D01*
X68721415Y42360006D01*
X68721413Y42360001D01*
X68686500Y42184482D01*
X68686500Y37459216D01*
X68685810Y37446046D01*
X68681496Y37405001D01*
X68685810Y37363955D01*
X68686500Y37350785D01*
X68686500Y31784500D01*
X68666498Y31716379D01*
X68612842Y31669886D01*
X68560500Y31658500D01*
X65660518Y31658500D01*
X65485000Y31623587D01*
X65484997Y31623586D01*
X65479879Y31621466D01*
X65436574Y31603529D01*
X65423250Y31598010D01*
X65319664Y31555103D01*
X65170865Y31455679D01*
X65170859Y31455674D01*
X62915163Y29199978D01*
X62900136Y29187142D01*
X62888746Y29178866D01*
X62842984Y29128042D01*
X62838444Y29123258D01*
X62794325Y29079139D01*
X62794320Y29079133D01*
X62786053Y29066761D01*
X62774932Y29052463D01*
X62760961Y29036946D01*
X62730152Y28983585D01*
X62725800Y28976588D01*
X62694897Y28930338D01*
X62694894Y28930333D01*
X62686597Y28910302D01*
X62679312Y28895529D01*
X62665473Y28871558D01*
X62648527Y28819407D01*
X62645109Y28810141D01*
X62637392Y28791505D01*
X62637390Y28791500D01*
X62626413Y28765000D01*
X62626412Y28764997D01*
X62626411Y28764997D01*
X62620855Y28737065D01*
X62617111Y28722717D01*
X62606458Y28689932D01*
X62606457Y28689926D01*
X62601432Y28642124D01*
X62599702Y28630718D01*
X62591500Y28589486D01*
X62591500Y28554216D01*
X62590810Y28541046D01*
X62586496Y28500001D01*
X56408500Y28500001D01*
X56408500Y31860665D01*
X56428502Y31928786D01*
X56453676Y31956336D01*
X56453385Y31956652D01*
X56457036Y31960014D01*
X56457117Y31960103D01*
X56457220Y31960182D01*
X56615314Y32131917D01*
X56742984Y32327331D01*
X56836749Y32541093D01*
X56894051Y32767374D01*
X56913327Y33000000D01*
X56894051Y33232626D01*
X56875215Y33307007D01*
X56836750Y33458904D01*
X56836747Y33458911D01*
X56833670Y33465925D01*
X56742984Y33672669D01*
X56644517Y33823385D01*
X56615314Y33868084D01*
X56457225Y34039814D01*
X56457221Y34039818D01*
X56329360Y34139336D01*
X56273017Y34183190D01*
X56067727Y34294287D01*
X56067724Y34294288D01*
X56067723Y34294289D01*
X55846955Y34370079D01*
X55846948Y34370081D01*
X55748411Y34386524D01*
X55616712Y34408500D01*
X55383288Y34408500D01*
X55268066Y34389273D01*
X55153051Y34370081D01*
X55153044Y34370079D01*
X54932276Y34294289D01*
X54932273Y34294287D01*
X54726985Y34183191D01*
X54726983Y34183190D01*
X54542778Y34039818D01*
X54542774Y34039814D01*
X54384685Y33868084D01*
X54355483Y33823385D01*
X54301480Y33777296D01*
X54231132Y33767721D01*
X54166774Y33797698D01*
X54144517Y33823385D01*
X54115314Y33868084D01*
X53957225Y34039814D01*
X53957221Y34039818D01*
X53829360Y34139336D01*
X53773017Y34183190D01*
X53567727Y34294287D01*
X53567724Y34294288D01*
X53567723Y34294289D01*
X53346955Y34370079D01*
X53346948Y34370081D01*
X53248411Y34386524D01*
X53116712Y34408500D01*
X52883288Y34408500D01*
X52768066Y34389273D01*
X52653051Y34370081D01*
X52653044Y34370079D01*
X52432276Y34294289D01*
X52432273Y34294287D01*
X52226985Y34183191D01*
X52226983Y34183190D01*
X52059860Y34053112D01*
X51993818Y34027056D01*
X51924172Y34040841D01*
X51873036Y34090091D01*
X51864413Y34108513D01*
X51850445Y34145964D01*
X51850444Y34145966D01*
X51762904Y34262905D01*
X51645965Y34350445D01*
X51509093Y34401495D01*
X51448597Y34408000D01*
X50754000Y34408000D01*
X50754000Y33430703D01*
X50692993Y33465925D01*
X50565826Y33500000D01*
X50434174Y33500000D01*
X50307007Y33465925D01*
X50246000Y33430703D01*
X50246000Y34408000D01*
X49551402Y34408000D01*
X49490906Y34401495D01*
X49354035Y34350445D01*
X49354034Y34350445D01*
X49237095Y34262905D01*
X49149555Y34145966D01*
X49149555Y34145965D01*
X49098505Y34009094D01*
X49092000Y33948598D01*
X30541195Y33948598D01*
X30457231Y34039807D01*
X30457225Y34039813D01*
X30457220Y34039818D01*
X30457103Y34039909D01*
X30457069Y34039957D01*
X30453392Y34043341D01*
X30454088Y34044099D01*
X30415636Y34097535D01*
X30408500Y34139336D01*
X30408500Y34589478D01*
X30408499Y34589482D01*
X30373587Y34765000D01*
X30346995Y34829199D01*
X30305103Y34930336D01*
X30205678Y35079135D01*
X30205673Y35079141D01*
X29579140Y35705674D01*
X29579134Y35705679D01*
X29529760Y35738670D01*
X29430336Y35805103D01*
X29265000Y35873587D01*
X29089481Y35908500D01*
X29089479Y35908500D01*
X17095487Y35908500D01*
X17089479Y35908500D01*
X9089479Y35908500D01*
X8910520Y35908500D01*
X8910515Y35908500D01*
X8881400Y35902709D01*
X8881399Y35902708D01*
X8735000Y35873587D01*
X8569663Y35805102D01*
X8425090Y35708501D01*
X8425089Y35708500D01*
X8420862Y35705677D01*
X2294326Y29579141D01*
X2294321Y29579135D01*
X2194897Y29430336D01*
X2126415Y29265006D01*
X2126413Y29265001D01*
X2091500Y29089482D01*
X25500Y29089482D01*
X25500Y29937247D01*
X45502Y30005368D01*
X62405Y30026342D01*
X11350670Y41314607D01*
X20592000Y41314607D01*
X20592000Y40254000D01*
X21630932Y40254000D01*
X21600000Y40098491D01*
X21600000Y39901509D01*
X21630932Y39746000D01*
X20592000Y39746000D01*
X20592000Y38685394D01*
X20602467Y38552406D01*
X20657794Y38332833D01*
X20657797Y38332824D01*
X20751441Y38126660D01*
X20751444Y38126654D01*
X20880394Y37940527D01*
X20880408Y37940510D01*
X21040509Y37780409D01*
X21040526Y37780395D01*
X21226653Y37651445D01*
X21226659Y37651442D01*
X21432823Y37557798D01*
X21432832Y37557795D01*
X21652405Y37502468D01*
X21785393Y37492000D01*
X22346000Y37492000D01*
X22346000Y39030933D01*
X22501509Y39000000D01*
X22698491Y39000000D01*
X22854000Y39030933D01*
X22854000Y37492000D01*
X23414607Y37492000D01*
X23547594Y37502468D01*
X23767167Y37557795D01*
X23767176Y37557798D01*
X23973340Y37651442D01*
X23973346Y37651445D01*
X24159473Y37780395D01*
X24159490Y37780409D01*
X24319591Y37940510D01*
X24319605Y37940527D01*
X24448555Y38126654D01*
X24448558Y38126660D01*
X24542202Y38332824D01*
X24542205Y38332833D01*
X24597532Y38552406D01*
X24608000Y38685394D01*
X24608000Y39746000D01*
X23569068Y39746000D01*
X23600000Y39901509D01*
X23600000Y40098491D01*
X23569068Y40254000D01*
X24608000Y40254000D01*
X24608000Y41314607D01*
X29392000Y41314607D01*
X29392000Y40254000D01*
X30430932Y40254000D01*
X30400000Y40098491D01*
X30400000Y39901509D01*
X30430932Y39746000D01*
X29392000Y39746000D01*
X29392000Y38685394D01*
X29402467Y38552406D01*
X29457794Y38332833D01*
X29457797Y38332824D01*
X29551441Y38126660D01*
X29551444Y38126654D01*
X29680394Y37940527D01*
X29680408Y37940510D01*
X29840509Y37780409D01*
X29840526Y37780395D01*
X30026653Y37651445D01*
X30026659Y37651442D01*
X30232823Y37557798D01*
X30232832Y37557795D01*
X30452405Y37502468D01*
X30585393Y37492000D01*
X31146000Y37492000D01*
X31146000Y39030933D01*
X31301509Y39000000D01*
X31498491Y39000000D01*
X31654000Y39030933D01*
X31654000Y37492000D01*
X32214607Y37492000D01*
X32347594Y37502468D01*
X32567167Y37557795D01*
X32567176Y37557798D01*
X32773340Y37651442D01*
X32773346Y37651445D01*
X32959473Y37780395D01*
X32959490Y37780409D01*
X33119591Y37940510D01*
X33119605Y37940527D01*
X33248555Y38126654D01*
X33248558Y38126660D01*
X33342202Y38332824D01*
X33342205Y38332833D01*
X33397532Y38552406D01*
X33408000Y38685394D01*
X33408000Y39746000D01*
X32369068Y39746000D01*
X32400000Y39901509D01*
X32400000Y40098491D01*
X32369068Y40254000D01*
X33408000Y40254000D01*
X33408000Y41314607D01*
X46592000Y41314607D01*
X46592000Y40254000D01*
X47630932Y40254000D01*
X47600000Y40098491D01*
X47600000Y39901509D01*
X47630932Y39746000D01*
X46592000Y39746000D01*
X46592000Y38685394D01*
X46602467Y38552406D01*
X46657794Y38332833D01*
X46657797Y38332824D01*
X46751441Y38126660D01*
X46751444Y38126654D01*
X46880394Y37940527D01*
X46880408Y37940510D01*
X47040509Y37780409D01*
X47040526Y37780395D01*
X47226653Y37651445D01*
X47226659Y37651442D01*
X47432823Y37557798D01*
X47432832Y37557795D01*
X47652405Y37502468D01*
X47785393Y37492000D01*
X48346000Y37492000D01*
X48346000Y39030933D01*
X48501509Y39000000D01*
X48698491Y39000000D01*
X48854000Y39030933D01*
X48854000Y37492000D01*
X49414607Y37492000D01*
X49547594Y37502468D01*
X49767167Y37557795D01*
X49767176Y37557798D01*
X49973340Y37651442D01*
X49973346Y37651445D01*
X50159473Y37780395D01*
X50159490Y37780409D01*
X50319591Y37940510D01*
X50319605Y37940527D01*
X50448555Y38126654D01*
X50448558Y38126660D01*
X50542202Y38332824D01*
X50542205Y38332833D01*
X50597532Y38552406D01*
X50608000Y38685394D01*
X50608000Y39746000D01*
X49569068Y39746000D01*
X49600000Y39901509D01*
X49600000Y40098491D01*
X49569068Y40254000D01*
X50608000Y40254000D01*
X50608000Y41314607D01*
X55392000Y41314607D01*
X55392000Y40254000D01*
X56430932Y40254000D01*
X56400000Y40098491D01*
X56400000Y39901509D01*
X56430932Y39746000D01*
X55392000Y39746000D01*
X55392000Y38685394D01*
X55402467Y38552406D01*
X55457794Y38332833D01*
X55457797Y38332824D01*
X55551441Y38126660D01*
X55551444Y38126654D01*
X55680394Y37940527D01*
X55680408Y37940510D01*
X55840509Y37780409D01*
X55840526Y37780395D01*
X56026653Y37651445D01*
X56026659Y37651442D01*
X56232823Y37557798D01*
X56232832Y37557795D01*
X56452405Y37502468D01*
X56585393Y37492000D01*
X57146000Y37492000D01*
X57146000Y39030933D01*
X57301509Y39000000D01*
X57498491Y39000000D01*
X57654000Y39030933D01*
X57654000Y37492000D01*
X58214607Y37492000D01*
X58347594Y37502468D01*
X58567167Y37557795D01*
X58567176Y37557798D01*
X58773340Y37651442D01*
X58773346Y37651445D01*
X58959473Y37780395D01*
X58959490Y37780409D01*
X59119591Y37940510D01*
X59119605Y37940527D01*
X59248555Y38126654D01*
X59248558Y38126660D01*
X59342202Y38332824D01*
X59342205Y38332833D01*
X59397532Y38552406D01*
X59408000Y38685394D01*
X59408000Y39746000D01*
X58369068Y39746000D01*
X58400000Y39901509D01*
X58400000Y40098491D01*
X58369068Y40254000D01*
X59408000Y40254000D01*
X59408000Y41314607D01*
X59397532Y41447595D01*
X59342205Y41667168D01*
X59342202Y41667177D01*
X59248558Y41873341D01*
X59248555Y41873347D01*
X59119605Y42059474D01*
X59119591Y42059491D01*
X58959490Y42219592D01*
X58959473Y42219606D01*
X58773346Y42348556D01*
X58773340Y42348559D01*
X58567176Y42442203D01*
X58567167Y42442206D01*
X58347594Y42497533D01*
X58214607Y42508000D01*
X57654000Y42508000D01*
X57654000Y40969068D01*
X57498491Y41000000D01*
X57301509Y41000000D01*
X57146000Y40969068D01*
X57146000Y42508000D01*
X56585393Y42508000D01*
X56452405Y42497533D01*
X56232832Y42442206D01*
X56232823Y42442203D01*
X56026659Y42348559D01*
X56026653Y42348556D01*
X55840526Y42219606D01*
X55840509Y42219592D01*
X55680408Y42059491D01*
X55680394Y42059474D01*
X55551444Y41873347D01*
X55551441Y41873341D01*
X55457797Y41667177D01*
X55457794Y41667168D01*
X55402467Y41447595D01*
X55392000Y41314607D01*
X50608000Y41314607D01*
X50597532Y41447595D01*
X50542205Y41667168D01*
X50542202Y41667177D01*
X50448558Y41873341D01*
X50448555Y41873347D01*
X50319605Y42059474D01*
X50319591Y42059491D01*
X50159490Y42219592D01*
X50159473Y42219606D01*
X49973346Y42348556D01*
X49973340Y42348559D01*
X49767176Y42442203D01*
X49767167Y42442206D01*
X49547594Y42497533D01*
X49414607Y42508000D01*
X48854000Y42508000D01*
X48854000Y40969068D01*
X48698491Y41000000D01*
X48501509Y41000000D01*
X48346000Y40969068D01*
X48346000Y42508000D01*
X47785393Y42508000D01*
X47652405Y42497533D01*
X47432832Y42442206D01*
X47432823Y42442203D01*
X47226659Y42348559D01*
X47226653Y42348556D01*
X47040526Y42219606D01*
X47040509Y42219592D01*
X46880408Y42059491D01*
X46880394Y42059474D01*
X46751444Y41873347D01*
X46751441Y41873341D01*
X46657797Y41667177D01*
X46657794Y41667168D01*
X46602467Y41447595D01*
X46592000Y41314607D01*
X33408000Y41314607D01*
X33397532Y41447595D01*
X33342205Y41667168D01*
X33342202Y41667177D01*
X33248558Y41873341D01*
X33248555Y41873347D01*
X33119605Y42059474D01*
X33119591Y42059491D01*
X32959490Y42219592D01*
X32959473Y42219606D01*
X32773346Y42348556D01*
X32773340Y42348559D01*
X32567176Y42442203D01*
X32567167Y42442206D01*
X32347594Y42497533D01*
X32214607Y42508000D01*
X31654000Y42508000D01*
X31654000Y40969068D01*
X31498491Y41000000D01*
X31301509Y41000000D01*
X31146000Y40969068D01*
X31146000Y42508000D01*
X30585393Y42508000D01*
X30452405Y42497533D01*
X30232832Y42442206D01*
X30232823Y42442203D01*
X30026659Y42348559D01*
X30026653Y42348556D01*
X29840526Y42219606D01*
X29840509Y42219592D01*
X29680408Y42059491D01*
X29680394Y42059474D01*
X29551444Y41873347D01*
X29551441Y41873341D01*
X29457797Y41667177D01*
X29457794Y41667168D01*
X29402467Y41447595D01*
X29392000Y41314607D01*
X24608000Y41314607D01*
X24597532Y41447595D01*
X24542205Y41667168D01*
X24542202Y41667177D01*
X24448558Y41873341D01*
X24448555Y41873347D01*
X24319605Y42059474D01*
X24319591Y42059491D01*
X24159490Y42219592D01*
X24159473Y42219606D01*
X23973346Y42348556D01*
X23973340Y42348559D01*
X23767176Y42442203D01*
X23767167Y42442206D01*
X23547594Y42497533D01*
X23414607Y42508000D01*
X22854000Y42508000D01*
X22854000Y40969068D01*
X22698491Y41000000D01*
X22501509Y41000000D01*
X22346000Y40969068D01*
X22346000Y42508000D01*
X21785393Y42508000D01*
X21652405Y42497533D01*
X21432832Y42442206D01*
X21432823Y42442203D01*
X21226659Y42348559D01*
X21226653Y42348556D01*
X21040526Y42219606D01*
X21040509Y42219592D01*
X20880408Y42059491D01*
X20880394Y42059474D01*
X20751444Y41873347D01*
X20751441Y41873341D01*
X20657797Y41667177D01*
X20657794Y41667168D01*
X20602467Y41447595D01*
X20592000Y41314607D01*
X11350670Y41314607D01*
X15898304Y45862241D01*
X34891500Y45862241D01*
X34891500Y45137759D01*
X34918795Y44965426D01*
X34918796Y44965423D01*
X34966239Y44819404D01*
X34972712Y44799484D01*
X35051926Y44644019D01*
X35154483Y44502861D01*
X35154485Y44502859D01*
X35154487Y44502856D01*
X35277855Y44379488D01*
X35277858Y44379486D01*
X35277861Y44379483D01*
X35419019Y44276926D01*
X35574484Y44197712D01*
X35740426Y44143795D01*
X35912759Y44116500D01*
X35912762Y44116500D01*
X36087238Y44116500D01*
X36087241Y44116500D01*
X36259574Y44143795D01*
X36425516Y44197712D01*
X36580981Y44276926D01*
X36722139Y44379483D01*
X36821185Y44478530D01*
X36883495Y44512553D01*
X36954311Y44507489D01*
X37011147Y44464942D01*
X37017512Y44455592D01*
X37045309Y44410526D01*
X37050970Y44401348D01*
X37050975Y44401342D01*
X37176341Y44275976D01*
X37176347Y44275971D01*
X37176348Y44275970D01*
X37327262Y44182885D01*
X37495574Y44127113D01*
X37599455Y44116500D01*
X38400544Y44116501D01*
X38504426Y44127113D01*
X38672738Y44182885D01*
X38823652Y44275970D01*
X38949030Y44401348D01*
X39042115Y44552262D01*
X39097887Y44720574D01*
X39108500Y44824455D01*
X39108499Y46175544D01*
X39097887Y46279426D01*
X39042115Y46447738D01*
X38949030Y46598652D01*
X38949029Y46598653D01*
X38949024Y46598659D01*
X38823658Y46724025D01*
X38823652Y46724030D01*
X38672738Y46817115D01*
X38554770Y46856205D01*
X38504427Y46872887D01*
X38504420Y46872888D01*
X38400553Y46883500D01*
X37599455Y46883500D01*
X37495574Y46872888D01*
X37327261Y46817115D01*
X37176347Y46724030D01*
X37176341Y46724025D01*
X37050975Y46598659D01*
X37050970Y46598653D01*
X37017520Y46544421D01*
X36964734Y46496943D01*
X36894659Y46485540D01*
X36829543Y46513833D01*
X36821184Y46521473D01*
X36722144Y46620513D01*
X36722141Y46620515D01*
X36722139Y46620517D01*
X36580981Y46723074D01*
X36425516Y46802288D01*
X36425513Y46802289D01*
X36425511Y46802290D01*
X36259577Y46856204D01*
X36259574Y46856205D01*
X36087241Y46883500D01*
X35912759Y46883500D01*
X35740426Y46856205D01*
X35740423Y46856205D01*
X35740422Y46856204D01*
X35574488Y46802290D01*
X35574482Y46802287D01*
X35419015Y46723072D01*
X35277858Y46620515D01*
X35277855Y46620513D01*
X35154487Y46497145D01*
X35154485Y46497142D01*
X35051928Y46355985D01*
X34972713Y46200518D01*
X34972710Y46200512D01*
X34964598Y46175544D01*
X34918795Y46034574D01*
X34891500Y45862241D01*
X15898304Y45862241D01*
X19973658Y49937595D01*
X20035970Y49971621D01*
X20062753Y49974500D01*
X105437247Y49974500D01*
X105505368Y49954498D01*
G37*
G04 #@! TD.AperFunction*
M02*
