M48
; DRILL file {KiCad 8.0.6} date 2025-05-06T15:42:09+0900
; FORMAT={-:-/ absolute / metric / decimal}
; #@! TF.CreationDate,2025-05-06T15:42:09+09:00
; #@! TF.GenerationSoftware,Kicad,Pcbnew,8.0.6
; #@! TF.FileFunction,MixedPlating,1,2
FMAT,2
METRIC
; #@! TA.AperFunction,Plated,PTH,ViaDrill
T1C0.400
; #@! TA.AperFunction,Plated,PTH,ComponentDrill
T2C0.750
; #@! TA.AperFunction,Plated,PTH,ComponentDrill
T3C0.800
; #@! TA.AperFunction,Plated,PTH,ComponentDrill
T4C0.850
; #@! TA.AperFunction,Plated,PTH,ComponentDrill
T5C1.000
; #@! TA.AperFunction,Plated,PTH,ComponentDrill
T6C2.000
; #@! TA.AperFunction,Plated,PTH,ComponentDrill
T7C3.200
; #@! TA.AperFunction,NonPlated,NPTH,ComponentDrill
T8C1.500
; #@! TA.AperFunction,NonPlated,NPTH,ComponentDrill
T9C2.200
%
G90
G05
T1
X15.5Y14.0
X15.5Y-0.5
X17.0Y35.0
X18.5Y14.5
X18.56Y-10.5
X24.0Y30.0
X26.0Y17.45
X28.0Y18.1
X29.0Y30.5
X33.5Y29.5
X38.0Y22.0
X38.0Y-24.0
X41.5Y34.0
X50.0Y16.0
X50.5Y19.0
X52.5Y27.0
X52.5Y16.0
X55.5Y19.0
X58.5Y30.5
X63.5Y47.5
X63.5Y28.5
X64.934Y14.934
X65.0Y25.0
X65.0Y21.0
X65.5Y18.0
X67.0Y14.0
X69.595Y37.405
X72.0Y44.5
X74.0Y18.0
X75.0Y17.0
X81.5Y30.0
X84.5Y33.0
X92.325Y39.5
X94.5Y45.0
X95.5Y2.0
X100.0Y9.5
X104.9Y32.5
X105.4Y45.5
T2
X36.0Y45.5
X38.0Y45.5
T3
X87.46Y-15.0
X90.0Y-15.0
X92.54Y-15.0
T4
X82.3Y-11.0
X86.5Y-11.0
T5
X7.16Y26.67
X7.16Y24.13
X7.16Y21.59
X7.16Y19.05
X7.16Y16.51
X7.16Y13.97
X7.16Y11.43
X7.16Y8.89
X7.16Y6.35
X7.16Y3.81
X7.16Y-3.81
X7.16Y-6.35
X7.16Y-8.89
X7.16Y-11.43
X7.16Y-13.97
X7.16Y-16.51
X7.16Y-19.05
X7.16Y-21.59
X7.16Y-24.13
X7.16Y-26.67
X24.5Y33.0
X27.0Y33.0
X27.5Y-2.0
X27.5Y-26.0
X29.5Y33.0
X30.0Y-2.0
X30.0Y-26.0
X32.5Y-2.0
X32.5Y-26.0
X50.5Y33.0
X53.0Y33.0
X55.5Y33.0
X76.5Y33.0
X79.0Y33.0
X81.5Y33.0
X87.46Y-20.08
X92.54Y-20.08
T6
X22.6Y40.0
X25.6Y5.0
X25.6Y-19.0
X31.4Y40.0
X34.4Y5.0
X34.4Y-19.0
X48.6Y40.0
X57.4Y40.0
X74.6Y40.0
X83.4Y40.0
T7
X12.0Y26.0
X12.0Y-26.0
X77.0Y26.0
X77.0Y-26.0
T8
X98.0Y40.0
X105.0Y40.0
T9
X82.3Y-0.8
X86.5Y-0.8
M30
