G04 #@! TF.GenerationSoftware,KiCad,Pcbnew,8.0.6*
G04 #@! TF.CreationDate,2025-05-06T15:42:09+09:00*
G04 #@! TF.ProjectId,PCB,5043422e-6b69-4636-9164-5f7063625858,rev?*
G04 #@! TF.SameCoordinates,Original*
G04 #@! TF.FileFunction,Legend,Bot*
G04 #@! TF.FilePolarity,Positive*
%FSLAX46Y46*%
G04 Gerber Fmt 4.6, Leading zero omitted, Abs format (unit mm)*
G04 Created by KiCad (PCBNEW 8.0.6) date 2025-05-06 15:42:09*
%MOMM*%
%LPD*%
G01*
G04 APERTURE LIST*
%ADD10C,0.150000*%
%ADD11C,0.120000*%
%ADD12C,0.100000*%
G04 APERTURE END LIST*
D10*
X32710839Y43177800D02*
X32567982Y43130181D01*
X32567982Y43130181D02*
X32329887Y43130181D01*
X32329887Y43130181D02*
X32234649Y43177800D01*
X32234649Y43177800D02*
X32187030Y43225420D01*
X32187030Y43225420D02*
X32139411Y43320658D01*
X32139411Y43320658D02*
X32139411Y43415896D01*
X32139411Y43415896D02*
X32187030Y43511134D01*
X32187030Y43511134D02*
X32234649Y43558753D01*
X32234649Y43558753D02*
X32329887Y43606372D01*
X32329887Y43606372D02*
X32520363Y43653991D01*
X32520363Y43653991D02*
X32615601Y43701610D01*
X32615601Y43701610D02*
X32663220Y43749229D01*
X32663220Y43749229D02*
X32710839Y43844467D01*
X32710839Y43844467D02*
X32710839Y43939705D01*
X32710839Y43939705D02*
X32663220Y44034943D01*
X32663220Y44034943D02*
X32615601Y44082562D01*
X32615601Y44082562D02*
X32520363Y44130181D01*
X32520363Y44130181D02*
X32282268Y44130181D01*
X32282268Y44130181D02*
X32139411Y44082562D01*
X31710839Y43130181D02*
X31710839Y44130181D01*
X31710839Y44130181D02*
X31329887Y44130181D01*
X31329887Y44130181D02*
X31234649Y44082562D01*
X31234649Y44082562D02*
X31187030Y44034943D01*
X31187030Y44034943D02*
X31139411Y43939705D01*
X31139411Y43939705D02*
X31139411Y43796848D01*
X31139411Y43796848D02*
X31187030Y43701610D01*
X31187030Y43701610D02*
X31234649Y43653991D01*
X31234649Y43653991D02*
X31329887Y43606372D01*
X31329887Y43606372D02*
X31710839Y43606372D01*
X32333333Y46045181D02*
X32333333Y45330896D01*
X32333333Y45330896D02*
X32380952Y45188039D01*
X32380952Y45188039D02*
X32476190Y45092800D01*
X32476190Y45092800D02*
X32619047Y45045181D01*
X32619047Y45045181D02*
X32714285Y45045181D01*
X31428571Y45711848D02*
X31428571Y45045181D01*
X31666666Y46092800D02*
X31904761Y45378515D01*
X31904761Y45378515D02*
X31285714Y45378515D01*
D11*
X40060000Y39140000D02*
X40060000Y46960000D01*
X39140000Y45360000D02*
X40060000Y45360000D01*
X33940000Y39140000D02*
X40060000Y39140000D01*
X39300000Y41400000D02*
X39300000Y43000000D01*
X38300000Y41400000D02*
X39300000Y41400000D01*
X40060000Y46960000D02*
X39140000Y46960000D01*
X39140000Y46960000D02*
X39140000Y45360000D01*
X39140000Y45360000D02*
X38860000Y45360000D01*
X38860000Y46575000D02*
X38860000Y45360000D01*
X38800000Y39140000D02*
X38800000Y41400000D01*
X39300000Y43000000D02*
X38300000Y43000000D01*
X38300000Y43000000D02*
X38300000Y41400000D01*
X38300000Y39140000D02*
X38300000Y41400000D01*
X36500000Y43500000D02*
X37500000Y43500000D01*
X37500000Y43500000D02*
X37500000Y39140000D01*
X36500000Y39140000D02*
X36500000Y43500000D01*
X34700000Y43000000D02*
X35700000Y43000000D01*
X35700000Y43000000D02*
X35700000Y41400000D01*
X34860000Y45360000D02*
X34860000Y46960000D01*
X35140000Y45360000D02*
X34860000Y45360000D01*
X34700000Y41400000D02*
X34700000Y43000000D01*
X35700000Y41400000D02*
X34700000Y41400000D01*
X34860000Y46960000D02*
X33940000Y46960000D01*
X34860000Y45360000D02*
X33940000Y45360000D01*
X33940000Y46960000D02*
X33940000Y39140000D01*
X106500000Y15000000D02*
X106500000Y-28500000D01*
D12*
X106500000Y15000000D02*
X105500000Y15800000D01*
X105500000Y-29800000D02*
X106500000Y-28500000D01*
D11*
X105500000Y-29800000D02*
X81500000Y-29800000D01*
X102500000Y16000000D02*
X102500000Y19000000D01*
X98500000Y16000000D02*
X98500000Y19000000D01*
X88500000Y16000000D02*
X88500000Y19000000D01*
X84500000Y16000000D02*
X84500000Y19000000D01*
D12*
X81500000Y-29800000D02*
X80500000Y-28500000D01*
D11*
X81500000Y15800000D02*
X105500000Y15800000D01*
X80500000Y-28500000D02*
X80500000Y15000000D01*
D12*
X80500000Y15000000D02*
X81500000Y15800000D01*
M02*
